<svg xmlns="http://www.w3.org/2000/svg" xmlns:xlink="http://www.w3.org/1999/xlink" width="100" height="70" viewBox="0 0 100 70">
    <defs>
        <path id="a" d="M4.766.352L1.348 2.869s-4.938 7.441 10.15 13.574c15.087 6.133 32.25-5.375 39.874 13"/>
        <path id="b" d="M19.03 10.828c0 5.954-4.23 10.781-9.446 10.781-5.216 0-9.445-4.827-9.445-10.781C.139 1.892 4.368.048 9.584.048c5.217 0 9.446.397 9.446 10.78z"/>
        <path id="d" d="M13.312 21.826c-4.69 0-9.012-1.579-11.858-4.331C.14 16.395.14 12.167.14 10.777c0-1.14 0-4.594 1.015-6.131C3.948 1.744 8.49.012 13.312.012c5.075 0 9.754 1.877 12.514 5.02.795.864.795 3.801.795 5.745 0 2.243 0 5.313-1.063 6.325-2.804 2.963-7.376 4.724-12.246 4.724"/>
        <path id="f" d="M36.432 17.655c0 9.721-8.126 17.601-18.149 17.601C8.26 35.256.135 27.376.135 17.655S8.26.054 18.283.054s18.149 7.88 18.149 17.601z"/>
    </defs>
    <g fill="none" fill-rule="evenodd">
        <g transform="rotate(140 43.406 35.733)">
            <use stroke="#BBBDBF" stroke-width="2.5" xlink:href="#a"/>
            <use stroke="#E6E6E6" stroke-width="2" xlink:href="#a"/>
        </g>
        <path stroke="#BBBDBF" stroke-dasharray="1,2" stroke-width="2" d="M95.75 38l1-4.125S95.75 25 80.25 30 59 54.847 41.347 45.673"/>
        <g>
            <path fill="#E6E6E6" d="M45.008 50.36c1.634-.811 1.326-.615 2.856-1.528.915-.547 1.307-1.426 1.181-2.428-.062-.492.1-.76.511-1.036 1.066-.716 1.68-1.745 1.27-2.898-.36-1.01.01-1.472.845-1.897.109-.056.197-.154.288-.239 1.318-1.227 1.447-3.014.32-4.413-.873-1.083-2.557-1.173-4.061-.163-1.698 1.14-3.367 2.318-5.045 3.485l-1.42.978"/>
            <path fill="#231F20" fill-rule="nonzero" d="M45.194 50.734c.378-.188 1.146-.563 1.225-.602l.262-.134c.304-.16.572-.315 1.396-.807 1.039-.62 1.529-1.65 1.38-2.836-.04-.309.025-.434.331-.64 1.297-.87 1.886-2.098 1.428-3.384-.255-.716-.108-1.002.644-1.386.12-.06.196-.123.33-.254l.053-.05c1.476-1.375 1.623-3.41.357-4.982-1.029-1.276-2.957-1.362-4.614-.25-1.086.73-1.952 1.329-3.871 2.668l-.237.165-.942.657-1.418.977.471.69 1.42-.978.945-.659.236-.165a238.03 238.03 0 0 1 3.86-2.658c1.329-.893 2.777-.83 3.508.077.988 1.227.877 2.765-.282 3.844l-.064.061a.69.69 0 0 1-.13.112c-1.096.559-1.456 1.258-1.046 2.408.311.876-.1 1.733-1.111 2.412-.553.371-.772.795-.69 1.434.107.86-.23 1.567-.984 2.018-.811.484-1.071.635-1.357.785-.075.04-.154.08-.247.126-.075.037-.842.413-1.224.602l.37.75z"/>
            <path fill="#F2EEED" d="M42.59 41.914l-.48-1.576c1.883-1.28 5.162-3.44 7.066-4.68 1.555-1.01 2.97-.21 3.8 2.071-.064.03-.155.111-.188.082-2.012-1.814-3.368-.591-4.77.39-1.345.941-4.09 2.758-5.428 3.713"/>
            <path fill="#BBBDBF" d="M45.64 48.175c1.072-.366 3.073-1.743 3.392-2.108l.012 1.048-.348 1.131-.937.59-1.272.685-.326.128-.52-1.474z"/>
            <path fill="#231F20" fill-rule="nonzero" d="M45.194 50.734c.378-.188 1.146-.563 1.225-.602l.262-.134c.304-.16.572-.315 1.396-.807 1.039-.62 1.529-1.65 1.38-2.836-.04-.309.025-.434.331-.64 1.297-.87 1.886-2.098 1.428-3.384-.255-.716-.108-1.002.644-1.386.12-.06.196-.123.33-.254l.053-.05c1.476-1.375 1.623-3.41.357-4.982-1.029-1.276-2.957-1.362-4.614-.25-1.086.73-1.952 1.329-3.871 2.668l-.237.165-.942.657-1.418.977.471.69 1.42-.978.945-.659.236-.165a238.03 238.03 0 0 1 3.86-2.658c1.329-.893 2.777-.83 3.508.077.988 1.227.877 2.765-.282 3.844l-.064.061a.69.69 0 0 1-.13.112c-1.096.559-1.456 1.258-1.046 2.408.311.876-.1 1.733-1.111 2.412-.553.371-.772.795-.69 1.434.107.86-.23 1.567-.984 2.018-.811.484-1.071.635-1.357.785-.075.04-.154.08-.247.126-.075.037-.842.413-1.224.602l.37.75z"/>
            <path fill="#231F20" d="M48.573 42.096c.255.17.416.397.166.631-.235.22-.38-.05-.503-.282.04-.206.133-.346.337-.349"/>
            <path fill="#231F20" fill-rule="nonzero" d="M51.99 39.665c-.454.48-2.382 1.817-2.786 1.976a.416.416 0 0 0-.232.54.416.416 0 0 0 .538.238c.52-.205 2.548-1.61 3.083-2.177a.42.42 0 0 0-.017-.59.412.412 0 0 0-.586.013z"/>
            <path fill="#E6E6E6" d="M25.323 46.816l-1.7.282c-2.018.327-4.038.639-6.05.998-1.784.319-2.933 1.553-2.808 2.938.16 1.79 1.495 2.986 3.296 2.953.124-.002.256.007.372-.028.896-.274 1.484-.198 1.926.777.506 1.115 1.663 1.429 2.927 1.203.487-.087.79-.007 1.087.39.606.809 1.499 1.168 2.536.926 1.735-.406 1.377-.334 3.116-.885"/>
            <path fill="#231F20" fill-rule="nonzero" d="M25.253 46.404l-1.7.283-1.282.205-.135.022c-2.316.37-3.35.541-4.639.771-1.964.35-3.292 1.752-3.145 3.384.18 2.01 1.701 3.372 3.72 3.335h.07c.188 0 .285-.006.414-.046.808-.246 1.113-.143 1.426.55.564 1.242 1.84 1.717 3.379 1.442.362-.065.495-.02.682.23.717.957 1.784 1.357 2.962 1.081.935-.218 1.236-.292 1.565-.389.088-.026.178-.053.282-.086.083-.026.897-.29 1.3-.417l-.254-.797c-.406.129-1.22.392-1.299.417-.099.031-.183.057-.266.081-.308.091-.6.163-1.52.378-.856.2-1.59-.075-2.11-.768-.386-.516-.837-.67-1.492-.552-1.2.214-2.09-.117-2.475-.963-.504-1.112-1.25-1.365-2.425-1.006a.685.685 0 0 1-.171.01h-.088c-1.584.03-2.733-1-2.874-2.57-.105-1.158.893-2.21 2.47-2.492 1.28-.229 2.312-.399 4.623-.768l.135-.022 1.285-.206 1.702-.283-.14-.824z"/>
            <path fill="#F2EEED" d="M25.897 48.615l-.75-1.467c-2.242.387-6.102 1.11-8.332 1.542-1.82.353-2.283 1.913-1.296 4.13.067-.024.19-.028.192-.072.188-2.702 2.013-2.765 3.702-3.033 1.622-.257 4.858-.857 6.484-1.1"/>
            <path fill="#BBBDBF" d="M28.053 55.238c-1.026.481-3.422.88-3.905.84l.72.762 1.036.572 1.084-.227 1.39-.391.323-.134-.648-1.422z"/>
            <path fill="#231F20" fill-rule="nonzero" d="M25.253 46.404l-1.7.283-1.282.205-.135.022c-2.316.37-3.35.541-4.639.771-1.964.35-3.292 1.752-3.145 3.384.18 2.01 1.701 3.372 3.72 3.335h.07c.188 0 .285-.006.414-.046.808-.246 1.113-.143 1.426.55.564 1.242 1.84 1.717 3.379 1.442.362-.065.495-.02.682.23.717.957 1.784 1.357 2.962 1.081.935-.218 1.236-.292 1.565-.389.088-.026.178-.053.282-.086.083-.026.897-.29 1.3-.417l-.254-.797c-.406.129-1.22.392-1.299.417-.099.031-.183.057-.266.081-.308.091-.6.163-1.52.378-.856.2-1.59-.075-2.11-.768-.386-.516-.837-.67-1.492-.552-1.2.214-2.09-.117-2.475-.963-.504-1.112-1.25-1.365-2.425-1.006a.685.685 0 0 1-.171.01h-.088c-1.584.03-2.733-1-2.874-2.57-.105-1.158.893-2.21 2.47-2.492 1.28-.229 2.312-.399 4.623-.768l.135-.022 1.285-.206 1.702-.283-.14-.824z"/>
            <path fill="#231F20" d="M21.72 52.902c-.065.3-.024.575.32.57.32-.006.238-.3.165-.553-.172-.12-.336-.156-.485-.017"/>
            <path fill="#231F20" fill-rule="nonzero" d="M17.54 54.36c.779.037 3.215-.361 3.73-.575a.416.416 0 0 0 .222-.545.416.416 0 0 0-.542-.227c-.4.166-2.716.545-3.376.514a.412.412 0 0 0-.431.397.42.42 0 0 0 .398.437z"/>
            <path fill="#E6E6E6" d="M45.332 47.643c2.094 5.183-.173 10.986-5.064 12.962-4.89 1.976-10.553-.623-12.647-5.806-3.143-7.778.174-10.985 5.064-12.961 4.891-1.976 8.996-3.232 12.647 5.805"/>
            <g transform="rotate(-22 125.182 -38.095)">
                <mask id="c" fill="#fff">
                    <use xlink:href="#b"/>
                </mask>
                <path fill="#FFF" d="M18.102 6.4s1.728 7.267-2.374 11.066c0 0-1.433 1.082-2.738 1.79-1.979 1.073-4.105 1.938-3.983 2.01.083.048 3.782-.562 5.002-1.11 1.113-.501 2.802-2.053 2.802-2.053s2.074-2.006 2.581-4.884c.507-2.878-.322-7.527-.322-7.527l-.968.708z" mask="url(#c)" transform="rotate(-10 14.28 13.48)"/>
                <path fill="#BBBDBF" d="M9.364 7.08s1.728 7.268-2.374 11.067c0 0-1.433 1.081-2.738 1.79C2.273 21.01.147 21.873.27 21.946c.082.048 3.78-.563 5-1.111 1.114-.5 2.803-2.052 2.803-2.052s2.074-2.006 2.58-4.885c.508-2.878-.322-7.526-.322-7.526l-.967.708z" mask="url(#c)" transform="scale(-1 1) rotate(5 0 -112.756)"/>
                <path fill="#BBBDBF" d="M8.519 9.57c9.488 0 10.923-4.974 10.923-4.974l-1.804-.666-18.911.336-.629.877S-.969 9.57 8.52 9.57" mask="url(#c)"/>
            </g>
            <path fill="#231F20" fill-rule="nonzero" d="M44.702 47.186c-1.786-4.422-3.65-6.666-5.779-7.328-1.68-.522-3.31-.176-6.477 1.103-5.666 2.29-7.364 5.883-4.492 12.992 2.148 5.316 7.643 8.089 12.256 6.225 4.614-1.864 6.64-7.676 4.492-12.992zm.768-.31c2.313 5.725.114 12.032-4.946 14.077-5.06 2.044-11.024-.965-13.337-6.69-3.052-7.553-1.13-11.622 4.946-14.077 3.338-1.349 5.105-1.724 7.03-1.126 2.416.751 4.435 3.183 6.307 7.816z"/>
            <path fill="#221F20" fill-rule="nonzero" d="M34.534 47.968l2.676 6.624a.473.473 0 0 0 .614.264.473.473 0 0 0 .259-.616l-2.677-6.624a.473.473 0 0 0-.614-.264.473.473 0 0 0-.258.616z"/>
            <g>
                <path fill="#FFF" d="M15.164 14.504l.618-1.063 1.149-.464.683-.276.517-.06.39-.418-.092-1.034.214-.678.431-.988.736-.593 1.07-.525.881-.097.962.37.577.801.395.488.524.287.966-.131s.222-.164.756-.139c.534.025.9.216.9.216l.757.667.231.93.365.993s.082.425-.194 1.037c-.276.614-.782 1.15-.782 1.15l-1.004.733-1.911.408-1.86.567-1.372.665-.953.477-1.344.026-.491-.1-.921-.402-.942-.811-1.12-1.074-.152-.733.016-.229z"/>
                <path fill="#EE5F56" d="M23.467 9.968c.87 1.026.866 2.386-.122 3.395-.705.72-1.24 1.43-.89 2.52.057.174.083.34-.116.455-.255.147-.475.07-.67-.11-.815-.744-1.604-1.511-2.038-2.565a3.151 3.151 0 0 1-.295-1.974c.079-.475.132-.898.838-.54.56.283 1.008-.224.839-.68-.438-1.172.38-.876.92-.962.38-.061.753.236 1.132.04 0 0 .271.27.402.421M21.032 16.794c-1.757.943-4.403.405-5.281-1.025.221-1.022.862-2.113 1.783-2.056.921.056 1.084.198 1.113.229.028.03 1.394 2.05 2.385 2.852zM26.271 14.511c-.756.081-1.37.331-1.93.756-.317.241-.566.678-.91.314-.329-.348-.224-1.157.101-1.42.89-.715 1.308-1.416 1.567-2.461.254-.115.483-.243.875-.354.837-.128 1.193.164 1.773.532.3 1.375-.203 2.497-1.476 2.633z"/>
                <path fill="#231F20" d="M15.908 15.747c-.698-1.288.155-2.413 1.52-2.47.615-.093 1.026.067 1.155.784.128.717 1.287 1.893 2.202 2.633-1.622.872-4.18.34-4.877-.947zm3.036-4.317c.034-1.047.539-1.839 1.477-2.22.901-.368 2.238-.509 2.954.873.714 1.382.826 2.276-.117 3.24-.673.688-1.184 1.365-.848 2.404.054.167.079.325-.112.434-.243.141-.453.067-.64-.104-.777-.71-1.478-1.346-2.064-2.412-.585-1.066-.677-1.4-.65-2.215zm8.779.44c.293 1.348-.288 2.004-1.51 2.427-1.181.41-1.463.426-1.829.896-.213.275-.555.665-.893.307-.322-.34-.095-.824.224-1.081.874-.702 1.697-2.091 1.413-2.724-.285-.633-.08-.937.585-.95 1.015-.277 1.607.247 2.01 1.125zm-.06 3.033c1.199-1.36 1.49-2.66.853-3.756-.684-1.175-1.844-1.919-3.537-1.361-.468.153-.592-.131-.796-.384-1.044-1.297-2.47-1.75-3.956-1.252a3.393 3.393 0 0 0-2.28 3.364c.027.6-.15.631-.618.674-1.47.137-2.491 1.135-2.61 2.473-.129 1.437.76 2.684 2.25 3.13.467.14 1.567.497 2.03.613l8.664-3.501z"/>
            </g>
            <g>
                <path fill="#EE5F56" d="M33.656 56.477l8.435-3.408-1.772-4.385-8.435 3.407z"/>
                <path fill="#231F20" fill-rule="nonzero" d="M33.813 56.865a.416.416 0 0 1-.54-.233L31.5 52.246a.416.416 0 0 1 .227-.542l8.434-3.408a.416.416 0 0 1 .54.233l1.773 4.385a.416.416 0 0 1-.228.543l-8.434 3.408zm7.737-4.028l-1.459-3.61-7.666 3.097 1.459 3.61 7.666-3.097z"/>
                <path fill="#231F20" d="M34.532 53.369l.86-.347-.356-.88-.859.347zM35.754 52.875l3.835-1.55-.355-.879-3.835 1.55zM35.063 54.682l.859-.347-.356-.88-.859.347zM36.284 54.188l3.835-1.55-.355-.879-3.835 1.55z"/>
            </g>
            <g>
                <path fill="#E6E6E6" d="M47.354 25.18c.97 2.402.175 4.988-1.776 5.776-1.95.788-4.318-.52-5.289-2.92-.97-2.403-.175-4.988 1.776-5.776 1.95-.788 4.319.52 5.29 2.92"/>
                <path fill="#231F20" fill-rule="nonzero" d="M46.97 25.336c-.89-2.203-3.028-3.383-4.749-2.688-1.72.695-2.438 3.03-1.548 5.232.89 2.203 3.028 3.383 4.748 2.688 1.721-.695 2.44-3.03 1.55-5.232zm.768-.31c1.05 2.6.178 5.436-2.003 6.318-2.182.88-4.779-.553-5.83-3.154-1.05-2.6-.178-5.436 2.003-6.317 2.182-.882 4.78.552 5.83 3.153z"/>
            </g>
            <g>
                <path fill="#CCC" d="M17.688 37.167c.97 2.401.175 4.987-1.776 5.775-1.95.788-4.319-.52-5.289-2.921-.97-2.402-.175-4.987 1.775-5.775 1.952-.788 4.32.52 5.29 2.92"/>
                <path fill="#231F20" fill-rule="nonzero" d="M17.304 37.322c-.89-2.203-3.029-3.383-4.75-2.688-1.719.695-2.437 3.03-1.547 5.232.89 2.202 3.028 3.383 4.748 2.688 1.72-.695 2.439-3.03 1.549-5.232zm.768-.31c1.05 2.6.178 5.436-2.004 6.317-2.181.882-4.778-.553-5.829-3.153-1.05-2.6-.178-5.436 2.003-6.317 2.182-.882 4.779.552 5.83 3.153z"/>
            </g>
            <path fill="#E6E6E6" d="M45.686 25.482c3.642 9.014-.94 19.364-10.233 23.119-9.293 3.754-19.78-.508-23.42-9.522-3.642-9.013.94-19.363 10.233-23.118 9.293-3.754 19.779.508 23.42 9.521"/>
            <path fill="#3F4953" d="M33.518 44.228c-7.847 3.17-16.122 1.068-18.447-4.687-2.325-5.755 2.167-13.016 10.014-16.186 7.847-3.17 16.123-1.068 18.448 4.687 2.325 5.754-2.168 13.016-10.015 16.186"/>
            <g>
                <path fill="#FFCE39" d="M33.372 43.723c-4.348 1.757-8.947 1.912-12.617.426-1.631-.526-3.215-4.447-3.736-5.735-.427-1.057-1.72-4.26-1.355-6.066 1.503-3.736 5.066-7.043 9.537-8.85 4.706-1.901 9.746-1.914 13.483-.033 1.06.502 2.161 3.226 2.89 5.028.84 2.08 1.99 4.926 1.383 6.263-1.49 3.798-5.07 7.143-9.585 8.967"/>
                <path fill="#231F20" d="M25.042 23.105c-4.779 1.93-8.293 5.39-9.777 9.112-.355 1.64.503 4.208 1.37 6.352.979 2.424 2.386 5.462 3.972 5.974 3.604 1.458 8.335 1.428 12.924-.426 4.807-1.942 8.335-5.431 9.804-9.178.683-1.504-.46-4.332-1.377-6.6-.81-2.006-1.892-4.684-3.094-5.253-3.692-1.858-8.84-1.994-13.822.019m.318.787c4.598-1.858 9.512-1.876 13.162-.04.901.427 2.05 3.27 2.667 4.797.765 1.893 1.92 4.754 1.39 5.924l-.01.02-.008.02c-1.44 3.675-4.934 6.933-9.348 8.716-4.25 1.718-8.738 1.873-12.309.428l-.028-.012-.03-.01c-.937-.301-2.096-2.144-3.442-5.476-.412-1.02-1.655-4.096-1.34-5.782 1.471-3.62 4.94-6.825 9.296-8.585"/>
                <g transform="rotate(-22 79.668 -18.826)">
                    <mask id="e" fill="#fff">
                        <use xlink:href="#d"/>
                    </mask>
                    <use fill="#FFCE39" xlink:href="#d"/>
                    <path fill="#D49954" d="M-.427 5.931C.05 4.98 3.987.734 12.398.734c8.412 0 14.487 6.19 14.487 6.19l-.293-1.969-1.653-1.739L17.286-.12l-5.039-.31-4.395.388-4.395 1.435L.16 3.935l-.587 1.996z" mask="url(#e)" transform="rotate(-3 13.23 3.247)"/>
                </g>
                <path fill="#FFCD3A" d="M33.413 37.433c.014.109.038.185.03.255-.061.471-1.997 2.075-2.495 2.072-2.527-.012-2.528-.013-1.818-2.444.07-.237.165-.467.217-.708.203-.955.646-1.251 1.54-.663.617.406 1.292.72 1.936 1.086.212.12.406.276.59.402"/>
                <path fill="#D49954" d="M33.114 39.276c.127.98-.408 1.805-.532 2.882l-2.408-1.436c1.404.358 2.116-.674 2.953-1.44l-.013-.006z"/>
                <path fill="#4E401C" d="M33.448 37.419c-.183-.126-.377-.282-.59-.402-.643-.367-1.319-.68-1.936-1.087-.893-.588-1.337-.29-1.54.664-.051.241-.148.471-.217.708-.71 2.431-.709 2.431 1.818 2.444.498.003 2.434-1.601 2.494-2.072.01-.07-.015-.147-.029-.255zm-.414 2.06c-.736.674-1.362 1.58-2.595 1.267l2.116 1.261c.109-.946.58-1.672.467-2.533l.041-.056-.03.061zm-.307 3.27c-.293.062-.567.066-.834-.1-.282-.172-.577-.32-.863-.486-4.3-2.487-3.39-2.124-2.228-6.182.336-1.174.996-1.412 2.063-.877.847.424 1.654.93 2.492 1.373.81.427 1.127 1.04.884 1.947-.321 1.196-.62 2.398-.914 3.601-.087.358-.32.557-.6.724z"/>
                <g fill="#EE5F56">
                    <path d="M37.85 34.17c-.547.153-1.1.313-1.344-.258-.247-.578.247-.89.697-1.08.418-.178.945-.24 1.19.228.31.592-.236.845-.544 1.11M23.455 39.99c-.54.117-1.09.268-1.304-.341-.18-.512.248-.829.664-1.005.454-.192 1.019-.303 1.268.26.263.593-.296.83-.628 1.086"/>
                </g>
                <g>
                    <path fill="#FEFEFE" d="M28.382 30.83c.959 2.373-.143 5.057-2.461 5.993-2.318.937-4.975-.228-5.934-2.602-.96-2.374.143-5.057 2.46-5.994 2.319-.936 4.976.229 5.935 2.602"/>
                    <path fill="#020303" d="M22.216 27.857c-2.53 1.022-3.736 3.96-2.69 6.55 1.046 2.59 3.956 3.866 6.485 2.844 2.53-1.022 3.736-3.961 2.69-6.55-1.046-2.59-3.955-3.866-6.485-2.844m3.634 8.995c-2.318.936-4.974-.229-5.933-2.602-.959-2.374.143-5.057 2.46-5.993 2.319-.936 4.975.228 5.934 2.602.959 2.373-.144 5.056-2.46 5.993"/>
                    <path fill="#221E1F" d="M23.091 30.023c-1.364.55-2.014 2.135-1.45 3.53.564 1.397 2.132 2.084 3.496 1.533 1.363-.551 2.014-2.134 1.45-3.53-.564-1.397-2.133-2.084-3.496-1.533m1.375 3.404a.932.932 0 0 1-1.205-.529.932.932 0 0 1 .5-1.217.932.932 0 0 1 1.205.528.932.932 0 0 1-.5 1.218m.47-2.149a.393.393 0 0 1-.507-.222.392.392 0 0 1 .21-.513c.199-.08.427.02.509.222a.393.393 0 0 1-.211.513"/>
                </g>
                <g>
                    <path fill="#FEFEFE" d="M36.492 27.552c.967 2.394-.144 5.1-2.48 6.044-2.338.945-5.018-.23-5.985-2.624-.967-2.393.145-5.099 2.482-6.043 2.337-.945 5.016.23 5.983 2.623"/>
                    <path fill="#020303" d="M30.327 24.58c-2.53 1.022-3.737 3.961-2.69 6.55 1.046 2.59 3.956 3.866 6.485 2.844 2.53-1.022 3.736-3.961 2.69-6.55-1.047-2.59-3.956-3.866-6.485-2.844m3.634 8.995c-2.318.936-4.975-.229-5.933-2.602-.96-2.374.143-5.057 2.46-5.993 2.319-.936 4.974.228 5.933 2.602.959 2.373-.143 5.056-2.46 5.993"/>
                    <path fill="#221E1F" d="M31.202 26.746c-1.364.55-2.014 2.135-1.45 3.53.564 1.397 2.132 2.084 3.495 1.533 1.364-.551 2.015-2.134 1.45-3.53-.564-1.397-2.133-2.084-3.495-1.533m1.375 3.404a.932.932 0 0 1-1.205-.529.932.932 0 0 1 .5-1.217.932.932 0 0 1 1.205.528.932.932 0 0 1-.5 1.218m.467-2.158a.383.383 0 0 1-.495-.217.383.383 0 0 1 .205-.5.383.383 0 0 1 .495.217.383.383 0 0 1-.205.5"/>
                </g>
                <g fill="#D49954">
                    <path d="M37.837 38.376a.267.267 0 0 1-.346-.152.267.267 0 0 1 .143-.35.267.267 0 0 1 .346.152.267.267 0 0 1-.143.35zM36.412 38.352a.255.255 0 0 1-.33-.144.255.255 0 0 1 .137-.333.255.255 0 0 1 .33.144.255.255 0 0 1-.137.333zM38.911 37.063a.244.244 0 0 1-.317-.139.244.244 0 0 1 .132-.319.244.244 0 0 1 .317.138.244.244 0 0 1-.132.32z"/>
                    <g>
                        <path d="M26.206 43.075a.267.267 0 0 0 .143-.35.267.267 0 0 0-.346-.151.267.267 0 0 0-.143.349.267.267 0 0 0 .346.152zM27.215 42.068a.255.255 0 0 0 .137-.333.255.255 0 0 0-.33-.145.255.255 0 0 0-.138.334.255.255 0 0 0 .33.144zM24.521 42.877a.244.244 0 0 0 .131-.32.244.244 0 0 0-.316-.138.245.245 0 0 0-.132.32.245.245 0 0 0 .317.138z"/>
                    </g>
                </g>
            </g>
            <g>
                <path fill="#E6E6E6" d="M49.253 56.355l-9.397 3.797s.497-3.39 3.601-4.644 5.796.847 5.796.847"/>
                <path fill="#231F20" fill-rule="nonzero" d="M47.342 55.873c-1.233-.432-2.503-.472-3.753.033s-2.14 1.418-2.733 2.588a6.716 6.716 0 0 0-.398.963l7.834-3.165c-.29-.157-.61-.3-.95-.42zm2.018.89l-9.348 3.776a.418.418 0 0 1-.567-.45c.018-.123.06-.33.136-.601.125-.447.3-.913.536-1.377.677-1.336 1.707-2.394 3.159-2.98 1.452-.587 2.924-.54 4.334-.046.49.171.937.386 1.335.621.24.143.414.264.512.34.253.199.199.597-.097.716z"/>
                <path fill="#E6E6E6" d="M40.305 61.263l9.398-3.797-.39-.964-9.398 3.796z"/>
                <path fill="#231F20" fill-rule="nonzero" d="M40.461 61.65a.416.416 0 0 1-.54-.232l-.39-.964a.416.416 0 0 1 .227-.543l9.398-3.797a.416.416 0 0 1 .54.232l.39.965a.416.416 0 0 1-.227.543l-9.398 3.797zm8.701-4.416l-.076-.19-8.63 3.487.076.19 8.63-3.487z"/>
                <path fill="#BBBDBF" d="M42.292 58.821l-2.344.947s.514-2.772 2.603-3.946c0 0-.932 1.333-.26 3"/>
                <path fill="#231F20" fill-rule="nonzero" d="M47.342 55.873c-1.233-.432-2.503-.472-3.753.033s-2.14 1.418-2.733 2.588a6.716 6.716 0 0 0-.398.963l7.834-3.165c-.29-.157-.61-.3-.95-.42zm2.018.89l-9.348 3.776a.418.418 0 0 1-.567-.45c.018-.123.06-.33.136-.601.125-.447.3-.913.536-1.377.677-1.336 1.707-2.394 3.159-2.98 1.452-.587 2.924-.54 4.334-.046.49.171.937.386 1.335.621.24.143.414.264.512.34.253.199.199.597-.097.716z"/>
                <path fill="#221F20" fill-rule="nonzero" d="M37.34 57.356c.871.005 2.65-.695 2.962-1.249a.341.341 0 0 0-.128-.462.334.334 0 0 0-.458.125c-.17.301-1.722.912-2.376.908a.335.335 0 0 0-.336.337c0 .187.15.34.337.34z"/>
                <path fill="#221F20" fill-rule="nonzero" d="M38.317 56.807l1.371 3.393.623-.252-1.37-3.393z"/>
            </g>
            <g>
                <path fill="#E6E6E6" d="M39.937 60.119l-9.398 3.797s.497-3.39 3.602-4.644c3.103-1.254 5.796.847 5.796.847"/>
                <path fill="#231F20" fill-rule="nonzero" d="M38.07 59.62c-1.238-.43-2.515-.468-3.773.04s-2.154 1.425-2.752 2.597a6.733 6.733 0 0 0-.4.964l7.878-3.184a6.657 6.657 0 0 0-.953-.417zm2.024.886l-9.398 3.797a.418.418 0 0 1-.567-.45c.018-.124.061-.332.137-.603.126-.447.303-.913.54-1.378.683-1.338 1.72-2.398 3.178-2.987 1.458-.59 2.937-.545 4.352-.054.491.17.94.384 1.34.62.242.142.416.262.514.339.253.198.2.597-.096.716z"/>
                <path fill="#E6E6E6" d="M30.989 65.027l9.397-3.797-.39-.964-9.397 3.796z"/>
                <path fill="#231F20" fill-rule="nonzero" d="M31.145 65.415a.416.416 0 0 1-.54-.233l-.39-.964a.416.416 0 0 1 .227-.543l9.398-3.797a.416.416 0 0 1 .54.232l.39.965a.416.416 0 0 1-.227.543l-9.398 3.797zm8.701-4.417l-.077-.19-8.63 3.487.077.19 8.63-3.487z"/>
                <path fill="#BBBDBF" d="M32.975 62.585l-2.343.947s.514-2.772 2.603-3.946c0 0-.933 1.333-.26 3"/>
                <path fill="#231F20" fill-rule="nonzero" d="M38.07 59.62c-1.238-.43-2.515-.468-3.773.04s-2.154 1.425-2.752 2.597a6.733 6.733 0 0 0-.4.964l7.878-3.184a6.657 6.657 0 0 0-.953-.417zm2.024.886l-9.398 3.797a.418.418 0 0 1-.567-.45c.018-.124.061-.332.137-.603.126-.447.303-.913.54-1.378.683-1.338 1.72-2.398 3.178-2.987 1.458-.59 2.937-.545 4.352-.054.491.17.94.384 1.34.62.242.142.416.262.514.339.253.198.2.597-.096.716z"/>
            </g>
            <g>
                <g fill="#BBBDBF" fill-rule="nonzero" opacity=".2">
                    <path d="M23.854 15.375l5.094 7.172.41-.294-5.094-7.172zM19.621 16.957l1.319 8.697.499-.073-1.319-8.697z"/>
                </g>
                <path fill="#BBBDBF" d="M13.174 41.22c5.24 4.526 12.907 11.736 26.832 4.678l-1.475 1.055-3.973 2.025-4.391.896-6.686-.582-5.575-2.634-4.268-4.289-.464-1.148z"/>
                <g transform="rotate(-22 61.025 -3.1)">
                    <mask id="g" fill="#fff">
                        <use xlink:href="#f"/>
                    </mask>
                    <path fill="#FEFEFE" d="M40.168 10.642c-.16-.088-.366-.13-.472-.27-4.506-5.92-10.685-7.074-16.228-6.804-5.218.255-8.233 1.857-11.317 4.76-.775.732-1.237 1.828-2.202 2.314 1.415-3.325 3.726-5.612 6.706-6.958 5.631-2.546 11.322-2.54 16.937.06 2.919 1.35 5.19 3.62 6.576 6.898" mask="url(#g)" transform="rotate(30 25.059 6.213)"/>
                </g>
                <path fill="#231F20" fill-rule="nonzero" d="M45.302 25.637c-3.553-8.795-13.795-12.959-22.88-9.288-9.084 3.67-13.56 13.78-10.006 22.575 3.554 8.796 13.796 12.96 22.88 9.289 9.085-3.67 13.56-13.78 10.006-22.576zm.768-.31c3.73 9.231-.959 19.822-10.46 23.661-9.503 3.84-20.232-.523-23.962-9.753-3.73-9.231.96-19.822 10.461-23.661 9.502-3.84 20.232.523 23.961 9.753z"/>
            </g>
            <path fill="#231F20" d="M24.926 22.961c-8.072 3.261-12.656 10.754-10.24 16.735 2.417 5.982 10.92 8.187 18.992 4.926 8.072-3.261 12.656-10.754 10.24-16.736-2.417-5.98-10.92-8.186-18.992-4.925m.318.788c7.635-3.085 15.667-1.09 17.904 4.448S40.994 40.75 33.36 43.834c-7.635 3.085-15.666 1.09-17.903-4.448-2.238-5.538 2.153-12.553 9.788-15.637"/>
            <g fill="#FEFEFE">
                <path fill-rule="nonzero" d="M35.267 24.035c2.429.58 3.671 1.201 5.042 2.729a.413.413 0 0 0 .586.032.42.42 0 0 0 .028-.59c-1.502-1.674-2.89-2.367-5.47-2.983a.412.412 0 0 0-.497.31.42.42 0 0 0 .311.502z"/>
                <path d="M41.979 27.313a.502.502 0 0 1-.27.657.502.502 0 0 1-.65-.285.502.502 0 0 1 .27-.657.501.501 0 0 1 .65.285"/>
            </g>
        </g>
    </g>
</svg>
