<svg xmlns="http://www.w3.org/2000/svg" xmlns:xlink="http://www.w3.org/1999/xlink" width="128" height="37" viewBox="0 0 128 37">
    <defs>
        <path id="a" d="M0 0h35v26H0z"/>
    </defs>
    <g fill="none" fill-rule="evenodd">
        <g fill="#3F4953">
            <path d="M46.413 22.06l.14-.924c.187-1.452.467-2.816.607-4.268.14-1.1.28-2.2.42-3.476l.28-4.048L48 6.66c.047-.528.187-.66.7-.66h.7c.513.044.513.176.467.484-.047.528-.047 1.276-.094 1.848-.14 1.1-.186 2.2-.233 3.388-.14 1.936-.42 4.004-.653 5.984-.14 1.276-.42 2.552-.607 3.784-.327 1.892-.793 3.828-1.353 5.456-.327.836-.467 1.012-1.027 1.056-.233 0-.467 0-.84-.044-.327 0-.607-.044-.747-.396l-.7-2.112-.28-1.496c-.373-1.54-.606-3.036-.84-4.62-.186-1.232-.42-2.508-.56-3.74-.186-1.716-.42-3.3-.56-4.928C41.233 9.212 41 7.98 41 6.616c0-.396.14-.616.42-.616h1.027c.326 0 .466.22.466.616 0 1.584.14 2.816.28 4.048.14 1.54.327 2.816.514 4.532.233 2.42.513 3.916.746 5.456.327 2.068.607 4.004 1.12 5.368.42-1.408.7-2.904.84-3.96M53.9 11.846c-.044.997 0 1.776-.044 2.772 0 .823-.044 1.473-.088 2.512.663-.13 1.238-.347 1.812-.563.884-.347 1.547-.606 2.033-1.602.221-.477.265-.78.398-1.256.177-.823.31-1.56.31-2.469 0-.866 0-1.602-.31-2.425-.133-.476-.398-.823-.751-.996-.575-.347-1.547-.433-2.254-.13-.53.217-.796.606-.929 1.602-.176.91-.132 1.69-.176 2.555zm-1.856 4.158c0-1.516.044-3.291.089-4.46.044-1.213.132-2.426.353-3.422.177-.823.796-1.43 1.503-1.776.575-.303 1.238-.346 1.9-.346.708 0 1.636.087 2.299.39.663.303 1.149 1.082 1.37 1.775.31.866.442 1.906.442 2.902 0 1.083-.044 2.122-.354 3.118-.176.65-.397 1.342-.707 1.862-.707 1.256-1.856 1.82-3.226 2.209-.575.173-1.238.39-1.9.52 0 .822-.045 2.728-.045 3.42 0 1.17.044 2.08.221 2.989.133.52.22.78.751 1.083.31.173.796.216 1.105.216 1.017 0 1.415-.433 1.812-1.515.177-.52.221-1.343.266-2.166.044-.476 0-.866-.045-1.256v-.433c0-.173.045-.303.089-.346.088-.087.442-.13 1.105-.13.398 0 .442.086.486.303.044.52.088 1.126.088 1.776 0 .996-.088 2.295-.397 3.118-.31.822-.708 1.212-1.238 1.602-.575.39-1.503.563-2.52.563-.972 0-1.767-.303-2.342-.866-.663-.65-.795-1.256-.928-2.425-.044-.65-.044-1.473-.088-2.122C52 20.897 52 19.469 52 18.819c0-.39.177-.953.044-1.43v-1.385zM69.857 19.841c-.047-1.547.048-3.183.048-3.404 0-.354-.048-.752 0-1.106 0-1.062.095-3.273.095-4.378 0-1.062-.095-1.902-.429-2.477-.428-.619-1.238-.929-2.428-.973-.762.044-1.19.222-1.524.531-.238.31-.429.884-.571 1.77-.381 3.758-.286 7.384-.143 11.806.047.84 0 1.504.047 2.168 0 .486.096.884.286 1.282.333.752 1.095 1.017 1.81 1.017 1.095-.044 1.81-.265 2.333-1.106.38-.663.38-1.37.429-2.299l.047-2.83zm-3 7.917c-2.428 0-3.762-1.548-3.762-4.025L63 22.451v-5.882c.143-2.123-.095-3.272.048-4.643.142-1.636.095-2.698.619-4.069.143-.486.666-.973 1.095-1.282C65.476 6.088 66.476 6 67.38 6c1.38 0 2.905.31 3.714 1.15.524.486.667 1.194.81 2.034.143.884.095 2.3.047 3.184-.142 1.194 0 2.3-.047 3.493-.048 1.947-.095 3.848-.095 5.75 0 .84 0 1.68.047 2.432.048.708-.047 1.282-.047 1.946.142 2.476 0 2.918 0 4.731 0 .664 0 1.327-.048 2.035-.048 1.194-.095 1.547-.524 2.432-.714 1.37-1.81 1.813-3.524 1.813-1.333 0-2.19-.265-2.952-.973-.333-.31-.667-.796-.81-1.194a5.812 5.812 0 0 1-.38-2.078c0-.885-.048-.398-.048-1.46v-.353c0-.222 0-.31.333-.443.333-.044.905-.044 1.238-.044.238 0 .381.133.381.442v1.371c0 1.018.095 1.636.476 2.3.334.575.905.84 1.81.84s1.38-.177 1.714-.663c.334-.398.334-.93.476-1.99 0-.398.096-2.035.096-2.256L70 29.571c0-1.238 0-2.344-.143-2.919-.762.84-2 1.106-3 1.106zM75.73 24.023c0 .915.173 1.743.735 2.048.821.48 1.513.392 2.378.392.995 0 1.168-.305 1.298-.827.13-.523.086-1.134.086-1.787v-4.096c-.476-.131-.951-.131-1.513-.131-.65 0-1.341-.044-1.903.261-.649.306-.822.567-.952 1.09-.216 1.046-.13 1.96-.13 3.05m.693-15.73c-.217.391-.303.87-.303 1.524 0 .828-.043 1.307 0 2.135.043.654.13 1.264.086 1.656 0 .13-.043.262-.13.349a.329.329 0 0 1-.216.087c-.216.044-.691 0-.908 0-.302 0-.475-.087-.519-.305-.13-.305-.043-.828-.086-1.177-.043-1.612-.173-3.442.303-4.706.346-1.046 1.34-1.7 2.767-1.83 1.168-.087 2.076.043 2.725.436.821.479 1.47 1.394 1.6 2.658.13 1.351.259 2.876.259 4.445v9.979c0 .523-.043 1.133-.043 1.612.13 2.135-1.298 2.876-3.243 2.832-.865 0-1.687.088-2.379-.217a3.605 3.605 0 0 1-.994-.523c-.563-.48-1.038-1.133-1.168-1.83-.13-.698-.173-2.005-.173-3.05 0-.742.043-1.352.173-1.831.303-.872.735-1.569 1.6-1.961.692-.349 1.513-.523 2.465-.523.735 0 1.384.087 1.989.262-.043-1.177.087-2.877.043-4.227V12.65c-.13-1.177-.086-1.744-.26-2.79-.172-1.089-.302-1.568-.778-1.96-.302-.262-.778-.393-1.427-.349-.648.044-1.167.261-1.383.741M85.187 16.865v-.436c0-1.177.046-3.531-.093-4.795-.047-.305.046-.828 0-1.482 0-.654-.094-1.395-.094-2.136 0-.523.047-.96 0-1.439 0-.218.094-.305.28-.348.327-.044.7-.044 1.073 0 .186.043.28.13.28.305l.046 1.09-.047.392.047.305c.233-.523.606-.96 1.12-1.439.605-.523 1.305-.697 1.911-.828.606-.13 1.166 0 1.679.131.42.087.746.262 1.025.48.327.217.653.61.887 1.09.233.479.373 1.002.512 1.743.14.828.234 1.83.094 3.182.046 1.874.046 3.357.093 4.054l-.047 2.397c.047 2.616.047 5.1.047 8.24 0 .479-.093.523-.233.566-.14.043-.327.043-.607.043l-.513-.043c-.326-.043-.512-.218-.512-.523 0-.654.046-1.264.046-1.962.047-2.048.047-4.272 0-5.274-.046-1.613 0-4.098.047-6.495.046-1.395-.047-2.747-.093-3.793-.047-.654-.187-1.177-.467-1.57-.326-.478-.792-.697-1.492-.697-.326 0-.653.044-.932.132-.56.217-.84.61-1.166 1.002-.746 1.09-.793 2.485-.933 4.054-.046.566 0 1.395-.046 2.223-.047 1.351 0 2.877.046 3.705.047 1.744.047 3.444.047 5.319 0 1.22-.047 2.18-.047 3.53 0 .175.047.392-.28.392-.326 0-.652.044-1.072 0-.326 0-.466-.174-.466-.522.047-1.7.093-3.314.047-3.793 0-.48-.047-1.046-.047-1.7 0-.698.047-1.57-.094-2.441l-.046-2.659zM98.73 24.023c0 .915.173 1.743.735 2.048.822.48 1.514.392 2.379.392.994 0 1.167-.305 1.297-.827.13-.523.086-1.134.086-1.787v-4.096c-.475-.131-.951-.131-1.513-.131-.649 0-1.341-.044-1.903.261-.649.306-.822.567-.952 1.09-.216 1.046-.13 1.96-.13 3.05m.693-15.73c-.216.391-.303.87-.303 1.524 0 .828-.043 1.307 0 2.135.043.654.13 1.264.087 1.656 0 .13-.044.262-.13.349a.33.33 0 0 1-.217.087c-.216.044-.69 0-.907 0-.303 0-.476-.087-.52-.305-.129-.305-.043-.828-.086-1.177-.043-1.612-.173-3.442.303-4.706.346-1.046 1.34-1.7 2.768-1.83 1.167-.087 2.075.043 2.724.436.821.479 1.47 1.394 1.6 2.658.13 1.351.259 2.876.259 4.445v9.979c0 .523-.043 1.133-.043 1.612.13 2.135-1.297 2.876-3.243 2.832-.865 0-1.687.088-2.379-.217a3.607 3.607 0 0 1-.994-.523c-.563-.48-1.038-1.133-1.168-1.83-.13-.698-.173-2.005-.173-3.05 0-.742.044-1.352.173-1.831.303-.872.735-1.569 1.6-1.961.692-.349 1.514-.523 2.465-.523.735 0 1.384.087 1.99.262-.044-1.177.086-2.877.043-4.227V12.65c-.13-1.177-.087-1.744-.26-2.79-.173-1.089-.303-1.568-.779-1.96-.302-.262-.778-.393-1.427-.349-.648.044-1.167.261-1.383.741M109.007 6.642c0-.304.085-.477.257-.52.472-.13.815-.173 1.286-.044.214.044.343.217.343.607-.042 1.04 0 2.036-.042 3.205-.13 2.036-.087 4.072-.087 6.152 0 1.602.044 3.249.087 4.808.042.65 0 1.126 0 1.603 0 1.17.042 2.252.342 2.945.3.693 1.072.997 1.801.997.815 0 1.543-.477 1.715-1.127.171-.563.3-1.17.386-1.732.043-.477.043-1.213.085-1.69.13-1.516.043-3.249.043-5.025 0-1.386-.085-2.859-.085-4.201v-2.47c.042-.303-.043-1.083 0-1.213l-.087-2.295c.044-.304.13-.477.343-.52.301-.044.6-.044.987 0 .3.043.428.043.428.39.129.65.043 1.04.086 1.776.129 1.386.086 2.815.086 4.332 0 1.342.043 2.599 0 3.941-.043.997-.043 1.906-.086 2.902-.043.694 0 1.344-.043 1.993-.043.867-.043 1.906-.171 2.6-.129 1.04-.344 1.732-.815 2.555-.557.91-1.843 1.43-3.172 1.386-1.672-.043-2.787-1.17-3.259-2.599a12.22 12.22 0 0 1-.257-1.862c-.128-.867-.042-1.907-.086-2.383-.128-1.862-.085-3.639-.085-5.371 0-1.69.129-3.25 0-4.939V6.642zM127.188 20.22c.443 0 .664.222.664.62v2.302c0 1.284-.044 2.347-.132 2.834-.133.664-.399 1.195-.798 1.638-.664.664-1.506.797-2.258.797-.842 0-1.418-.177-1.817-.398-1.018-.576-1.328-1.86-1.328-3.454 0-1.417-.044-3.143-.044-4.693v-4.781c-.044-.576 0-1.55.044-2.391 0-1.638.044-2.48.044-4.162V7.78h-1.815c-.665 0-.71-.133-.754-.266-.132-.221-.089-.531-.089-.841 0-.31.045-.532.134-.576.177-.133.486-.133.84-.133h1.817V3.706c0-1.106-.089-1.77-.045-2.966.045-.354.089-.531.443-.531.311 0 .71-.089 1.019.044.178.044.266.221.266.531v.93c0 .841.044 1.594 0 2.347-.045.752.044 1.24.044 1.948h3.943c.22 0 .398.132.442.442.044.222.044.709.044.842 0 .31-.044.442-.398.487-.709.044-1.816 0-2.746 0h-1.285c-.132 2.169-.089 3.364-.089 5.224 0 .753 0 1.594-.043 2.656-.133 1.771 0 3.498-.045 5.225v1.593c0 .664.045 1.284.088 1.86.045.841 0 1.46.311 1.948.133.266.442.442.886.487.753.044 1.107-.221 1.284-.709.133-.354.221-.84.221-1.505V22.7c0-.708-.043-1.814.09-2.346.132-.177.707-.133 1.062-.133"/>
        </g>
        <g transform="translate(0 4)">
            <mask id="b" fill="#fff">
                <use xlink:href="#a"/>
            </mask>
            <path fill="#00A89F" d="M17.782 1l-.524.04-.443.204-.201-.081h-.282l-.524.406-.684.692-.242.406-.12.447v.529l.08.285-.161.203-.08.488.16.488.444.65.443.204.281.447.604.325.282.285.161.488v1.667l.162.488-.242 1.138.08 2.074-.08 1.057.161.447-.12.936.12.406-.322.57-.282.04-.967-2.196-.644-1.87.564-.732.564-1.301.04-1.098-.282-.366-.443-.854-.604-.65-.524-.163-.443-.244-1.651.081-.363.204-.725.65-.524.813-.322.895.242.529v.569l.12.488.202.406.685.651.846.407 1.49.325.604 1.342.282.975.323.285.241.692.04.528-.08.529-1.048-.61-.16-.488-1.007-.976-.242-.407-.524-.203-.886-1.138-2.014-1.993-.805-1.22.12-.243L8.8 8.44l-.443-1.098-.564-.732-.362-.284-.846-.366-1.048.081-.443-.163-.443.204-.765.569-.563.691-.242.447.04.244L3 9.498l.323.773.281.406.766.691.845.326 1.49-.122.847-.204.966 1.017.725.57.403.61 2.135 2.032 1.248 1.423.483.163.363.65-.242.448-.483-.122-2.094-.935-.927-.285-.281-.447-.242-.163.08-.406-.16-.367.08-.284-.08-.244L9 14.174l-1.167-.935-2.015.081-.443.244-.765.61-.403.57-.241.65-.08 1.017.523 1.178.241.366.363.244.282.448.645.284 1.006.122.484-.04.846-.326.765-.61.362-.163.323-.04.886.325.282-.08.2.446 1.572.529.282-.203.161.447 1.933.854.967.122.12.244.403.285.282.366.161.528-.16.732.16.325-.16 1.586.12.406.04.976-.08.488.323.285-.283.285v.487l.202.366-.162.04v2.197l-.04 1.91.121.936.443.244h.282l.322-.529-.16-.447.24-.366v-.203l-.08-3.944.08-3.74-.24-.448.24-.366-.12-1.26.04-.488-.282-.041-.08-.163h.282l.242.122.12-.203 1.209-.651.362-.285.725-.08 1.732-.814-.161-.366.161-.163.242.041.04.244.161.122 1.974-.854 1.087-.204.323.326.765.488.926.244.484.04.24-.08.283-.367.524.163.846-.773.685-1.22.12-.487-.201-.732.04-.529-.242-.366-.604-.65-.725-.529-.483-.163-1.047-.122-.604.082-.725.57-.404.202-.724 1.302-.161.488.08.61-.242.365-.644.163-.362.366h-.202l-1.007.447h-.281l-.645.447-.443.123-.403-.163-.161-.245.201-.121.967-1.057.241-.407.444-.162.322-.53.443-.202.242-.448.04-.447.443.081.846-.935.12-.447.202.081.241-.081 1.129-1.26.725-.61.443.162.966.082.443.121.443-.162.604-.04.524-.448.685-.732.242-.406.12-.448-.04-.488-.121-.244.08-.772-.12-.447-.483-.855-.564-.447-.443-.203-1.008-.081-.483-.123-.161.123-.966.243-1.209 1.261-.161 1.504.242 1.424-.242.406-.926 1.017-.08.244h-.283l-.725.772-.282.407-.04.244-.403.122-.362.244-.202.528-.403.244-2.376 2.318.08.203.162.122.08.204-.523-.041-.202-.122-.12-.244-.282.081-.282-.081-.323-.61.08-.203.403.61.202.162.645-1.3.04-.57.483-.691-.04-.366.322-.366.242-.691.201-.163.483-.163.443-.284.202.08h.322l1.41-.893.08-.285.363-.61.08-1.749-.362-.65-.564-.732-.362-.284-.887-.407-.564-.081-1.006.243-.927.326-.443.528-.604 1.383v.813l.202.447.08.692.846 1.016-.363 1.22-.241.366-.04.569-.443.813-.122.488-.523.448h-.282v-.285l-.08-3.416.16-1.911-.2-1.179.04-1.992.16-.488 1.128-.772.323-.326.483-.854.282-1.057-.242-.488.04-.244-.12-.488-.645-.975-1.007-.53L17.782 1zm-2.054 3.863h.201v-.244h-.201v.244zm-10.27 3.09l-.082-.244.282.04.081.245-.282-.041zM22.05 9.01l.081-.244.161.122.04.244-.2.122-.082-.244zm6.324.041l.202.163h-.202V9.05zm1.652.69l.201-.162.08.163-.241.122-.04-.122zm-9.103.042h.161V9.66h-.161v.122zm1.208.325h.12v-.162h-.12v.162zm6.888.285h.24v-.204h-.24v.204zm-11.278 0l.161.121-.161.123v-.244zm5.035.325v-.244l.2.081.041.285-.241-.122zm-1.169.122l.282-.082-.04.245-.201.081-.04-.244zm7.935.081l.161.082.081.162h-.242v-.244zm.161.326l.162.04.04.163-.202-.203zm-3.342.203l.16-.082h.202l-.04.245-.242.04-.08-.203zm-6.163-.082l.282.082-.161.081-.12-.163zm6.887 2.725h.242l.08.203h-.281l-.04-.203zm1.853 1.138l-.12-.854.241-.08.282-.082-.161.081-.12.203.12.65-.08.204-.162-.122zm-1.168-.65l.12-.163.243-.041-.081.448h-.282v-.244zm-.926.732l.04-.244.282.08.16.204-.28.082-.202-.122zm-4.31-.041l.08-.203.162.121v.245l-.201.08-.041-.243zm5.84.895l-.443-.285-.161-.407.08-.203.202.163.322.447.443-.163-.04.163.121.285-.242.04-.282-.04zm1.41-.326l-.08-.203v-.285l.281.325v.285l-.201-.122zm-3.061-.04l.161.122-.161.122V15.8zm-1.048.162l.121-.122.242-.04-.08.162-.363.204.08-.204zm3.948.976l-.04-.285-.161-.162-.081-.244.604.365.282.407-.161.041-.443-.122zm-2.457-.326l.16-.284.283.082.08.406-.08.203-.443-.407zm-.524-.284l.202.163-.202.121v-.284zm1.45 1.708v-.407l.403-.691v-.244h.242l-.04.285-.484.691.12.243-.039.285-.202-.162zm-7.008-1.342l.443.04.201.123-.241.122-.322.04-.08-.325zm-15.346.773l.08-.204.242-.122.04.326-.362.203v-.203zm12.728.203l.08-.203.363-.163.12.082.041.202-.403.163-.201-.08zm10.956.04l-.04-.162h.24v.203l-.2-.04zm-12.004.733l.242-.082-.12.203-.122-.121zm4.23 0l.161.08-.161.123v-.203zm-7.653.08h.241l-.12.123h-.202l.081-.122zm2.376.204l.242-.163.08.082-.16.244-.162-.163zm4.23.244l.04-.325h.201v.325l-.08.203-.161-.203zm-2.618.773l-.122-.244.242-.082.363.122-.08.163-.202.082-.201-.041zm1.006.569v-.244h.242l-.08.325-.162-.081zm-2.698-.041l-.04-.203.362.08-.12.164-.202-.041zm.403.203l.08-.162h.201v.203l-.281-.04zm.886 1.505h.201v.203l-.201.082v-.285zm-.362.569l.2.163-.2.081v-.244z" mask="url(#b)"/>
        </g>
    </g>
</svg>
