<?xml version="1.0" standalone="no"?>
<!DOCTYPE svg PUBLIC "-//W3C//DTD SVG 20010904//EN"
 "http://www.w3.org/TR/2001/REC-SVG-20010904/DTD/svg10.dtd">
<svg version="1.0" xmlns="http://www.w3.org/2000/svg"
 width="700.000000pt" height="700.000000pt" viewBox="0 0 700.000000 700.000000"
 preserveAspectRatio="xMidYMid meet">
<metadata>
Created by potrace 1.11, written by Peter Selinger 2001-2013
</metadata>
<g transform="translate(0.000000,700.000000) scale(0.100000,-0.100000)"
fill="#000000" stroke="none">
<path d="M3528 6354 c-2 -1 -19 -4 -38 -7 -19 -2 -57 -15 -85 -29 -36 -18 -57
-23 -75 -17 -14 4 -40 7 -58 8 -32 1 -48 -4 -149 -51 -51 -24 -206 -176 -234
-229 -57 -113 -76 -217 -55 -318 4 -22 2 -41 -8 -56 -8 -12 -19 -47 -25 -77
-13 -72 10 -152 68 -239 23 -34 41 -65 41 -69 0 -4 27 -22 60 -39 46 -24 69
-45 93 -82 27 -43 45 -57 120 -95 171 -87 187 -122 187 -418 0 -160 3 -209 18
-264 19 -67 19 -67 -6 -182 -19 -93 -24 -139 -22 -240 5 -225 5 -534 0 -595
-2 -40 2 -76 13 -107 16 -44 15 -55 -1 -167 -17 -113 -17 -121 0 -170 l17 -52
-43 -68 c-28 -42 -53 -71 -68 -74 -47 -13 -34 -32 -143 213 -26 58 -64 141
-85 186 -40 86 -72 172 -143 379 -25 72 -50 142 -55 156 -10 25 -5 34 56 110
71 90 83 110 160 289 49 112 50 119 57 240 l7 125 -32 40 c-18 22 -56 87 -85
145 -44 87 -66 118 -132 181 -68 67 -87 79 -147 99 -38 12 -90 32 -116 45 -26
13 -49 22 -52 20 -2 -2 -78 -7 -168 -10 -91 -3 -178 -8 -194 -11 -34 -6 -98
-48 -164 -109 -26 -24 -59 -54 -75 -67 -30 -26 -150 -213 -211 -329 l-40 -75
27 -65 c21 -50 27 -78 26 -129 -5 -203 125 -375 372 -494 63 -30 128 -57 144
-60 17 -3 59 -12 95 -21 36 -9 77 -18 92 -21 89 -17 113 -30 133 -69 74 -144
138 -297 168 -399 32 -111 37 -122 80 -160 41 -37 48 -50 73 -136 20 -72 27
-118 28 -192 0 -53 -2 -100 -6 -104 -4 -3 -63 27 -132 67 -115 69 -125 77
-136 114 -7 22 -16 51 -21 65 -5 14 -67 82 -138 153 -86 86 -135 143 -151 176
-20 44 -29 51 -81 72 -57 23 -64 30 -156 154 -72 97 -160 194 -346 382 -192
193 -262 271 -303 335 -137 216 -126 195 -110 220 17 26 26 71 41 198 4 30 8
57 10 60 2 3 6 33 10 67 l7 62 -78 131 c-42 71 -84 138 -93 147 -9 10 -40 48
-69 85 -70 88 -109 118 -223 169 -100 45 -148 51 -295 35 -43 -4 -75 -1 -119
13 l-60 18 -50 -25 c-105 -52 -242 -163 -311 -250 -82 -104 -124 -184 -111
-207 9 -17 6 -74 -13 -261 l-12 -112 42 -92 c56 -127 103 -192 201 -280 105
-96 97 -91 208 -135 101 -40 108 -40 306 -20 22 2 65 7 95 10 30 3 101 17 157
31 l101 27 118 -119 c65 -66 157 -150 205 -189 64 -51 102 -91 139 -147 33
-50 92 -115 167 -185 64 -59 131 -121 148 -138 18 -16 80 -75 140 -130 59 -55
160 -158 224 -230 191 -214 191 -214 235 -225 71 -18 80 -26 120 -102 l40 -75
-38 -46 c-21 -26 -46 -47 -55 -47 -28 0 -114 27 -171 53 -30 14 -84 38 -120
54 -236 109 -329 146 -433 175 l-119 33 -34 52 c-19 28 -46 59 -60 68 -24 15
-25 20 -19 70 5 39 3 66 -9 97 -11 30 -14 52 -8 73 6 19 5 42 -3 65 -18 50
-122 222 -148 243 -12 10 -31 26 -42 35 -11 9 -63 52 -115 94 l-95 77 -90 -4
c-50 -3 -161 -7 -247 -9 -186 -6 -199 -11 -348 -130 -109 -87 -200 -197 -216
-261 -1 -5 -9 -30 -18 -56 -17 -51 -24 -98 -30 -214 -4 -79 -4 -80 55 -217 74
-171 100 -216 151 -252 21 -15 56 -53 76 -83 55 -83 152 -124 352 -149 111
-13 159 -6 283 43 103 41 120 51 229 140 73 60 80 64 164 80 l87 16 103 -43
c89 -36 108 -41 133 -32 29 10 31 9 56 -35 14 -25 25 -49 25 -53 0 -4 26 -15
58 -24 31 -9 118 -36 191 -60 l135 -43 32 19 31 18 19 -51 c11 -29 26 -56 34
-60 93 -50 456 -200 495 -205 28 -3 59 -8 70 -10 11 -2 40 -7 65 -10 34 -4 52
-14 75 -39 17 -18 51 -47 76 -64 107 -70 156 -193 124 -311 -14 -53 -14 -100
0 -134 17 -39 17 -45 0 -216 -20 -210 -13 -264 44 -339 l25 -33 105 4 c154 6
151 3 151 161 l0 127 -40 64 c-22 35 -40 69 -40 76 0 6 10 25 21 42 22 31 23
58 2 248 -9 81 -9 135 0 182 8 37 7 37 -33 48 -23 6 -40 17 -40 25 0 20 54 19
85 -1 24 -16 26 -15 46 9 11 15 77 56 147 93 70 37 155 87 189 111 51 35 72
44 120 49 113 10 95 5 278 89 149 68 230 106 233 110 2 1 -4 19 -12 40 -20 48
-7 77 32 72 19 -2 32 -13 44 -38 31 -65 23 -66 278 43 203 88 253 105 368 128
l133 27 40 -42 c23 -24 85 -70 138 -104 85 -52 111 -63 209 -85 62 -14 134
-28 160 -32 26 -3 49 -6 52 -7 28 -5 72 20 99 57 l33 44 60 -19 60 -18 66 62
c37 34 84 77 105 97 53 50 204 309 223 383 15 58 15 64 -6 129 -26 84 -29 109
-19 165 13 67 -21 134 -119 232 -86 85 -260 211 -293 211 -11 0 -28 4 -37 9
-9 5 -39 12 -67 15 -27 4 -78 11 -111 16 -86 14 -100 14 -179 6 -61 -7 -77
-13 -123 -49 -69 -54 -161 -118 -199 -138 -23 -12 -51 -54 -113 -165 -83 -151
-121 -251 -115 -301 16 -116 16 -116 -10 -154 -16 -25 -35 -40 -57 -45 -18 -4
-35 -8 -38 -9 -3 -1 -23 -5 -45 -10 -27 -5 -55 -23 -85 -51 -27 -26 -55 -44
-68 -44 -13 0 -79 -27 -146 -60 -73 -36 -136 -60 -155 -60 -22 0 -56 -16 -107
-50 -98 -66 -175 -88 -241 -70 -26 8 -57 24 -68 36 l-21 23 124 128 c140 144
164 174 195 235 19 36 29 45 70 57 42 13 55 24 92 76 33 46 56 67 94 85 41 19
56 33 76 72 14 27 30 72 35 100 6 28 11 53 13 54 1 2 28 4 60 5 l58 2 97 104
c74 80 102 118 120 163 21 54 25 58 46 50 40 -15 73 0 124 59 27 31 66 74 86
96 19 22 59 67 88 100 29 33 92 95 140 138 70 62 91 76 105 69 35 -18 110 -31
212 -37 57 -4 129 -15 159 -25 52 -17 56 -17 107 0 29 10 79 21 111 25 33 3
67 7 76 9 42 6 297 255 331 325 62 121 69 207 26 277 -15 25 -18 43 -14 85 12
114 11 136 -5 185 -10 28 -44 97 -76 153 -57 99 -62 104 -173 187 l-114 86
-71 4 c-144 9 -172 12 -235 29 -57 15 -65 15 -81 0 -9 -8 -72 -27 -138 -42
l-122 -27 -92 -105 c-51 -58 -112 -125 -135 -150 -44 -49 -44 -51 -59 -216 -3
-38 -8 -83 -10 -100 -8 -67 -5 -135 10 -220 24 -145 29 -179 29 -205 -1 -34
-56 -125 -109 -180 -111 -114 -156 -167 -166 -192 -9 -25 -15 -28 -52 -28 -41
0 -46 -4 -117 -82 -41 -45 -79 -86 -84 -92 -23 -23 -77 -108 -86 -135 -8 -24
-28 -38 -94 -71 -82 -41 -85 -43 -117 -108 -26 -52 -44 -74 -85 -102 -28 -19
-158 -139 -288 -265 -305 -295 -315 -306 -315 -317 0 -15 28 -64 44 -77 9 -8
16 -22 16 -33 0 -16 -5 -18 -37 -13 -72 12 -122 36 -140 67 -16 25 -22 29 -48
23 -16 -4 -34 -7 -40 -7 -12 1 -69 12 -71 15 -1 1 -20 36 -42 77 -28 51 -39
83 -35 98 3 12 8 22 12 22 8 -1 51 -68 51 -81 0 -5 4 -9 8 -9 5 0 14 -11 20
-24 6 -13 24 -33 41 -45 l30 -22 77 153 c61 122 78 167 86 222 8 61 17 80 69
156 58 84 59 88 51 128 -9 39 -8 42 33 82 35 35 47 56 69 130 30 99 39 109
132 135 32 9 83 32 112 52 45 28 58 33 80 26 69 -23 110 -10 262 82 187 113
200 122 200 147 0 12 20 59 46 105 49 91 46 72 59 363 l6 135 -41 69 c-22 37
-40 70 -40 73 0 11 -137 173 -175 205 -23 21 -92 62 -153 92 -133 67 -209 78
-332 51 -41 -9 -86 -18 -100 -21 -26 -4 -101 -29 -135 -45 -11 -4 -45 -18 -75
-29 -87 -33 -137 -95 -232 -290 l-80 -165 -3 -95 c-3 -84 -1 -101 22 -148 13
-30 28 -77 33 -105 4 -29 8 -53 9 -54 1 -2 1 -18 1 -35 0 -35 10 -49 141 -197
l67 -75 -15 -50 c-44 -158 -68 -227 -93 -276 -15 -30 -33 -86 -39 -123 -10
-66 -20 -92 -81 -202 -15 -27 -36 -78 -46 -113 -14 -46 -27 -70 -49 -87 -16
-12 -43 -35 -60 -49 -19 -16 -42 -26 -62 -26 -32 0 -33 1 -34 43 0 23 -2 71
-3 107 -2 36 -7 146 -11 245 -4 99 -8 203 -10 230 -5 71 -6 323 -1 365 4 33
14 168 22 275 2 43 -15 168 -35 245 -7 30 -7 312 1 465 4 61 13 133 22 161 16
50 20 54 150 143 167 115 205 152 270 260 73 123 73 124 100 251 l24 114 -25
60 c-13 32 -25 68 -25 80 -2 62 -36 150 -101 257 l-70 116 -126 62 c-98 47
-145 64 -211 75 -78 13 -116 16 -122 10z m2778 -3140 c-26 -25 -29 -60 -13
-129 14 -65 13 -115 -4 -115 -15 0 -37 44 -43 88 -8 57 -18 125 -20 136 0 5
17 15 39 22 54 17 59 17 41 -2z m-260 -51 c-3 -21 -5 -44 -6 -50 0 -8 -14 -13
-35 -13 -32 0 -35 3 -35 28 0 29 24 57 57 65 10 3 19 5 21 6 2 0 1 -16 -2 -36z
m25 -262 l52 -59 40 14 c51 18 56 18 50 -4 -2 -10 3 -31 11 -47 16 -30 16 -30
-15 -39 -38 -11 -85 4 -148 48 -44 31 -67 74 -75 138 -3 24 -1 26 15 18 10 -6
41 -37 70 -69z m-143 -196 c20 -19 22 -145 2 -145 -4 0 -32 22 -62 48 l-55 48
26 33 c21 28 29 32 55 27 16 -4 32 -8 34 -11z m585 -98 c15 -24 27 -49 27 -56
0 -15 -36 -14 -84 3 -32 11 -42 21 -53 52 -7 21 -17 41 -22 44 -11 7 -31 46
-31 59 0 6 30 -4 68 -23 51 -26 73 -45 95 -79z m-2038 -4 c27 -16 15 -25 -53
-38 -54 -11 -57 -11 -64 9 -3 12 -6 30 -7 42 -1 20 1 21 52 10 28 -6 61 -16
72 -23z m1713 0 c3 -25 -9 -48 -57 -116 l-61 -86 17 -29 c13 -22 15 -37 7 -62
l-9 -32 -25 20 c-21 17 -26 28 -25 70 0 41 9 63 53 134 29 48 52 97 52 112 0
23 4 27 23 24 17 -2 23 -11 25 -35z m-5436 -121 c3 -30 -1 -36 -39 -58 l-42
-25 3 28 c2 15 4 34 5 41 2 20 51 66 61 56 5 -5 10 -24 12 -42z"/>
</g>
</svg>
