<svg xmlns="http://www.w3.org/2000/svg" width="63" height="27" viewBox="0 0 63 27">
    <g fill="#3F4953" fill-rule="evenodd">
        <path d="M3.884 15.714l.1-.658c.134-1.035.335-2.006.435-3.04.1-.784.201-1.568.302-2.477l.2-2.883.1-1.912c.034-.376.135-.47.503-.47h.502c.368.031.368.125.335.345-.033.376-.033.909-.067 1.316-.1.784-.134 1.567-.167 2.414-.1 1.379-.302 2.852-.47 4.262-.1.91-.3 1.818-.434 2.696-.235 1.347-.57 2.726-.971 3.886-.235.595-.335.72-.737.752-.167 0-.335 0-.602-.031-.235 0-.436-.031-.536-.282l-.502-1.505-.201-1.065c-.268-1.097-.435-2.163-.603-3.291-.134-.878-.301-1.787-.401-2.665-.134-1.222-.302-2.35-.402-3.51C.168 6.562 0 5.684 0 4.713c0-.282.1-.439.301-.439h.737c.234 0 .335.157.335.439 0 1.128.1 2.006.2 2.883.1 1.097.235 2.006.369 3.228.167 1.724.368 2.79.535 3.887.235 1.473.436 2.852.804 3.824.301-1.003.502-2.069.603-2.821M9.255 8.439c-.032.71 0 1.264-.032 1.974 0 .586-.031 1.049-.063 1.79.476-.093.888-.248 1.3-.402.634-.247 1.11-.432 1.459-1.141.158-.34.19-.556.285-.895.127-.586.222-1.11.222-1.758 0-.617 0-1.142-.222-1.728-.095-.34-.285-.586-.54-.71-.411-.246-1.109-.308-1.616-.092-.38.154-.571.432-.666 1.141-.127.648-.095 1.204-.127 1.82zm-1.332 2.96c0-1.079.032-2.343.064-3.176.031-.864.095-1.728.253-2.437.127-.587.571-1.018 1.078-1.265.413-.216.888-.247 1.364-.247.507 0 1.173.062 1.649.278.475.216.824.77.983 1.264.222.617.317 1.358.317 2.067 0 .771-.032 1.512-.254 2.221-.127.463-.285.956-.507 1.327-.508.894-1.332 1.296-2.315 1.573-.412.124-.888.278-1.363.37 0 .586-.032 1.944-.032 2.437 0 .833.032 1.481.158 2.129.096.37.159.555.54.771.221.124.57.154.792.154.73 0 1.015-.308 1.3-1.08.127-.37.159-.956.19-1.542.032-.34 0-.617-.031-.894v-.309c0-.123.032-.216.063-.247.064-.061.317-.092.793-.092.285 0 .317.062.349.216.031.37.063.802.063 1.265 0 .71-.063 1.635-.285 2.22-.222.587-.508.864-.888 1.142-.412.278-1.078.401-1.807.401-.698 0-1.269-.216-1.681-.617-.476-.463-.57-.894-.666-1.727-.032-.463-.032-1.05-.063-1.512-.095-1.203-.095-2.221-.095-2.684 0-.277.126-.678.031-1.018V11.4zM20.702 14.134c-.034-1.103.035-2.268.035-2.426 0-.252-.035-.536 0-.787 0-.757.068-2.332.068-3.12 0-.755-.068-1.354-.307-1.763-.308-.441-.889-.662-1.743-.693-.546.031-.854.157-1.093.378-.17.22-.307.63-.41 1.26-.273 2.678-.205 5.26-.102 8.41.034.6 0 1.072.034 1.544 0 .347.068.63.205.914.239.535.785.724 1.298.724.786-.031 1.298-.189 1.674-.787.273-.473.273-.977.307-1.638l.034-2.016zm-2.152 5.639c-1.742 0-2.699-1.103-2.699-2.867l-.068-.914v-4.19c.103-1.512-.068-2.33.034-3.307.103-1.165.069-1.922.444-2.898.103-.347.479-.693.786-.914.513-.346 1.23-.409 1.879-.409.99 0 2.084.22 2.665.819.376.346.478.85.58 1.449.103.63.069 1.638.035 2.268-.103.85 0 1.638-.035 2.488-.034 1.387-.068 2.741-.068 4.096 0 .598 0 1.197.034 1.732.034.504-.034.914-.034 1.386.103 1.765 0 2.08 0 3.37 0 .473 0 .946-.034 1.45-.034.85-.068 1.102-.376 1.732-.512.977-1.298 1.292-2.528 1.292-.956 0-1.571-.189-2.118-.693a2.41 2.41 0 0 1-.58-.85 4.114 4.114 0 0 1-.274-1.48c0-.631-.034-.285-.034-1.04v-.252c0-.158 0-.221.239-.316.24-.031.65-.031.888-.031.171 0 .274.094.274.315v.976c0 .725.068 1.166.341 1.638.24.41.65.599 1.298.599.65 0 .991-.126 1.23-.473.24-.283.24-.661.342-1.417 0-.284.068-1.45.068-1.607l-.034-.66c0-.883 0-1.67-.103-2.08-.546.599-1.434.788-2.152.788zM24.916 17.112c0 .652.124 1.242.527 1.46.59.34 1.086.279 1.706.279.714 0 .838-.218.93-.59.094-.373.063-.807.063-1.273V14.07c-.341-.093-.683-.093-1.086-.093-.465 0-.962-.03-1.365.186-.465.218-.59.404-.682.776-.155.746-.093 1.397-.093 2.173m.496-11.205c-.155.279-.217.62-.217 1.086 0 .59-.031.931 0 1.52.03.467.093.901.062 1.18a.353.353 0 0 1-.093.249.237.237 0 0 1-.155.062c-.155.03-.497 0-.652 0-.217 0-.341-.062-.372-.217-.093-.218-.031-.59-.062-.839-.031-1.148-.124-2.452.217-3.352.248-.745.962-1.21 1.985-1.304.838-.062 1.49.031 1.955.31.59.342 1.055.994 1.148 1.894.093.963.186 2.049.186 3.166v7.109c0 .372-.031.807-.031 1.148.093 1.521-.93 2.049-2.327 2.018-.62 0-1.21.062-1.706-.155a2.593 2.593 0 0 1-.714-.373c-.403-.341-.744-.807-.837-1.303-.093-.497-.124-1.428-.124-2.173 0-.528.03-.963.124-1.304.217-.62.527-1.117 1.148-1.397.496-.248 1.085-.372 1.768-.372.527 0 .993.062 1.427.186-.031-.838.062-2.049.031-3.011V9.01c-.093-.839-.062-1.242-.186-1.987-.124-.776-.217-1.117-.559-1.397-.217-.186-.558-.28-1.023-.248-.466.03-.838.186-.993.528M31.7 12.013v-.31c0-.839.034-2.515-.067-3.416-.033-.217.034-.59 0-1.056 0-.465-.067-.993-.067-1.521 0-.373.034-.683 0-1.025 0-.155.067-.217.2-.248.235-.031.503-.031.77 0 .135.03.201.093.201.217l.034.776-.034.28.034.217c.167-.372.435-.683.803-1.024.434-.373.936-.497 1.371-.59.435-.094.837 0 1.205.093.3.062.535.186.735.341.235.156.469.435.636.777.168.341.268.714.368 1.242.1.59.167 1.304.067 2.266.033 1.335.033 2.391.067 2.888l-.034 1.708c.034 1.863.034 3.633.034 5.869 0 .341-.067.372-.167.403-.1.031-.235.031-.436.031l-.367-.03c-.234-.032-.368-.156-.368-.373 0-.466.033-.9.033-1.398.034-1.459.034-3.043 0-3.757-.033-1.149 0-2.919.034-4.627.033-.993-.034-1.956-.067-2.7-.034-.467-.134-.84-.335-1.119-.234-.341-.568-.497-1.07-.497-.234 0-.469.031-.67.094-.4.155-.602.434-.836.714-.535.776-.568 1.77-.669 2.887-.033.404 0 .994-.033 1.584-.034.963 0 2.05.033 2.64.033 1.241.033 2.452.033 3.788 0 .87-.033 1.552-.033 2.515 0 .124.033.28-.2.28-.234 0-.469.03-.77 0-.234 0-.334-.125-.334-.373.033-1.211.066-2.36.033-2.702 0-.341-.033-.745-.033-1.21 0-.498.033-1.119-.067-1.74l-.034-1.894zM41.416 17.112c0 .652.124 1.242.528 1.46.59.34 1.085.279 1.706.279.713 0 .838-.218.93-.59.094-.373.063-.807.063-1.273V14.07c-.342-.093-.683-.093-1.086-.093-.465 0-.962-.03-1.365.186-.466.218-.59.404-.683.776-.155.746-.093 1.397-.093 2.173m.496-11.205c-.154.279-.217.62-.217 1.086 0 .59-.03.931 0 1.52.031.467.094.901.063 1.18a.354.354 0 0 1-.094.249.237.237 0 0 1-.155.062c-.155.03-.496 0-.651 0-.218 0-.341-.062-.373-.217-.092-.218-.03-.59-.061-.839-.031-1.148-.125-2.452.216-3.352.249-.745.962-1.21 1.986-1.304.838-.062 1.49.031 1.955.31.59.342 1.054.994 1.148 1.894.093.963.185 2.049.185 3.166v7.109c0 .372-.03.807-.03 1.148.093 1.521-.931 2.049-2.327 2.018-.62 0-1.21.062-1.706-.155a2.594 2.594 0 0 1-.714-.373c-.403-.341-.744-.807-.838-1.303-.093-.497-.124-1.428-.124-2.173 0-.528.031-.963.124-1.304.218-.62.528-1.117 1.148-1.397.497-.248 1.086-.372 1.769-.372.527 0 .993.062 1.427.186-.032-.838.062-2.049.03-3.011V9.01c-.092-.839-.062-1.242-.185-1.987-.125-.776-.218-1.117-.56-1.397-.216-.186-.557-.28-1.023-.248-.465.03-.837.186-.993.528M48.79 4.731c0-.216.06-.34.184-.37.338-.093.584-.124.922-.031.154.03.246.154.246.432-.03.74 0 1.45-.03 2.283-.093 1.45-.062 2.9-.062 4.382 0 1.142.03 2.314.062 3.425.03.463 0 .802 0 1.142 0 .833.03 1.604.245 2.098.216.493.77.71 1.292.71.585 0 1.108-.34 1.23-.803.124-.4.216-.833.278-1.234.03-.34.03-.864.06-1.203.093-1.08.032-2.315.032-3.58 0-.987-.062-2.036-.062-2.993V7.23c.03-.216-.03-.771 0-.864l-.062-1.635c.032-.216.093-.34.246-.37.216-.031.431-.031.708 0 .215.03.308.03.308.277.092.463.03.741.061 1.266.093.987.062 2.005.062 3.085 0 .957.03 1.852 0 2.808-.031.71-.031 1.358-.062 2.067-.03.494 0 .957-.03 1.42-.031.617-.031 1.357-.124 1.851-.092.74-.246 1.235-.584 1.82-.4.649-1.322 1.02-2.276.988-1.2-.03-2-.833-2.338-1.851a8.646 8.646 0 0 1-.184-1.327c-.092-.617-.03-1.358-.062-1.697-.092-1.327-.06-2.592-.06-3.826 0-1.204.091-2.315 0-3.518V4.731zM61.832 14.403c.318 0 .477.158.477.442v1.64c0 .915-.032 1.671-.095 2.018a2.384 2.384 0 0 1-.572 1.167c-.477.473-1.08.568-1.62.568-.605 0-1.018-.126-1.304-.284-.73-.41-.953-1.324-.953-2.46 0-1.01-.032-2.239-.032-3.343v-3.406c-.031-.41 0-1.104.032-1.703 0-1.167.032-1.766.032-2.964v-.536h-1.303c-.476 0-.508-.095-.54-.19-.095-.157-.064-.378-.064-.599 0-.22.033-.378.096-.41.127-.094.35-.094.603-.094h1.304V2.64c0-.788-.064-1.261-.033-2.113.033-.252.064-.378.318-.378.223 0 .509-.063.73.031.128.032.192.158.192.379v.662c0 .6.032 1.135 0 1.671-.032.537.032.884.032 1.388h2.828c.158 0 .285.095.317.316.032.157.032.504.032.599 0 .22-.032.315-.286.347-.508.031-1.303 0-1.97 0h-.921c-.096 1.545-.064 2.396-.064 3.721 0 .536 0 1.135-.032 1.892-.095 1.262 0 2.492-.032 3.722v1.135c0 .473.032.915.064 1.325.032.599 0 1.04.223 1.387.095.19.317.315.635.347.54.031.794-.158.921-.505.096-.252.16-.599.16-1.072V16.17c0-.505-.032-1.293.063-1.672.095-.126.508-.095.762-.095"/>
    </g>
</svg>
