<svg version="1.1" id="veganaut" xmlns="http://www.w3.org/2000/svg" xmlns:xlink="http://www.w3.org/1999/xlink" x="0px" y="0px"
	 viewBox="0 0 141.4 38.8" style="enable-background:new 0 0 141.4 38.8;" xml:space="preserve">
<g id="elements">
	<path class="st0" d="M55.3,23.2l0.1-1c0.2-1.5,0.5-3,0.6-4.5c0.1-1.2,0.3-2.3,0.4-3.7l0.3-4.3l0.1-2.8c0-0.6,0.2-0.7,0.7-0.7h0.7
		c0.5,0,0.5,0.2,0.5,0.5c0,0.6,0,1.4-0.1,2c-0.1,1.2-0.2,2.3-0.2,3.6c-0.1,2.1-0.4,4.2-0.7,6.3c-0.1,1.4-0.4,2.7-0.6,4
		c-0.3,2-0.8,4.1-1.4,5.8c-0.3,0.9-0.5,1.1-1,1.1c-0.2,0-0.5,0-0.8,0c-0.3,0-0.6,0-0.7-0.4l-0.7-2.2l-0.3-1.6
		c-0.4-1.6-0.6-3.2-0.8-4.9c-0.2-1.3-0.4-2.7-0.6-4c-0.2-1.8-0.4-3.5-0.6-5.2c-0.1-1.5-0.4-2.8-0.4-4.3c0-0.4,0.1-0.7,0.4-0.7h1
		c0.3,0,0.5,0.2,0.5,0.7c0,1.7,0.1,3,0.3,4.3c0.1,1.6,0.3,3,0.5,4.8c0.2,2.6,0.5,4.2,0.7,5.8c0.3,2.2,0.6,4.2,1.1,5.7
		C54.9,25.9,55.2,24.3,55.3,23.2z"/>
	<path class="st0" d="M61.5,16.8c0-1.6,0-3.5,0.1-4.8c0-1.3,0.1-2.6,0.4-3.7c0.2-0.9,0.8-1.5,1.6-1.9c0.6-0.3,1.3-0.4,2-0.4
		c0.7,0,1.7,0.1,2.4,0.4c0.7,0.3,1.2,1.2,1.4,1.9c0.3,0.9,0.5,2.1,0.5,3.1c0,1.2,0,2.3-0.4,3.4c-0.2,0.7-0.4,1.4-0.7,2
		c-0.7,1.4-2,2-3.4,2.4c-0.6,0.2-1.3,0.4-2,0.6c0,0.9,0,2.9,0,3.7c0,1.3,0,2.2,0.2,3.2c0.1,0.6,0.2,0.8,0.8,1.2
		c0.3,0.2,0.8,0.2,1.2,0.2c1.1,0,1.5-0.5,1.9-1.6c0.2-0.6,0.2-1.4,0.3-2.3c0-0.5,0-0.9,0-1.4v-0.5c0-0.2,0-0.3,0.1-0.4
		c0.1-0.1,0.5-0.1,1.2-0.1c0.4,0,0.5,0.1,0.5,0.3c0,0.6,0.1,1.2,0.1,1.9c0,1.1-0.1,2.5-0.4,3.4c-0.3,0.9-0.7,1.3-1.3,1.7
		c-0.6,0.4-1.6,0.6-2.7,0.6c-1,0-1.9-0.3-2.5-0.9c-0.7-0.7-0.8-1.4-1-2.6c0-0.7,0-1.6-0.1-2.3c-0.1-1.8-0.1-3.4-0.1-4.1
		c0-0.4,0.2-1,0-1.5V16.8z M63.5,12.3c0,1.1,0,1.9,0,3c0,0.9,0,1.6-0.1,2.7c0.7-0.1,1.3-0.4,1.9-0.6c0.9-0.4,1.6-0.7,2.1-1.7
		c0.2-0.5,0.3-0.8,0.4-1.4c0.2-0.9,0.3-1.7,0.3-2.7c0-0.9,0-1.7-0.3-2.6C67.7,8.6,67.4,8.2,67,8c-0.6-0.4-1.6-0.5-2.4-0.1
		c-0.6,0.2-0.8,0.7-1,1.7C63.5,10.6,63.5,11.4,63.5,12.3z"/>
	<path class="st0" d="M76.7,29.1c-2.4,0-3.7-1.6-3.7-4.2l-0.1-1.4v-6.2c0.1-2.2-0.1-3.5,0-4.9c0.1-1.7,0.1-2.8,0.6-4.3
		c0.1-0.5,0.7-1,1.1-1.4c0.7-0.5,1.7-0.6,2.6-0.6c1.4,0,2.8,0.3,3.6,1.2c0.5,0.5,0.7,1.3,0.8,2.1c0.1,0.9,0.1,2.4,0,3.4
		c-0.1,1.3,0,2.4,0,3.7c0,2.1-0.1,4.1-0.1,6.1c0,0.9,0,1.8,0,2.6c0,0.7,0,1.4,0,2.1c0.1,2.6,0,3.1,0,5c0,0.7,0,1.4,0,2.1
		c0,1.3-0.1,1.6-0.5,2.6c-0.7,1.4-1.8,1.9-3.5,1.9c-1.3,0-2.1-0.3-2.9-1c-0.3-0.3-0.7-0.8-0.8-1.3c-0.2-0.7-0.4-1.4-0.4-2.2
		c0-0.9,0-0.4,0-1.5v-0.4c0-0.2,0-0.3,0.3-0.5c0.3,0,0.9,0,1.2,0c0.2,0,0.4,0.1,0.4,0.5v1.4c0,1.1,0.1,1.7,0.5,2.4
		c0.3,0.6,0.9,0.9,1.8,0.9c0.9,0,1.4-0.2,1.7-0.7c0.3-0.4,0.3-1,0.5-2.1c0-0.4,0.1-2.1,0.1-2.4l0-1c0-1.3,0-2.5-0.1-3.1
		C78.9,28.8,77.7,29.1,76.7,29.1z M79.7,20.7c0-1.6,0-3.4,0-3.6c0-0.4,0-0.8,0-1.2c0-1.1,0.1-3.5,0.1-4.6c0-1.1-0.1-2-0.4-2.6
		c-0.4-0.7-1.2-1-2.4-1c-0.7,0-1.2,0.2-1.5,0.6c-0.2,0.3-0.4,0.9-0.6,1.9c-0.4,4-0.3,7.8-0.1,12.5c0,0.9,0,1.6,0,2.3
		c0,0.5,0.1,0.9,0.3,1.4c0.3,0.8,1.1,1.1,1.8,1.1c1.1,0,1.8-0.3,2.3-1.2c0.4-0.7,0.4-1.4,0.4-2.4L79.7,20.7z"/>
	<path class="st0" d="M87.6,8.5c-0.2,0.4-0.3,0.9-0.3,1.6c0,0.9,0,1.4,0,2.3c0,0.7,0.1,1.4,0.1,1.8c0,0.1,0,0.3-0.1,0.4
		c0,0-0.1,0.1-0.2,0.1c-0.2,0-0.7,0-1,0c-0.3,0-0.5-0.1-0.6-0.3c-0.1-0.3,0-0.9-0.1-1.3c0-1.7-0.2-3.7,0.3-5c0.4-1.1,1.4-1.8,3-2
		C90,6,91,6.1,91.7,6.5C92.5,7,93.2,8,93.4,9.4c0.1,1.4,0.3,3.1,0.3,4.8v10.7c0,0.6,0,1.2,0,1.7c0.1,2.3-1.4,3.1-3.5,3
		c-0.9,0-1.8,0.1-2.6-0.2c-0.4-0.1-0.7-0.3-1.1-0.6c-0.6-0.5-1.1-1.2-1.3-2c-0.1-0.7-0.2-2.1-0.2-3.3c0-0.8,0-1.4,0.2-2
		c0.3-0.9,0.8-1.7,1.7-2.1c0.7-0.4,1.6-0.6,2.7-0.6c0.8,0,1.5,0.1,2.1,0.3c0-1.3,0.1-3.1,0-4.5v-1.5c-0.1-1.3-0.1-1.9-0.3-3
		c-0.2-1.2-0.3-1.7-0.8-2.1c-0.3-0.3-0.8-0.4-1.5-0.4C88.4,7.7,87.9,8,87.6,8.5z M86.9,25.3c0,1,0.2,1.9,0.8,2.2
		c0.9,0.5,1.6,0.4,2.6,0.4c1.1,0,1.3-0.3,1.4-0.9c0.1-0.6,0.1-1.2,0.1-1.9v-4.4c-0.5-0.1-1-0.1-1.6-0.1c-0.7,0-1.4,0-2.1,0.3
		c-0.7,0.3-0.9,0.6-1,1.2C86.8,23.2,86.9,24.2,86.9,25.3z"/>
	<path class="st0" d="M97.1,17.6v-0.5c0-1.3,0-3.8-0.1-5.1c0-0.3,0-0.9,0-1.6c0-0.7-0.1-1.5-0.1-2.3c0-0.6,0-1,0-1.5
		c0-0.2,0.1-0.3,0.3-0.4c0.3,0,0.7,0,1.1,0c0.2,0,0.3,0.1,0.3,0.3l0,1.2l0,0.4l0,0.3c0.2-0.6,0.6-1,1.1-1.5c0.6-0.6,1.3-0.7,1.9-0.9
		c0.6-0.1,1.2,0,1.7,0.1c0.4,0.1,0.7,0.3,1,0.5c0.3,0.2,0.7,0.7,0.9,1.2c0.2,0.5,0.4,1.1,0.5,1.9c0.1,0.9,0.2,2,0.1,3.4
		c0,2,0,3.6,0.1,4.3l0,2.6c0,2.8,0,5.5,0,8.8c0,0.5-0.1,0.6-0.2,0.6c-0.1,0-0.3,0-0.6,0l-0.5,0c-0.3,0-0.5-0.2-0.5-0.6
		c0-0.7,0-1.4,0-2.1c0-2.2,0-4.6,0-5.6c0-1.7,0-4.4,0-7c0-1.5,0-2.9-0.1-4.1c0-0.7-0.2-1.3-0.5-1.7c-0.3-0.5-0.8-0.7-1.5-0.7
		c-0.3,0-0.7,0-0.9,0.1c-0.6,0.2-0.8,0.7-1.2,1.1c-0.7,1.2-0.8,2.7-0.9,4.3c0,0.6,0,1.5,0,2.4c0,1.4,0,3.1,0,4c0,1.9,0,3.7,0,5.7
		c0,1.3,0,2.3,0,3.8c0,0.2,0,0.4-0.3,0.4c-0.3,0-0.7,0-1.1,0c-0.3,0-0.5-0.2-0.5-0.6c0-1.8,0.1-3.5,0-4.1c0-0.5,0-1.1,0-1.8
		c0-0.7,0-1.7-0.1-2.6L97.1,17.6z"/>
	<path class="st0" d="M111.8,8.5c-0.2,0.4-0.3,0.9-0.3,1.6c0,0.9,0,1.4,0,2.3c0,0.7,0.1,1.4,0.1,1.8c0,0.1,0,0.3-0.1,0.4
		c0,0-0.1,0.1-0.2,0.1c-0.2,0-0.7,0-1,0c-0.3,0-0.5-0.1-0.6-0.3c-0.1-0.3,0-0.9-0.1-1.3c0-1.7-0.2-3.7,0.3-5c0.4-1.1,1.4-1.8,3-2
		c1.3-0.1,2.2,0,2.9,0.5c0.9,0.5,1.6,1.5,1.7,2.8c0.1,1.4,0.3,3.1,0.3,4.8v10.7c0,0.6,0,1.2,0,1.7c0.1,2.3-1.4,3.1-3.5,3
		c-0.9,0-1.8,0.1-2.6-0.2c-0.4-0.1-0.7-0.3-1.1-0.6c-0.6-0.5-1.1-1.2-1.3-2c-0.1-0.7-0.2-2.1-0.2-3.3c0-0.8,0-1.4,0.2-2
		c0.3-0.9,0.8-1.7,1.7-2.1c0.7-0.4,1.6-0.6,2.7-0.6c0.8,0,1.5,0.1,2.1,0.3c0-1.3,0.1-3.1,0-4.5v-1.5c-0.1-1.3-0.1-1.9-0.3-3
		c-0.2-1.2-0.3-1.7-0.8-2.1c-0.3-0.3-0.8-0.4-1.5-0.4C112.6,7.7,112,8,111.8,8.5z M111.1,25.3c0,1,0.2,1.9,0.8,2.2
		c0.9,0.5,1.6,0.4,2.6,0.4c1.1,0,1.3-0.3,1.4-0.9c0.1-0.6,0.1-1.2,0.1-1.9v-4.4c-0.5-0.1-1-0.1-1.6-0.1c-0.7,0-1.4,0-2.1,0.3
		c-0.7,0.3-0.9,0.6-1,1.2C111,23.2,111.1,24.2,111.1,25.3z"/>
	<path class="st0" d="M121.1,6.7c0-0.3,0.1-0.5,0.3-0.6c0.5-0.1,0.9-0.2,1.4,0c0.2,0,0.4,0.2,0.4,0.7c0,1.1,0,2.2,0,3.5
		c-0.1,2.2-0.1,4.4-0.1,6.6c0,1.7,0,3.5,0.1,5.2c0,0.7,0,1.2,0,1.7c0,1.3,0,2.4,0.4,3.2c0.3,0.7,1.2,1.1,2,1.1
		c0.9,0,1.7-0.5,1.9-1.2c0.2-0.6,0.3-1.3,0.4-1.9c0-0.5,0-1.3,0.1-1.8c0.1-1.6,0-3.5,0-5.4c0-1.5-0.1-3.1-0.1-4.5v-2.7
		c0-0.3,0-1.2,0-1.3l-0.1-2.5c0-0.3,0.1-0.5,0.4-0.6c0.3,0,0.7,0,1.1,0c0.3,0,0.5,0,0.5,0.4c0.1,0.7,0,1.1,0.1,1.9
		c0.1,1.5,0.1,3,0.1,4.7c0,1.4,0,2.8,0,4.2c0,1.1,0,2.1-0.1,3.1c0,0.7,0,1.4,0,2.1c0,0.9,0,2.1-0.2,2.8c-0.1,1.1-0.4,1.9-0.9,2.8
		c-0.6,1-2,1.5-3.5,1.5c-1.8,0-3-1.3-3.5-2.8c-0.1-0.6-0.2-1.3-0.3-2c-0.1-0.9,0-2.1-0.1-2.6c-0.1-2-0.1-3.9-0.1-5.8
		c0-1.8,0.1-3.5,0-5.3V6.7z"/>
	<path class="st0" d="M140.7,21.1c0.5,0,0.7,0.2,0.7,0.7v2.4c0,1.4,0,2.5-0.1,3c-0.1,0.7-0.4,1.3-0.8,1.7c-0.7,0.7-1.6,0.8-2.4,0.8
		c-0.9,0-1.5-0.2-1.9-0.4c-1.1-0.6-1.4-2-1.4-3.6c0-1.5,0-3.3,0-4.9v-5c0-0.6,0-1.6,0-2.5c0-1.7,0-2.6,0-4.4V8h-1.9
		c-0.7,0-0.7-0.1-0.8-0.3c-0.1-0.2-0.1-0.6-0.1-0.9s0-0.6,0.1-0.6c0.2-0.1,0.5-0.1,0.9-0.1h1.9V3.7c0-1.2-0.1-1.9,0-3.1
		c0-0.4,0.1-0.6,0.5-0.6c0.3,0,0.7-0.1,1.1,0c0.2,0,0.3,0.2,0.3,0.6v1c0,0.9,0,1.7,0,2.5c0,0.8,0,1.3,0,2.1h4.2
		c0.2,0,0.4,0.1,0.5,0.5c0,0.2,0,0.7,0,0.9c0,0.3,0,0.5-0.4,0.5c-0.7,0-1.9,0-2.9,0h-1.4c-0.1,2.3-0.1,3.5-0.1,5.5
		c0,0.8,0,1.7,0,2.8c-0.1,1.9,0,3.7,0,5.5v1.7c0,0.7,0,1.4,0.1,2c0,0.9,0,1.5,0.3,2.1c0.1,0.3,0.5,0.5,0.9,0.5
		c0.8,0,1.2-0.2,1.4-0.7c0.1-0.4,0.2-0.9,0.2-1.6v-2c0-0.7,0-1.9,0.1-2.5C139.7,21.1,140.3,21.1,140.7,21.1z"/>
</g>
<g id="trigger" fill="currentColor">
	<path class="st0" d="M40.8,11.2l-0.2-0.3l0.1-1.1l-0.2-0.6l-0.7-1.2l-0.8-0.6L38.5,7L37,6.9l-0.7-0.2l-0.2,0.2l-1.4,0.3L33.1,9
		l-0.2,2.1l0.3,2l-0.3,0.6l-1.3,1.4l-0.1,0.3H31l-1,1.1l-0.4,0.6l-0.1,0.3L29,17.6l-0.5,0.3l-0.3,0.7L27.6,19l-3.3,3.2l0.1,0.3
		l0.2,0.2l0.1,0.3L24,22.9l-0.3-0.2l-0.2-0.3l-0.4,0.1l-0.4-0.1l-0.5-0.9l0.1-0.3l0.6,0.9l0.3,0.2l0.9-1.8l0.1-0.8l0.7-1l-0.1-0.5
		l0.5-0.5l0.3-1l0.3-0.2l0.7-0.2l0.6-0.4l0.3,0.1H28l2-1.2l0.1-0.4l0.5-0.9l0.1-2.4l-0.5-0.9l-0.8-1l-0.5-0.4l-1.2-0.6l-0.8-0.1
		l-1.4,0.3l-1.3,0.5l-0.6,0.7l-0.9,1.9v1.1l0.3,0.6l0.1,1l1.2,1.4l-0.5,1.7l-0.3,0.5l-0.1,0.8l-0.6,1.1l-0.2,0.7l-0.7,0.6h-0.4v-0.4
		L21.3,16l0.2-2.7l-0.3-1.6l0.1-2.8l0.2-0.7l1.6-1.1l0.5-0.5l0.7-1.2L24.6,4l-0.3-0.7L24.3,3l-0.2-0.7L23.3,1l-1.4-0.7l-1-0.2
		l-0.7,0.1l-0.6,0.3l-0.3-0.1h-0.4L18,0.8l-1,1l-0.3,0.6l-0.2,0.6v0.7l0.1,0.4l-0.2,0.3L16.3,5l0.2,0.7l0.6,0.9l0.6,0.3l0.4,0.6
		L19.1,8l0.4,0.4l0.2,0.7v2.3l0.2,0.7l-0.3,1.6l0.1,2.9L19.6,18l0.2,0.6L19.6,20l0.2,0.6l-0.5,0.8l-0.4,0.1l-1.4-3.1l-0.9-2.6l0.8-1
		l0.8-1.8l0.1-1.5l-0.4-0.5l-0.6-1.2l-0.9-0.9l-0.7-0.2l-0.6-0.3l-2.3,0.1l-0.5,0.3l-1,0.9l-0.7,1.1L10,11.9l0.3,0.7v0.8l0.2,0.7
		l0.3,0.6l1,0.9l1.2,0.6l2.1,0.5l0.9,1.9l0.4,1.4l0.5,0.4l0.3,1l0.1,0.7l-0.1,0.7l-1.5-0.9l-0.2-0.7L14,19.7l-0.3-0.6l-0.7-0.3
		l-1.2-1.6l-2.8-2.8l-1.1-1.7l0.2-0.3l0.3-2.1L7.5,8.8l-0.8-1L6.2,7.4L5,6.9L3.6,7L2.9,6.8L2.3,7.1L1.2,7.9l-0.8,1L0.1,9.5l0.1,0.3
		l-0.2,2l0.5,1.1l0.4,0.6l1.1,1l1.2,0.5l2.1-0.2l1.2-0.3l1.4,1.4l1,0.8l0.6,0.9l3,2.8l1.8,2l0.7,0.2l0.5,0.9L15,24.1l-0.7-0.2
		l-2.9-1.3L10,22.2l-0.4-0.6l-0.3-0.2l0.1-0.6l-0.2-0.5l0.1-0.4l-0.1-0.3l-0.7-1.2l-1.6-1.3L4,17.2l-0.6,0.3l-1.1,0.9l-0.6,0.8
		l-0.3,0.9l-0.1,1.4L2,23.1l0.3,0.5L2.8,24l0.4,0.6L4.1,25l1.4,0.2l0.7-0.1l1.2-0.5l1.1-0.9L9,23.6l0.5-0.1l1.2,0.5l0.4-0.1l0.3,0.6
		l2.2,0.7L14,25l0.2,0.6l2.7,1.2l1.4,0.2l0.2,0.3l0.6,0.4l0.4,0.5l0.2,0.7l-0.2,1l0.2,0.5l-0.2,2.2l0.2,0.6l0.3,0.4
		c0.3,0,0.3,0,0.6,0c0.3,0,0.7,0,0.9-0.2l0-1.5L21,31.1l0.3-0.5l-0.2-1.8l0.1-0.7l-0.4-0.1l-0.1-0.2h0.4l0.3,0.2l0.2-0.3l1.7-0.9
		l0.5-0.4l1-0.1l2.4-1.1l-0.2-0.5l0.2-0.2l0.3,0.1l0.1,0.3l0.2,0.2l2.8-1.2l1.5-0.3l0.5,0.5l1.1,0.7l1.3,0.3l0.7,0.1l0.3-0.1
		l0.4-0.5l0.7,0.2l1.2-1.1l1-1.7l0.2-0.7l-0.3-1l0.1-0.7L39,19l-0.9-0.9l-1-0.7l-0.7-0.2L35,17l-0.9,0.1l-1,0.8l-0.6,0.3l-1,1.8
		l-0.2,0.7l0.1,0.9L31.1,22l-0.9,0.2l-0.5,0.5h-0.3L28,23.4h-0.4L26.7,24L26,24.2l-0.6-0.2l-0.2-0.3l0.3-0.2l1.4-1.5l0.3-0.6
		l0.6-0.2l0.5-0.7l0.6-0.3l0.3-0.6l0.1-0.6L30,19l1.2-1.3l0.2-0.6l0.3,0.1l0.3-0.1l1.6-1.8l1-0.9l0.6,0.2l1.4,0.1l0.6,0.2l0.6-0.2
		l0.9-0.1l0.7-0.6l1-1l0.3-0.6l0.2-0.6L40.8,11.2z M3.9,23.3V23L4,22.7l0.3-0.2L4.4,23L3.9,23.3z M36.2,22.3l-0.7,1l0.2,0.3L35.6,24
		l-0.3-0.2v-0.6l0.6-1v-0.3h0.3L36.2,22.3z M37.9,21.8l0.4,0.6l-0.2,0.1l-0.6-0.2l-0.1-0.4l-0.2-0.2l-0.1-0.3L37.9,21.8z M36.7,18.5
		l0.4-0.1l-0.2,0.1l-0.2,0.3l0.2,0.9L36.8,20l-0.2-0.2l-0.2-1.2L36.7,18.5z M34.9,18.9l0.2-0.2l0.3-0.1l-0.1,0.6h-0.4V18.9z
		 M35,19.9l0.3,0.2l0.5,0.6l0.6-0.2l-0.1,0.2l0.2,0.4l-0.3,0.1l-0.4-0.1l-0.6-0.4l-0.2-0.6L35,19.9z M34.3,21.4l0.4,0.1l0.1,0.6
		l-0.1,0.3L34,21.8L34.3,21.4z M26,22.3l-0.5,0.1l-0.1-0.5l0.6,0.1l0.3,0.2L26,22.3z"/>
	<polygon class="st0" points="3.9,9.8 3.7,9.4 3.3,9.4 3.5,9.7 	"/>
	<polygon class="st0" points="15.4,24.6 15.7,24.6 15.8,24.4 15.5,24.4 	"/>
	<rect x="17.9" y="5" class="st0" width="0.3" height="0.3"/>
	<polygon class="st0" points="19.2,26.7 18.7,26.6 18.7,26.9 19,26.9 	"/>
	<polygon class="st0" points="18.8,24.7 19.1,25 19.3,24.6 19.2,24.5 	"/>
	<polygon class="st0" points="19.3,27.2 19.7,27.2 19.7,26.9 19.4,26.9 	"/>
	<polygon class="st0" points="20,30.4 20.3,30.3 20,30.1 	"/>
	<polygon class="st0" points="20.6,24.2 20.3,24.3 20.5,24.5 	"/>
	<polygon class="st0" points="20.5,29.7 20.8,29.6 20.8,29.3 20.5,29.3 	"/>
	<polygon class="st0" points="20.8,13.4 21,13.3 20.8,13.1 	"/>
	<polygon class="st0" points="21.8,25.9 21.3,25.7 20.9,25.8 21.1,26.1 21.4,26.2 21.7,26.1 	"/>
	<polygon class="st0" points="21.8,23.3 22.1,23.4 22.6,23.1 22.6,22.9 22.4,22.7 21.9,23 	"/>
	<polygon class="st0" points="22.7,27.1 22.9,26.6 22.5,26.6 22.5,26.9 	"/>
	<polygon class="st0" points="24.6,14.6 24.2,14.5 24.4,14.7 	"/>
	<polygon class="st0" points="25,25.4 25.1,25.1 25.1,24.6 24.8,24.6 24.8,25.1 	"/>
	<rect x="25.2" y="12.1" class="st0" width="0.2" height="0.2"/>
	<polygon class="st0" points="26.2,13.7 26.3,14.1 26.5,14 26.6,13.6 	"/>
	<polygon class="st0" points="26.3,24.6 26.5,24.4 26.3,24.3 	"/>
	<polygon class="st0" points="26.9,11.5 27.2,11.3 27.2,11 26.9,10.8 26.8,11.2 	"/>
	<rect x="26.9" y="12.5" class="st0" width="0.2" height="0.2"/>
	<polygon class="st0" points="27.6,20.3 27.9,20.1 27.9,19.8 27.6,19.6 27.5,19.9 	"/>
	<polygon class="st0" points="28.2,13.7 28.1,13.3 27.9,13.2 27.9,13.6 	"/>
	<polygon class="st0" points="31.8,21.2 32.3,20.9 32.4,20.6 32.1,20.7 31.9,20.9 	"/>
	<polygon class="st0" points="32.9,14.6 33,14.9 33.4,14.8 33.4,14.5 33.1,14.5 	"/>
	<polygon class="st0" points="33.3,21.8 33.6,21.6 33.3,21.4 	"/>
	<polygon class="st0" points="33.4,21 33.6,20.8 33.4,20.6 	"/>
	<polygon class="st0" points="34.3,20 34,19.7 33.6,19.6 33.6,20 33.9,20.1 	"/>
	<polygon class="st0" points="34.4,18.5 34.3,18.3 33.9,18.3 34,18.5 	"/>
	<polygon class="st0" points="35.7,11.5 36,11.5 35.7,11.2 	"/>
	<rect x="36.6" y="12.8" class="st0" width="0.3" height="0.3"/>
	<polygon class="st0" points="37.5,23.4 37.5,23.1 37.2,23.1 37.2,23.3 	"/>
	<polygon class="st0" points="37.4,14.2 37.7,14.2 37.6,14 37.4,13.8 	"/>
	<polygon class="st0" points="37.9,14.6 37.8,14.4 37.6,14.3 	"/>
	<polygon class="st0" points="38,20.9 38,20.5 37.6,20 37.6,20.4 37.7,20.7 	"/>
	<polygon class="st0" points="38.1,12.4 38.5,12.2 38.3,12 38.1,12.2 	"/>
</g>
</svg>
