<svg xmlns="http://www.w3.org/2000/svg" width="14" height="18" viewBox="0 0 14 18">
    <g fill="#000" fill-rule="evenodd">
        <path d="M6.912 0C3.3 0 .364 3.12.364 6.958c0 5.676 5.914 10.69 6.166 10.902a.593.593 0 0 0 .764 0c.251-.211 6.165-5.226 6.165-10.902C13.46 3.12 10.521 0 6.912 0zm0 16.49c-1.277-1.185-5.316-5.269-5.316-9.532 0-3.116 2.385-5.649 5.316-5.649 2.93 0 5.314 2.533 5.314 5.649.002 4.263-4.038 8.347-5.314 9.532z"/>
        <path d="M9.26 6.479H7.516V4.628c0-.347-.264-.628-.59-.628-.327 0-.592.281-.592.628V6.48H4.591c-.326 0-.591.281-.591.628 0 .346.265.627.59.627h1.744V9.59c0 .347.265.628.591.628.327 0 .591-.281.591-.628V7.736H9.26c.326 0 .59-.28.59-.627s-.264-.63-.59-.63z"/>
    </g>
</svg>
