<svg xmlns="http://www.w3.org/2000/svg" width="23" height="23" viewBox="0 0 23 23">
    <g fill="#000" fill-rule="evenodd">
        <path fill-rule="nonzero" d="M11.51 1.02c-5.783 0-10.49 4.707-10.49 10.49S5.728 22 11.51 22 22 17.293 22 11.51 17.293 1.02 11.51 1.02zm0-1C17.846.02 23 5.176 23 11.51 23 17.846 17.846 23 11.51 23 5.175 23 .02 17.846.02 11.51.02 5.175 5.176.02 11.51.02z"/>
        <path d="M11 11H5.494a.5.5 0 0 0 0 1H11v5.337c0 .367.224.663.5.663.268 0 .5-.297.5-.663V12h5.506a.5.5 0 0 0 0-1H12V5.663c0-.367-.224-.663-.5-.663-.268 0-.5.297-.5.663V11z"/>
    </g>
</svg>
