<svg xmlns="http://www.w3.org/2000/svg" width="15" height="16" viewBox="0 0 15 16">
    <g fill="#000" fill-rule="nonzero">
        <path d="M4.52.061a.496.496 0 0 0-.494.506v.507H2.624C1.263 1.074.157 2.208.157 3.605v9.681c0 1.398 1.106 2.532 2.467 2.532h9.73c1.362 0 2.468-1.134 2.468-2.532v-9.68c0-1.398-1.105-2.532-2.466-2.532h-1.402V.567a.496.496 0 0 0-.494-.506.496.496 0 0 0-.493.506v.507H5.013V.567a.508.508 0 0 0-.494-.506zm7.855 14.764h-9.75c-.81 0-1.48-.688-1.48-1.519v-7.17c.04.021.099.021.158.021h12.395c.06 0 .099-.02.158-.02v7.17c0 .83-.672 1.518-1.481 1.518zM9.987 2.086v.507c0 .283.217.506.493.506a.496.496 0 0 0 .494-.506v-.507h1.402c.809 0 1.48.689 1.48 1.52v1.559c-.04-.021-.099-.021-.158-.021H1.303c-.06 0-.099.02-.158.02V3.606c0-.83.67-1.519 1.48-1.519h1.402v.507c0 .283.217.506.493.506a.496.496 0 0 0 .493-.506v-.507h4.974z"/>
        <path d="M5.843 7.656c.276 0 .493.222.493.506a.496.496 0 0 1-.494.507h-.63a.496.496 0 0 1-.494-.507c0-.283.217-.506.493-.506h.631zm1.973 0c.276 0 .494.222.494.506a.496.496 0 0 1-.494.507h-.631a.496.496 0 0 1-.494-.507c0-.283.218-.506.494-.506h.631zm1.974 0c.276 0 .493.222.493.506a.496.496 0 0 1-.493.507h-.632a.496.496 0 0 1-.493-.507c0-.283.217-.506.493-.506h.632zm1.974 0c.276 0 .493.222.493.506a.496.496 0 0 1-.493.507h-.632a.496.496 0 0 1-.493-.507c0-.283.217-.506.493-.506h.632zM3.869 9.68c.276 0 .493.223.493.507a.496.496 0 0 1-.493.506h-.632a.496.496 0 0 1-.493-.506c0-.284.217-.507.493-.507h.632zm1.974 0c.276 0 .493.223.493.507a.496.496 0 0 1-.494.506h-.63a.496.496 0 0 1-.494-.506c0-.284.217-.507.493-.507h.631zm1.973 0c.276 0 .494.223.494.507a.496.496 0 0 1-.494.506h-.631a.496.496 0 0 1-.494-.506c0-.284.218-.507.494-.507h.631zm1.974 0c.276 0 .493.223.493.507a.496.496 0 0 1-.493.506h-.632a.496.496 0 0 1-.493-.506c0-.284.217-.507.493-.507h.632zm1.974 0c.276 0 .493.223.493.507a.496.496 0 0 1-.493.506h-.632a.496.496 0 0 1-.493-.506c0-.284.217-.507.493-.507h.632zm-7.895 2.026c.276 0 .493.222.493.506a.496.496 0 0 1-.493.506h-.632a.496.496 0 0 1-.493-.506c0-.283.217-.506.493-.506h.632zm1.974 0c.276 0 .493.222.493.506a.496.496 0 0 1-.494.506h-.63a.496.496 0 0 1-.494-.506c0-.283.217-.506.493-.506h.631zm1.973 0c.276 0 .494.222.494.506a.496.496 0 0 1-.494.506h-.631a.496.496 0 0 1-.494-.506c0-.283.218-.506.494-.506h.631zm1.974 0c.276 0 .493.222.493.506a.496.496 0 0 1-.493.506h-.632a.496.496 0 0 1-.493-.506c0-.283.217-.506.493-.506h.632z"/>
    </g>
</svg>
