<svg xmlns="http://www.w3.org/2000/svg" viewBox="0 0 13 13">
    <g fill="#000" fill-rule="evenodd">
        <path d="M6.5 0C2.931 0 0 2.906 0 6.5S2.931 13 6.5 13 13 10.069 13 6.5 10.069 0 6.5 0zm0 11.781A5.284 5.284 0 0 1 1.219 6.5 5.283 5.283 0 0 1 6.5 1.219 5.284 5.284 0 0 1 11.781 6.5 5.284 5.284 0 0 1 6.5 11.781z"/>
        <path d="M8.985 6.19H6.811V3.607a.367.367 0 0 0-.359-.358.368.368 0 0 0-.358.358v2.94c0 .192.166.358.358.358h2.533c.216 0 .359-.143.359-.358a.367.367 0 0 0-.359-.359z"/>
    </g>
</svg>
