<svg xmlns="http://www.w3.org/2000/svg" width="17" height="17" viewBox="0 0 17 17">
    <path  d="M13.455.01a.434.434 0 0 1 .407.122l2.851 2.851a.44.44 0 0 1-.001.62l-8.546 8.546a.44.44 0 0 1-.224.125l-3.609.76a.44.44 0 0 1-.522-.522l.76-3.607a.448.448 0 0 1 .115-.223L13.231.136a.434.434 0 0 1 .224-.125zM5.626 8.996L7.85 11.22l7.923-7.924-2.223-2.229-7.923 7.93zm8.433-.945a.44.44 0 1 1 .88-.005v8.36a.44.44 0 0 1-.44.44H.44a.44.44 0 0 1-.44-.44V2.351a.44.44 0 0 1 .356-.441l.048-.005h8.39a.44.44 0 1 1 .005.88H.88v13.18h13.179V8.05zm-9.252 3.982l2.154-.455-1.7-1.699-.454 2.154z"/>
</svg>
