<svg xmlns="http://www.w3.org/2000/svg" width="19" height="18" viewBox="0 0 19 18">
    <path fill="#000" fill-rule="evenodd" d="M18.21 2.512a.628.628 0 0 1-.003 1.256h-5.89a2.805 2.805 0 0 1-2.73 2.174c-1.33 0-2.443-.93-2.729-2.175H.968a.628.628 0 0 1 0-1.255H6.86A2.804 2.804 0 0 1 9.589.337c1.327 0 2.443.93 2.729 2.175h5.891zm-2.312 11.93h2.311a.627.627 0 1 1-.001 1.256h-2.312a2.804 2.804 0 0 1-2.729 2.174 2.806 2.806 0 0 1-2.729-2.174H.968a.628.628 0 0 1 0-1.256h9.47a2.805 2.805 0 0 1 2.73-2.175c1.33 0 2.444.93 2.73 2.175zm2.311-5.965a.628.628 0 0 1 0 1.256H7.74a2.804 2.804 0 0 1-2.729 2.174 2.806 2.806 0 0 1-2.729-2.174H.969a.628.628 0 0 1 0-1.256h1.312a2.805 2.805 0 0 1 2.73-2.175c1.329 0 2.442.93 2.728 2.175h10.47zM9.59 4.688c.825 0 1.497-.654 1.54-1.471-.003-.027-.008-.052-.008-.077 0-.026.005-.051.008-.077a1.546 1.546 0 0 0-1.54-1.47A1.55 1.55 0 0 0 8.042 3.14a1.55 1.55 0 0 0 1.547 1.548zm2.031 10.38a1.548 1.548 0 1 0 1.547-1.547 1.55 1.55 0 0 0-1.547 1.547zm-6.61-4.417a1.548 1.548 0 0 0 0-3.095 1.55 1.55 0 0 0-1.547 1.547 1.55 1.55 0 0 0 1.547 1.548z"/>
</svg>
