<svg xmlns="http://www.w3.org/2000/svg">
    <g fill="none" fill-rule="evenodd">
        <g fill="#3F4953">
            <path d="M29.565 8.272a.942.942 0 0 0-1.141-.914c-3.066.652-5.38 4.012-5.38 8.056 0 2.902 1.205 5.445 2.999 6.88.163.13.261.326.261.521v12.228c0 .914.717 1.63 1.63 1.63.915 0 1.631-.716 1.631-1.63V8.273zM17.826 8.304v7.925c0 .49-.39.88-.88.88-.489 0-.913-.39-.88-.914v-7.89a.962.962 0 0 0-.978-.979h-.326a.962.962 0 0 0-.978.978v7.925c0 .49-.39.88-.88.88-.489 0-.88-.39-.88-.88l-.067-7.925a.962.962 0 0 0-.979-.978.962.962 0 0 0-.978.978v7.174a4.906 4.906 0 0 0 2.87 4.467c.228.098.39.326.39.588v14.51c0 .914.717 1.63 1.631 1.63s1.63-.716 1.63-1.63v-14.51c0-.262.164-.49.391-.588 1.665-.781 2.87-2.478 2.87-4.467V8.304a.962.962 0 0 0-.978-.978.962.962 0 0 0-.978.978z"/>
        </g>
        <g fill="#00A89F" fill-rule="nonzero">
            <path d="M32.75 1.01a3.47 3.47 0 0 1-.274 1.391c-.397.926-1.163 1.434-2.457 1.338a.25.25 0 1 0-.038.498c1.516.113 2.476-.524 2.954-1.638.246-.573.323-1.151.315-1.592V.991a.25.25 0 0 0-.5.018z"/>
            <path d="M35.99 3.75a3.47 3.47 0 0 1-1.391-.274c-.926-.397-1.434-1.163-1.338-2.457a.25.25 0 1 0-.498-.038c-.113 1.516.524 2.476 1.638 2.954.573.246 1.151.323 1.592.315h.016a.25.25 0 0 0-.018-.5z"/>
            <path d="M33.25 6.99a3.47 3.47 0 0 1 .274-1.391c.397-.926 1.163-1.434 2.457-1.338a.25.25 0 0 0 .038-.498c-1.516-.113-2.476.524-2.954 1.638a3.938 3.938 0 0 0-.314 1.608.25.25 0 0 0 .5-.018z"/>
            <path d="M30.01 4.25a3.47 3.47 0 0 1 1.391.274c.926.397 1.434 1.163 1.338 2.457a.25.25 0 0 0 .498.038c.113-1.516-.524-2.476-1.638-2.954a3.938 3.938 0 0 0-1.592-.315h-.016a.25.25 0 0 0 .018.5z"/>
        </g>
        <g fill="#00A89F" fill-rule="nonzero">
            <path d="M35.75 19.01c.004.243-.04.574-.176.891-.251.586-.73.903-1.555.842a.25.25 0 1 0-.038.498c1.048.078 1.72-.368 2.052-1.142.17-.395.223-.791.217-1.096v-.012a.25.25 0 1 0-.5.018z"/>
            <path d="M37.99 20.75a2.233 2.233 0 0 1-.891-.176c-.586-.251-.903-.73-.842-1.555a.25.25 0 1 0-.498-.038c-.078 1.048.368 1.72 1.142 2.052.395.17.791.223 1.096.217h.012a.25.25 0 1 0-.018-.5z"/>
            <path d="M36.25 22.99c-.004-.243.04-.574.176-.891.251-.586.73-.903 1.555-.842a.25.25 0 0 0 .038-.498c-1.048-.078-1.72.368-2.052 1.142-.17.395-.223.791-.217 1.096v.012a.25.25 0 1 0 .5-.018z"/>
            <path d="M34.01 21.25c.243-.004.574.04.891.176.586.251.903.73.842 1.555a.25.25 0 0 0 .498.038c.078-1.048-.368-1.72-1.142-2.052a2.704 2.704 0 0 0-1.096-.217h-.012a.25.25 0 0 0 .018.5z"/>
        </g>
        <g fill="#00A89F" fill-rule="nonzero">
            <path d="M7.75 22.01c.004.243-.04.574-.176.891-.251.586-.73.903-1.555.842a.25.25 0 1 0-.038.498c1.048.078 1.72-.368 2.052-1.142.17-.395.223-.791.217-1.096v-.012a.25.25 0 1 0-.5.018z"/>
            <path d="M9.99 23.75a2.233 2.233 0 0 1-.891-.176c-.586-.251-.903-.73-.842-1.555a.25.25 0 1 0-.498-.038c-.078 1.048.368 1.72 1.142 2.052.395.17.791.223 1.096.217h.012a.25.25 0 1 0-.018-.5z"/>
            <path d="M8.25 25.99c-.004-.243.04-.574.176-.891.251-.586.73-.903 1.555-.842a.25.25 0 0 0 .038-.498c-1.048-.078-1.72.368-2.052 1.142-.17.395-.223.791-.217 1.096v.012a.25.25 0 1 0 .5-.018z"/>
            <path d="M6.01 24.25c.243-.004.574.04.891.176.586.251.903.73.842 1.555a.25.25 0 0 0 .498.038c.078-1.048-.368-1.72-1.142-2.052a2.704 2.704 0 0 0-1.096-.217h-.012a.25.25 0 0 0 .018.5z"/>
        </g>
        <g fill="#00A89F" fill-rule="nonzero">
            <path d="M2.75 10.01c.004.243-.04.574-.176.891-.251.586-.73.903-1.555.842a.25.25 0 1 0-.038.498c1.048.078 1.72-.368 2.052-1.142.17-.395.223-.791.217-1.096v-.012a.25.25 0 1 0-.5.018z"/>
            <path d="M4.99 11.75a2.233 2.233 0 0 1-.891-.176c-.586-.251-.903-.73-.842-1.555a.25.25 0 1 0-.498-.038c-.078 1.048.368 1.72 1.142 2.052.395.17.791.223 1.096.217h.012a.25.25 0 1 0-.018-.5z"/>
            <path d="M3.25 13.99c-.004-.243.04-.574.176-.891.251-.586.73-.903 1.555-.842a.25.25 0 0 0 .038-.498c-1.048-.078-1.72.368-2.052 1.142-.17.395-.223.791-.217 1.096v.012a.25.25 0 1 0 .5-.018z"/>
            <path d="M1.01 12.25c.243-.004.574.04.891.176.586.251.903.73.842 1.555a.25.25 0 0 0 .498.038c.078-1.048-.368-1.72-1.142-2.052a2.704 2.704 0 0 0-1.096-.217H.991a.25.25 0 0 0 .018.5z"/>
        </g>
    </g>
</svg>
