<svg xmlns="http://www.w3.org/2000/svg">
    <g fill="none" fill-rule="evenodd">
        <g fill="#3F4953">
            <path d="M35.817 16.497h-3.973l5.022-11.05a1.152 1.152 0 1 0-2.098-.953l-5.456 12.003h-1.356L30.038 4.01a1.153 1.153 0 1 0-2.275-.379L25.62 16.497H8.153c-.636 0-1.153.517-1.153 1.153v1.153c0 5.721 4.653 10.374 10.374 10.374h9.221c5.722 0 10.375-4.653 10.375-10.374V17.65c0-.636-.517-1.153-1.153-1.153zm-9.222 10.374h-9.22c-4.45 0-8.07-3.619-8.07-8.068h25.359c0 4.45-3.62 8.068-8.069 8.068z"/>
            <path d="M11.626 13.694c.636 0 1.153-.516 1.153-1.152v-2.305a1.153 1.153 0 0 0-2.306 0v2.305c0 .636.517 1.152 1.153 1.152zM16.237 13.694c.635 0 1.152-.516 1.152-1.152v-4.61a1.154 1.154 0 0 0-2.305 0v4.61c0 .636.517 1.152 1.153 1.152zM20.847 13.694c.636 0 1.153-.516 1.153-1.152v-2.305a1.153 1.153 0 0 0-2.306 0v2.305c0 .636.517 1.152 1.153 1.152z"/>
        </g>
        <g fill="#00A89F" fill-rule="nonzero">
            <path d="M6.75 1.01A3.47 3.47 0 0 1 6.476 2.4c-.397.926-1.163 1.434-2.457 1.338a.25.25 0 1 0-.038.498c1.516.113 2.476-.524 2.954-1.638.246-.573.323-1.151.315-1.592V.991a.25.25 0 0 0-.5.018z"/>
            <path d="M9.99 3.75A3.47 3.47 0 0 1 8.6 3.476c-.926-.397-1.434-1.163-1.338-2.457A.25.25 0 1 0 6.763.98C6.65 2.497 7.287 3.457 8.4 3.935c.573.246 1.151.323 1.592.315h.016a.25.25 0 0 0-.018-.5z"/>
            <path d="M7.25 6.99A3.47 3.47 0 0 1 7.524 5.6c.397-.926 1.163-1.434 2.457-1.338a.25.25 0 0 0 .038-.498C8.503 3.65 7.543 4.287 7.065 5.4A3.938 3.938 0 0 0 6.75 7.01a.25.25 0 0 0 .5-.018z"/>
            <path d="M4.01 4.25a3.47 3.47 0 0 1 1.391.274c.926.397 1.434 1.163 1.338 2.457a.25.25 0 0 0 .498.038C7.35 5.503 6.713 4.543 5.6 4.065a3.938 3.938 0 0 0-1.592-.315h-.016a.25.25 0 0 0 .018.5z"/>
        </g>
        <g fill="#00A89F" fill-rule="nonzero">
            <path d="M37.75 11.01c.004.243-.04.574-.176.891-.251.586-.73.903-1.555.842a.25.25 0 1 0-.038.498c1.048.078 1.72-.368 2.052-1.142.17-.395.223-.791.217-1.096v-.012a.25.25 0 1 0-.5.018z"/>
            <path d="M39.99 12.75a2.233 2.233 0 0 1-.891-.176c-.586-.251-.903-.73-.842-1.555a.25.25 0 1 0-.498-.038c-.078 1.048.368 1.72 1.142 2.052.395.17.791.223 1.096.217h.012a.25.25 0 1 0-.018-.5z"/>
            <path d="M38.25 14.99c-.004-.243.04-.574.176-.891.251-.586.73-.903 1.555-.842a.25.25 0 0 0 .038-.498c-1.048-.078-1.72.368-2.052 1.142-.17.395-.223.791-.217 1.096v.012a.25.25 0 1 0 .5-.018z"/>
            <path d="M36.01 13.25c.243-.004.574.04.891.176.586.251.903.73.842 1.555a.25.25 0 0 0 .498.038c.078-1.048-.368-1.72-1.142-2.052a2.704 2.704 0 0 0-1.096-.217h-.012a.25.25 0 0 0 .018.5z"/>
        </g>
        <g fill="#00A89F" fill-rule="nonzero">
            <path d="M43.75 22.01c.004.243-.04.574-.176.891-.251.586-.73.903-1.555.842a.25.25 0 1 0-.038.498c1.048.078 1.72-.368 2.052-1.142.17-.395.223-.791.217-1.096v-.012a.25.25 0 1 0-.5.018z"/>
            <path d="M45.99 23.75a2.233 2.233 0 0 1-.891-.176c-.586-.251-.903-.73-.842-1.555a.25.25 0 1 0-.498-.038c-.078 1.048.368 1.72 1.142 2.052.395.17.791.223 1.096.217h.012a.25.25 0 1 0-.018-.5z"/>
            <path d="M44.25 25.99c-.004-.243.04-.574.176-.891.251-.586.73-.903 1.555-.842a.25.25 0 0 0 .038-.498c-1.048-.078-1.72.368-2.052 1.142-.17.395-.223.791-.217 1.096v.012a.25.25 0 1 0 .5-.018z"/>
            <path d="M42.01 24.25c.243-.004.574.04.891.176.586.251.903.73.842 1.555a.25.25 0 0 0 .498.038c.078-1.048-.368-1.72-1.142-2.052a2.704 2.704 0 0 0-1.096-.217h-.012a.25.25 0 0 0 .018.5z"/>
        </g>
        <g fill="#00A89F" fill-rule="nonzero">
            <path d="M2.75 15.01c.004.243-.04.574-.176.891-.251.586-.73.903-1.555.842a.25.25 0 1 0-.038.498c1.048.078 1.72-.368 2.052-1.142.17-.395.223-.791.217-1.096v-.012a.25.25 0 1 0-.5.018z"/>
            <path d="M4.99 16.75a2.233 2.233 0 0 1-.891-.176c-.586-.251-.903-.73-.842-1.555a.25.25 0 1 0-.498-.038c-.078 1.048.368 1.72 1.142 2.052.395.17.791.223 1.096.217h.012a.25.25 0 1 0-.018-.5z"/>
            <path d="M3.25 18.99c-.004-.243.04-.574.176-.891.251-.586.73-.903 1.555-.842a.25.25 0 0 0 .038-.498c-1.048-.078-1.72.368-2.052 1.142-.17.395-.223.791-.217 1.096v.012a.25.25 0 1 0 .5-.018z"/>
            <path d="M1.01 17.25c.243-.004.574.04.891.176.586.251.903.73.842 1.555a.25.25 0 0 0 .498.038c.078-1.048-.368-1.72-1.142-2.052a2.704 2.704 0 0 0-1.096-.217H.991a.25.25 0 0 0 .018.5z"/>
        </g>
    </g>
</svg>
