<svg xmlns="http://www.w3.org/2000/svg" viewBox="0 0 13 13">
    <path  fill-rule="nonzero" d="M8.727 12.928c-.063.023-.127.051-.192.063-.25.046-.41-.086-.41-.348-.004-.486-.004-.97.004-1.456.008-.559-.005-1.11-.42-1.571.247-.046.466-.077.681-.128 1.422-.335 2.16-1.254 2.254-2.78.048-.777-.087-1.49-.59-2.101-.037-.043-.038-.141-.021-.204.134-.505.095-1-.061-1.494-.039-.123-.103-.161-.222-.154-.417.024-.8.174-1.137.405-.325.224-.627.273-1.014.182-.85-.196-1.706-.139-2.554.063a.458.458 0 0 1-.313-.061c-.399-.24-.797-.472-1.256-.565-.355-.07-.386-.053-.48.3-.119.443-.13.888-.01 1.334.018.065 0 .17-.043.217-.941 1.077-.6 3.112.034 3.891.493.606 1.148.878 1.876 1.02.127.024.253.042.38.065-.109.29-.207.565-.318.835-.021.052-.09.096-.146.118-.714.283-1.327.075-1.735-.59-.219-.353-.499-.618-.916-.695-.013-.002-.027-.01-.039-.007l-.335.092c.063.09.107.211.191.265.354.23.584.557.736.943.24.605.703.875 1.305.928.295.024.592.004.914.004 0 .376.013.805-.006 1.232-.01.23-.235.322-.505.228a5.837 5.837 0 0 1-1.955-1.118C.352 10.01-.446 7.697.242 4.989.928 2.289 2.718.633 5.392.114c3.703-.718 7.21 2.046 7.577 5.9.29 3.037-1.454 5.88-4.242 6.914zm-3.49-3.336l-.005.014.02.003c.005 0 .01.01-.015-.017zm-1.674 1.2c.057.037.113.083.175.103.023.008.065-.045.14-.102-.104-.04-.165-.076-.23-.085-.024-.003-.057.055-.085.084zm.527.093c.009.04.086.09.13.088.045 0 .087-.06.131-.094l-.202-.186c-.026.078-.07.141-.059.192zm.647-.16c-.054.014-.1.065-.15.1l.105.133.152-.143c-.036-.033-.08-.096-.107-.09zm-1.604-.223c.03.058.077.109.14.191.043-.07.089-.125.08-.136a.717.717 0 0 0-.148-.139c-.003-.003-.078.07-.072.084z"/>
</svg>
