<svg xmlns="http://www.w3.org/2000/svg" width="18" height="18" viewBox="0 0 18 18">
    <path d="M6.192 17.097V10.35a.45.45 0 0 1 .45-.45h4.715a.45.45 0 0 1 .45.45v6.747h3.183V7.33L9 1.094 3.011 7.33v9.768h3.181zm.9 0h3.815V10.8H7.092v6.297zM14.73 5.76l3.137 3.266a.45.45 0 1 1-.649.623L15.89 8.266v9.281a.452.452 0 0 1-.451.45H2.56a.45.45 0 0 1-.45-.45V8.266L.781 9.65a.451.451 0 0 1-.649-.624L8.676.132a.464.464 0 0 1 .648 0l1.922 2.001v-.64a.45.45 0 0 1 .45-.45h2.584a.45.45 0 0 1 .45.45V5.76zm-.9-.937v-2.88h-1.684V3.07l1.684 1.753z"/>
</svg>
