<svg xmlns="http://www.w3.org/2000/svg" viewBox="0 0 14 10">
    <path d="M4.343 0a.418.418 0 0 0-.216.085L.35 2.79a.416.416 0 0 0 0 .67l3.777 2.706v.001a.42.42 0 0 0 .697-.398.42.42 0 0 0-.212-.273L1.884 3.546h7.31c.847 0 1.64.25 2.21.729.568.477.937 1.174.937 2.186 0 1.024-.326 1.655-.833 2.075-.507.42-1.242.63-2.104.63a.422.422 0 0 0-.426.417c0 .112.045.219.125.297.08.078.189.122.3.12.998 0 1.936-.243 2.643-.827.706-.583 1.134-1.503 1.134-2.712 0-1.222-.483-2.195-1.232-2.824-.75-.629-1.741-.923-2.754-.923h-7.31L4.613.756V.755a.413.413 0 0 0 .151-.478.418.418 0 0 0-.42-.276V0z"/>
</svg>
