<svg xmlns="http://www.w3.org/2000/svg" width="30" height="30" viewBox="0 0 30 30">
    <g fill="none" fill-rule="evenodd">
        <g stroke="#E6E6E6" stroke-linecap="round" stroke-linejoin="round" stroke-width=".6" opacity=".5">
            <path d="M24.064 15.119s.074 2.055-1.851 1.907M25.98 17.033s-2.056.074-1.908-1.852M24.065 18.949s-.074-2.056 1.852-1.907M22.15 17.034s2.055-.074 1.906 1.852"/>
        </g>
        <g stroke="#E6E6E6" stroke-linecap="round" stroke-linejoin="round" stroke-width=".5" opacity=".5">
            <path d="M3.548 2.09s.056 1.54-1.389 1.43M4.984 3.525s-1.541.055-1.43-1.389M3.549 4.962s-.056-1.542 1.389-1.43M2.112 3.525s1.542-.055 1.43 1.39"/>
        </g>
        <g stroke="#E6E6E6" stroke-linecap="round" stroke-linejoin="round" stroke-width=".5" opacity=".5">
            <path d="M8.548 18.09s.056 1.54-1.388 1.43M9.984 19.525s-1.541.055-1.43-1.389M8.549 20.962s-.056-1.542 1.389-1.43M7.112 19.525s1.542-.055 1.43 1.39"/>
        </g>
        <g stroke="#E6E6E6" stroke-linecap="round" stroke-linejoin="round" stroke-width=".5" opacity=".5">
            <path d="M18.548 5.09s.056 1.54-1.388 1.43M19.984 6.525s-1.541.055-1.43-1.389M18.549 7.962s-.056-1.542 1.389-1.43M17.112 6.525s1.542-.055 1.43 1.39"/>
        </g>
        <g stroke="#E6E6E6" stroke-linecap="round" stroke-linejoin="round" stroke-width=".5" opacity=".5">
            <path d="M26.032 3.06s.037 1.027-.926.953M26.99 4.016s-1.028.037-.954-.925M26.033 4.974s-.037-1.027.925-.953M25.075 4.017s1.027-.037.953.926"/>
        </g>
        <g stroke="#E6E6E6" stroke-linecap="round" stroke-linejoin="round" stroke-width=".5" opacity=".5">
            <path d="M4.032 13.06s.037 1.027-.926.953M4.99 14.016s-1.028.037-.954-.925M4.033 14.974s-.037-1.027.925-.953M3.075 14.017s1.027-.037.953.926"/>
        </g>
        <rect width="11" height="1" x="9.5" y="27.5" fill="#E6E6E6" stroke="#E6E6E6" rx=".5"/>
        <rect width="5" height="1" x="12.5" y="29.5" fill="#E6E6E6" stroke="#E6E6E6" rx=".5"/>
        <path fill="#E6E6E6" d="M14.082 19.798a2.48 2.48 0 0 1 .046-1.072c.092-.323.224-.622.396-.899.172-.277.365-.53.58-.76l.617-.666c.197-.214.36-.421.488-.623.13-.202.194-.412.194-.631 0-.357-.114-.628-.341-.813-.227-.184-.525-.276-.894-.276-.343 0-.647.075-.911.224a4.02 4.02 0 0 0-.765.571L12 13.573c.43-.472.943-.853 1.538-1.14a4.487 4.487 0 0 1 1.98-.433c.492 0 .95.058 1.373.173.423.115.792.294 1.105.536.313.242.559.55.737.925.178.375.267.816.267 1.323 0 .357-.068.677-.203.96a3.726 3.726 0 0 1-.506.786c-.203.242-.418.476-.645.7a7.553 7.553 0 0 0-.626.7c-.19.243-.341.5-.452.77-.11.271-.147.58-.11.925h-2.376zM15.26 24c-.467 0-.854-.153-1.161-.458a1.535 1.535 0 0 1-.46-1.133c0-.46.153-.844.46-1.15.307-.305.694-.458 1.16-.458.467 0 .857.153 1.17.458.313.306.47.69.47 1.15 0 .45-.157.827-.47 1.133-.313.305-.703.458-1.17.458z"/>
    </g>
</svg>
