<svg xmlns="http://www.w3.org/2000/svg" width="18" height="19" viewBox="0 0 18 19">
    <g >
        <path d="M2.5 7C1.12 7 0 8.12 0 9.5S1.12 12 2.5 12 5 10.88 5 9.5 3.877 7 2.5 7zm0 4C1.673 11 1 10.327 1 9.5S1.673 8 2.5 8a1.501 1.501 0 0 1 0 3zM2.5 14C1.12 14 0 15.12 0 16.5S1.12 19 2.5 19 5 17.88 5 16.5 3.877 14 2.5 14zm0 4c-.827 0-1.5-.673-1.5-1.5S1.673 15 2.5 15a1.501 1.501 0 0 1 0 3zM2.5 0C1.12 0 0 1.12 0 2.5S1.12 5 2.5 5 5 3.88 5 2.5 3.877 0 2.5 0zm0 4C1.673 4 1 3.327 1 2.5S1.673 1 2.5 1a1.501 1.501 0 0 1 0 3zM7 3.5h10.036V2H7zM7 10.5h10.036V9H7zM7 17.5h10.036V16H7z"/>
    </g>
</svg>
