<svg xmlns="http://www.w3.org/2000/svg" width="12" height="17" viewBox="0 0 12 17">
    <g fill="#000" fill-rule="evenodd">
        <path fill-rule="nonzero" d="M6.998 16.242l.103-.15 3.945-7.334A5.75 5.75 0 0 0 11.75 6C11.75 2.83 9.17.25 6 .25S.25 2.83.25 6c0 .96.243 1.914.704 2.755l3.933 7.314.107.158A1.24 1.24 0 0 0 6 16.748h.065c.37-.02.714-.206.933-.506zM6 1.748a4.253 4.253 0 0 1 4.25 4.25c0 .712-.18 1.415-.523 2.042L6 14.971l-.22-.41-3.507-6.52A4.253 4.253 0 0 1 6 1.749z"/>
        <circle cx="6" cy="6" r="2"/>
    </g>
</svg>
