<svg xmlns="http://www.w3.org/2000/svg" width="18" height="16" viewBox="0 0 18 16">
    <path fill-rule="evenodd" d="M11.875.004c.03.004.058.011.087.02l5.6 1.64c.26.075.44.32.438.596v13.127a.603.603 0 0 1-.762.59L11.8 14.38l-5.438 1.596a.58.58 0 0 1-.324 0l-5.6-1.641a.614.614 0 0 1-.438-.59V.62A.603.603 0 0 1 .762.023L6.2 1.62 11.638.023a.595.595 0 0 1 .237-.019zm.5 1.45v11.808l4.5 1.283v-11.8l-4.5-1.29zm-1.125 0l-4.5 1.318v12.064l4.5-1.317V1.455zm-10.125 0v11.802l4.5 1.29V2.737l-4.5-1.283z"/>
</svg>
