<svg xmlns="http://www.w3.org/2000/svg" width="18" height="16" viewBox="0 0 18 16">
    <g fill="#000" fill-rule="evenodd">
        <path d="M17.29 8.298h-2.384l3.013-6.63a.691.691 0 1 0-1.258-.571l-3.274 7.201h-.814l1.25-7.493a.69.69 0 1 0-1.365-.227l-1.286 7.72H.692A.692.692 0 0 0 0 8.99v.692a6.23 6.23 0 0 0 6.224 6.224h5.533a6.23 6.23 0 0 0 6.225-6.224V8.99a.692.692 0 0 0-.692-.692zm-5.533 6.225H6.224a4.846 4.846 0 0 1-4.84-4.841h15.214a4.846 4.846 0 0 1-4.84 4.84z"/>
        <path d="M2.776 6.617c.381 0 .691-.31.691-.692V4.542a.692.692 0 0 0-1.383 0v1.383c0 .382.31.692.692.692zM5.542 6.617c.381 0 .692-.31.692-.692V3.16a.692.692 0 0 0-1.383 0v2.766c0 .382.31.692.69.692zM8.308 6.617c.382 0 .692-.31.692-.692V4.542a.692.692 0 0 0-1.383 0v1.383c0 .382.31.692.691.692z"/>
    </g>
</svg>
