<svg xmlns="http://www.w3.org/2000/svg" width="39" height="30" viewBox="0 0 39 30">
    <g fill="none" fill-rule="evenodd">
        <path fill="#3F4953" d="M10.22 3.556v3.203L7.23 10.065a.904.904 0 0 0-.229.602v17.777c0 .466.419.89.878.89h19.91c.46 0 .879-.424.879-.89V10.667a.91.91 0 0 0-.23-.602l-2.991-3.306V3.556c0-.466-.419-.89-.879-.89H11.1c-.48.02-.87.515-.878.89zm1.691.85h11.845v1.739H11.91v-1.74zm-.396 3.768h11.663l-1.035 1.739H9.889l1.626-1.74zm13.201.58l1.062 1.159h-1.734l.672-1.16zM8.733 11.652h13v15.942h-13V11.652zm14.734 0h3.466v15.942h-3.466V11.652z"/>
        <g fill="#00A89F" fill-rule="nonzero">
            <path d="M34.75 1.01a3.47 3.47 0 0 1-.274 1.391c-.397.926-1.163 1.434-2.457 1.338a.25.25 0 1 0-.038.498c1.516.113 2.476-.524 2.954-1.638.246-.573.323-1.151.315-1.592V.991a.25.25 0 0 0-.5.018z"/>
            <path d="M37.99 3.75a3.47 3.47 0 0 1-1.391-.274c-.926-.397-1.434-1.163-1.338-2.457a.25.25 0 1 0-.498-.038c-.113 1.516.524 2.476 1.638 2.954.573.246 1.151.323 1.592.315h.016a.25.25 0 0 0-.018-.5z"/>
            <path d="M35.25 6.99a3.47 3.47 0 0 1 .274-1.391c.397-.926 1.163-1.434 2.457-1.338a.25.25 0 0 0 .038-.498c-1.516-.113-2.476.524-2.954 1.638a3.938 3.938 0 0 0-.314 1.608.25.25 0 0 0 .5-.018z"/>
            <path d="M32.01 4.25a3.47 3.47 0 0 1 1.391.274c.926.397 1.434 1.163 1.338 2.457a.25.25 0 0 0 .498.038c.113-1.516-.524-2.476-1.638-2.954a3.938 3.938 0 0 0-1.592-.315h-.016a.25.25 0 0 0 .018.5z"/>
        </g>
        <g fill="#00A89F" fill-rule="nonzero">
            <path d="M32.75 13.01c.004.243-.04.574-.176.891-.251.586-.73.903-1.555.842a.25.25 0 1 0-.038.498c1.048.078 1.72-.368 2.052-1.142.17-.395.223-.791.217-1.096v-.012a.25.25 0 1 0-.5.018z"/>
            <path d="M34.99 14.75a2.233 2.233 0 0 1-.891-.176c-.586-.251-.903-.73-.842-1.555a.25.25 0 1 0-.498-.038c-.078 1.048.368 1.72 1.142 2.052.395.17.791.223 1.096.217h.012a.25.25 0 1 0-.018-.5z"/>
            <path d="M33.25 16.99c-.004-.243.04-.574.176-.891.251-.586.73-.903 1.555-.842a.25.25 0 0 0 .038-.498c-1.048-.078-1.72.368-2.052 1.142-.17.395-.223.791-.217 1.096v.012a.25.25 0 1 0 .5-.018z"/>
            <path d="M31.01 15.25c.243-.004.574.04.891.176.586.251.903.73.842 1.555a.25.25 0 0 0 .498.038c.078-1.048-.368-1.72-1.142-2.052a2.704 2.704 0 0 0-1.096-.217h-.012a.25.25 0 0 0 .018.5z"/>
        </g>
        <g fill="#00A89F" fill-rule="nonzero">
            <path d="M2.75 25.01c.004.243-.04.574-.176.891-.251.586-.73.903-1.555.842a.25.25 0 1 0-.038.498c1.048.078 1.72-.368 2.052-1.142.17-.395.223-.791.217-1.096v-.012a.25.25 0 1 0-.5.018z"/>
            <path d="M4.99 26.75a2.233 2.233 0 0 1-.891-.176c-.586-.251-.903-.73-.842-1.555a.25.25 0 1 0-.498-.038c-.078 1.048.368 1.72 1.142 2.052.395.17.791.223 1.096.217h.012a.25.25 0 1 0-.018-.5z"/>
            <path d="M3.25 28.99c-.004-.243.04-.574.176-.891.251-.586.73-.903 1.555-.842a.25.25 0 0 0 .038-.498c-1.048-.078-1.72.368-2.052 1.142-.17.395-.223.791-.217 1.096v.012a.25.25 0 1 0 .5-.018z"/>
            <path d="M1.01 27.25c.243-.004.574.04.891.176.586.251.903.73.842 1.555a.25.25 0 0 0 .498.038c.078-1.048-.368-1.72-1.142-2.052a2.704 2.704 0 0 0-1.096-.217H.991a.25.25 0 0 0 .018.5z"/>
        </g>
        <g fill="#00A89F" fill-rule="nonzero">
            <path d="M5.25 6.01c.003.173-.029.413-.127.641-.178.416-.513.638-1.104.594a.25.25 0 1 0-.038.498c.814.06 1.342-.29 1.602-.894.13-.306.171-.611.167-.848v-.01a.25.25 0 1 0-.5.018z"/>
            <path d="M6.99 7.25a1.614 1.614 0 0 1-.641-.127c-.416-.178-.638-.513-.594-1.104a.25.25 0 1 0-.498-.038c-.06.814.29 1.342.894 1.602.306.13.611.171.848.167h.01a.25.25 0 1 0-.018-.5z"/>
            <path d="M5.75 8.99a1.614 1.614 0 0 1 .127-.641c.178-.416.513-.638 1.104-.594a.25.25 0 0 0 .038-.498c-.814-.06-1.342.29-1.602.894-.13.306-.171.611-.167.848v.01a.25.25 0 1 0 .5-.018z"/>
            <path d="M4.01 7.75c.173-.003.413.029.641.127.416.178.638.513.594 1.104a.25.25 0 0 0 .498.038c.06-.814-.29-1.342-.894-1.602A2.088 2.088 0 0 0 4 7.25h-.01a.25.25 0 1 0 .018.5z"/>
        </g>
    </g>
</svg>
