<svg xmlns="http://www.w3.org/2000/svg" width="12" height="18" viewBox="0 0 12 18">
    <g fill="#000" fill-rule="evenodd">
        <path d="M11.74.763a.565.565 0 0 0-.686-.548C9.215.606 7.826 2.622 7.826 5.048c0 1.742.723 3.267 1.8 4.128a.41.41 0 0 1 .157.313v7.337c0 .548.43.978.978.978s.978-.43.978-.978V.763zM4.696.783v4.754a.525.525 0 0 1-.528.528.518.518 0 0 1-.528-.548V.783a.577.577 0 0 0-.587-.587h-.196a.577.577 0 0 0-.587.587v4.754a.525.525 0 0 1-.527.528.525.525 0 0 1-.528-.528L1.174.783A.577.577 0 0 0 .587.196.577.577 0 0 0 0 .783v4.304c0 1.193.704 2.211 1.722 2.68.137.06.235.196.235.353v8.706c0 .548.43.978.978.978s.978-.43.978-.978V8.12c0-.157.098-.294.234-.353 1-.469 1.723-1.487 1.723-2.68V.783a.577.577 0 0 0-.587-.587.577.577 0 0 0-.587.587z"/>
    </g>
</svg>
