<svg xmlns="http://www.w3.org/2000/svg" width="13" height="16" viewBox="0 0 13 16">
    <path fill="#000" fill-rule="evenodd" d="M1.932.533v1.922L.137 4.44a.542.542 0 0 0-.137.36v10.668c0 .279.251.533.527.533h11.946a.551.551 0 0 0 .527-.533V4.8a.546.546 0 0 0-.137-.361l-1.795-1.984V.533A.551.551 0 0 0 10.54 0H2.46c-.288.012-.522.308-.528.533zm1.015.51h7.106v1.044H2.947V1.043zm-.238 2.261h6.998l-.621 1.044H1.733l.976-1.044zm7.92.348l.638.696h-1.04l.403-.696zM1.04 5.392h7.8v9.565h-7.8V5.39zm8.84 0h2.08v9.565H9.88V5.39z"/>
</svg>
