<svg xmlns="http://www.w3.org/2000/svg" width="18" height="18" viewBox="0 0 18 18">
    <g fill="#000" fill-rule="evenodd">
        <path d="M3.33 17.763a.828.828 0 0 1-.67-.347l-.062-.09-2.19-4.073A3.333 3.333 0 0 1 0 11.658a3.335 3.335 0 0 1 3.33-3.33 3.335 3.335 0 0 1 2.923 4.928l-2.189 4.07L4 17.42a.828.828 0 0 1-.67.343zm0-8.326a2.222 2.222 0 0 0-1.948 3.285l.002.004 1.946 3.619 1.947-3.62A2.222 2.222 0 0 0 3.33 9.437zm11.103 0a.832.832 0 0 1-.673-.348l-.061-.09-2.19-4.072A3.335 3.335 0 0 1 14.433 0a3.334 3.334 0 0 1 2.922 4.928l-2.18 4.054-.046.072a.83.83 0 0 1-.696.383zm0-8.327a2.222 2.222 0 0 0-1.95 3.286l.002.003 1.947 3.62 1.946-3.62a2.222 2.222 0 0 0-1.946-3.288zm-2.776 8.327h-.555a.555.555 0 1 1 0-1.11h.555a.555.555 0 1 1 0 1.11zm-2.775 0h-1.11a.556.556 0 0 1 0-1.11h1.11a.556.556 0 0 1 0 1.11zm-2.22 8.326h-.556a.555.555 0 1 1 0-1.11h.555a.555.555 0 1 1 0 1.11zm6.418 0h-1.07a.554.554 0 1 1 0-1.11h1.07a.554.554 0 1 1 0 1.11zm-3.21 0H8.802a.555.555 0 1 1 0-1.11h1.07a.554.554 0 1 1 0 1.11zm5.35-.012a.555.555 0 0 1-.057-1.107c.266-.027.524-.12.746-.268a.555.555 0 1 1 .616.923 2.776 2.776 0 0 1-1.247.45l-.059.001v.001zm1.988-2.161l-.02-.001a.555.555 0 0 1-.535-.574l.554.019-.554-.046c0-.26-.057-.51-.173-.741a.554.554 0 1 1 .994-.494c.193.387.29.802.29 1.235v.065a.555.555 0 0 1-.555.537h-.001zm-1.895-2.243l-.082-.007a1.925 1.925 0 0 0-.24-.018h-.747a.554.554 0 1 1 0-1.11h.744c.135 0 .273.01.406.03a.555.555 0 0 1-.082 1.104h.001zm-3.21-.024h-1.069a.554.554 0 1 1 0-1.11h1.07a.554.554 0 1 1 0 1.11zm-3.221 0h-.556a.555.555 0 1 1 0-1.11h.556a.555.555 0 1 1 0 1.11z"/>
        <path d="M4.44 11.657c0 1.48-2.22 1.48-2.22 0s2.22-1.48 2.22 0M15.543 3.33c0 1.48-2.22 1.48-2.22 0s2.22-1.48 2.22 0"/>
    </g>
</svg>
