<svg xmlns="http://www.w3.org/2000/svg" width="39" height="26" viewBox="0 0 39 26">
    <g fill="none" fill-rule="evenodd">
        <path fill="#3F4953" d="M4.667 4v2.063H7.89c1.233 4.99 2.518 9.969 3.74 14.96h15.073A2365.92 2365.92 0 0 1 30.46 8.08H10.52L9.503 4H4.667zm10.317 17.54a2.064 2.064 0 1 0 .002 4.128 2.064 2.064 0 0 0-.002-4.128zm8.77 0a2.064 2.064 0 1 0 .001 4.128 2.064 2.064 0 0 0-.001-4.128z"/>
        <g fill="#00A89F" fill-rule="nonzero">
            <path d="M34.75 1.01a3.47 3.47 0 0 1-.274 1.391c-.397.926-1.163 1.434-2.457 1.338a.25.25 0 1 0-.038.498c1.516.113 2.476-.524 2.954-1.638.246-.573.323-1.151.315-1.592V.991a.25.25 0 0 0-.5.018z"/>
            <path d="M37.99 3.75a3.47 3.47 0 0 1-1.391-.274c-.926-.397-1.434-1.163-1.338-2.457a.25.25 0 1 0-.498-.038c-.113 1.516.524 2.476 1.638 2.954.573.246 1.151.323 1.592.315h.016a.25.25 0 0 0-.018-.5z"/>
            <path d="M35.25 6.99a3.47 3.47 0 0 1 .274-1.391c.397-.926 1.163-1.434 2.457-1.338a.25.25 0 0 0 .038-.498c-1.516-.113-2.476.524-2.954 1.638a3.938 3.938 0 0 0-.314 1.608.25.25 0 0 0 .5-.018z"/>
            <path d="M32.01 4.25a3.47 3.47 0 0 1 1.391.274c.926.397 1.434 1.163 1.338 2.457a.25.25 0 0 0 .498.038c.113-1.516-.524-2.476-1.638-2.954a3.938 3.938 0 0 0-1.592-.315h-.016a.25.25 0 0 0 .018.5z"/>
        </g>
        <g fill="#00A89F" fill-rule="nonzero">
            <path d="M32.75 13.01c.004.243-.04.574-.176.891-.251.586-.73.903-1.555.842a.25.25 0 1 0-.038.498c1.048.078 1.72-.368 2.052-1.142.17-.395.223-.791.217-1.096v-.012a.25.25 0 1 0-.5.018z"/>
            <path d="M34.99 14.75a2.233 2.233 0 0 1-.891-.176c-.586-.251-.903-.73-.842-1.555a.25.25 0 1 0-.498-.038c-.078 1.048.368 1.72 1.142 2.052.395.17.791.223 1.096.217h.012a.25.25 0 1 0-.018-.5z"/>
            <path d="M33.25 16.99c-.004-.243.04-.574.176-.891.251-.586.73-.903 1.555-.842a.25.25 0 0 0 .038-.498c-1.048-.078-1.72.368-2.052 1.142-.17.395-.223.791-.217 1.096v.012a.25.25 0 1 0 .5-.018z"/>
            <path d="M31.01 15.25c.243-.004.574.04.891.176.586.251.903.73.842 1.555a.25.25 0 0 0 .498.038c.078-1.048-.368-1.72-1.142-2.052a2.704 2.704 0 0 0-1.096-.217h-.012a.25.25 0 0 0 .018.5z"/>
        </g>
        <g fill="#00A89F" fill-rule="nonzero">
            <path d="M2.75 12.01c.004.243-.04.574-.176.891-.251.586-.73.903-1.555.842a.25.25 0 1 0-.038.498c1.048.078 1.72-.368 2.052-1.142.17-.395.223-.791.217-1.096v-.012a.25.25 0 1 0-.5.018z"/>
            <path d="M4.99 13.75a2.233 2.233 0 0 1-.891-.176c-.586-.251-.903-.73-.842-1.555a.25.25 0 1 0-.498-.038c-.078 1.048.368 1.72 1.142 2.052.395.17.791.223 1.096.217h.012a.25.25 0 1 0-.018-.5z"/>
            <path d="M3.25 15.99c-.004-.243.04-.574.176-.891.251-.586.73-.903 1.555-.842a.25.25 0 0 0 .038-.498c-1.048-.078-1.72.368-2.052 1.142-.17.395-.223.791-.217 1.096v.012a.25.25 0 1 0 .5-.018z"/>
            <path d="M1.01 14.25c.243-.004.574.04.891.176.586.251.903.73.842 1.555a.25.25 0 0 0 .498.038c.078-1.048-.368-1.72-1.142-2.052a2.704 2.704 0 0 0-1.096-.217H.991a.25.25 0 0 0 .018.5z"/>
        </g>
        <g fill="#00A89F" fill-rule="nonzero">
            <path d="M15.75 2.01c.004.243-.04.574-.176.891-.251.586-.73.903-1.555.842a.25.25 0 1 0-.038.498c1.048.078 1.72-.368 2.052-1.142.17-.395.223-.791.217-1.096v-.012a.25.25 0 1 0-.5.018z"/>
            <path d="M17.99 3.75a2.233 2.233 0 0 1-.891-.176c-.586-.251-.903-.73-.842-1.555a.25.25 0 1 0-.498-.038c-.078 1.048.368 1.72 1.142 2.052.395.17.791.223 1.096.217h.012a.25.25 0 1 0-.018-.5z"/>
            <path d="M16.25 5.99c-.004-.243.04-.574.176-.891.251-.586.73-.903 1.555-.842a.25.25 0 0 0 .038-.498c-1.048-.078-1.72.368-2.052 1.142-.17.395-.223.791-.217 1.096v.012a.25.25 0 1 0 .5-.018z"/>
            <path d="M14.01 4.25c.243-.004.574.04.891.176.586.251.903.73.842 1.555a.25.25 0 0 0 .498.038c.078-1.048-.368-1.72-1.142-2.052a2.704 2.704 0 0 0-1.096-.217h-.012a.25.25 0 0 0 .018.5z"/>
        </g>
    </g>
</svg>
