<svg xmlns="http://www.w3.org/2000/svg" width="22" height="18" viewBox="0 0 22 18">
    <g>
        <path d="M1.291 7.7C.426 8.21.004 9.228.252 10.366c.287 1.317 1.223 2.135 2.282 2.191L1.291 7.7zM2.345 6.706l-.026.007.001.003 1.33 5.199.264 1.03c.083-.007.175-.023.278-.047 1.09-.264 2.187-.506 3.272-.784l-.27-1.057-.72-2.812-.269-1.05-.347-1.356-3.222.779a2.54 2.54 0 0 0-.291.088zM15.617 4.553a.423.423 0 0 1-.262-.311c-.303-1.206-.614-2.409-.922-3.613-.099-.384-.353-.62-.69-.623-.318-.004-.535.154-.706.414-.986 1.503-2.141 2.865-3.592 3.97-.622.474-1.285.885-2.061 1.076-.108.027-.214.052-.32.08l.348 1.362.268 1.047.207.807.78 3.043c1.171-.251 2.327-.177 3.491.104 1.514.367 2.923.979 4.286 1.708.157.083.363.14.537.121.45-.047.69-.448.57-.921a449.462 449.462 0 0 0-.92-3.588.479.479 0 0 1 .086-.463c1.084-1.457.566-3.437-1.1-4.213zm.16 7.15c-1.99-.88-3.996-1.537-6.193-1.447L9.125 8.46l-.207-.807-.297-1.162c.288-.125.569-.266.842-.429 1.492-.887 2.673-2.094 3.733-3.425.054-.069.109-.135.199-.247l2.383 9.312zM21.442 5.886l-2.702.655a.498.498 0 0 1-.602-.353.483.483 0 0 1 .362-.586l2.701-.655a.498.498 0 0 1 .603.353.483.483 0 0 1-.362.586zM20.79 10.09l-2.558-1.066a.48.48 0 0 1-.262-.635c.108-.245.4-.36.652-.255L21.181 9.2a.48.48 0 0 1 .261.635.501.501 0 0 1-.652.255zM19.34 2.143l-1.591 2.222a.506.506 0 0 1-.691.12.475.475 0 0 1-.124-.672l1.59-2.222a.506.506 0 0 1 .692-.12.474.474 0 0 1 .124.672zM4.229 14.175c1.164-.283 2.303-.561 3.445-.829.077-.018.19.03.261.079.391.27.48.687.507 1.108.027.399.2.655.569.827.289.135.567.3.824.486.278.202.445.494.526.825.08.326-.075.575-.408.657-.858.213-1.717.425-2.575.635-.313.076-.496.019-.67-.227-.809-1.147-1.613-2.296-2.418-3.446-.018-.024-.03-.054-.062-.115z"/>
    </g>
</svg>
