<svg xmlns="http://www.w3.org/2000/svg" viewBox="0 0 13 11">
    <path  fill-rule="evenodd" d="M4.307 11c4.767-.124 7.37-4.285 7.37-7.9 0-.12-.003-.24-.008-.36.52-.391.973-.88 1.331-1.437-.478.22-.993.37-1.532.437.55-.343.974-.888 1.173-1.537a5.227 5.227 0 0 1-1.694.674A2.615 2.615 0 0 0 9 0C7.526 0 6.332 1.243 6.332 2.778c0 .217.024.43.069.633C4.184 3.295 2.218 2.189.903.509.673.919.54 1.396.54 1.905c0 .964.471 1.814 1.187 2.312A2.583 2.583 0 0 1 .52 3.87v.034c0 1.347.92 2.469 2.14 2.724a2.569 2.569 0 0 1-1.204.048c.339 1.104 1.324 1.907 2.492 1.929A5.218 5.218 0 0 1 0 9.755v.002A7.337 7.337 0 0 0 3.93 11h.377"/>
</svg>
