<svg xmlns="http://www.w3.org/2000/svg" width="30" height="30" viewBox="0 0 30 30">
    <g fill="none" fill-rule="evenodd">
        <path fill="#00A89F" d="M21.388 16.918a3.355 3.355 0 0 1 .055-1.364c.11-.41.268-.792.473-1.144.205-.352.436-.675.693-.968.257-.293.502-.576.737-.847s.429-.535.583-.792c.154-.257.231-.524.231-.803 0-.455-.136-.8-.407-1.034-.271-.235-.627-.352-1.067-.352-.41 0-.774.095-1.089.286-.315.19-.62.433-.913.726l-1.782-1.628a6.013 6.013 0 0 1 1.837-1.452c.711-.367 1.5-.55 2.365-.55.587 0 1.133.073 1.639.22.506.147.946.374 1.32.682.374.308.667.7.88 1.177.213.477.319 1.038.319 1.683 0 .455-.08.862-.242 1.221-.161.36-.363.693-.605 1.001-.242.308-.499.605-.77.891-.271.286-.52.583-.748.891a4.133 4.133 0 0 0-.539.979c-.132.345-.176.737-.132 1.177h-2.838zm1.408 5.346c-.557 0-1.02-.194-1.386-.583-.367-.389-.55-.869-.55-1.441 0-.587.183-1.074.55-1.463.367-.389.829-.583 1.386-.583a1.86 1.86 0 0 1 1.397.583c.374.389.561.876.561 1.463 0 .572-.187 1.052-.561 1.441a1.86 1.86 0 0 1-1.397.583z"/>
        <path fill="#00A89F" fill-rule="nonzero" d="M14 27v-2.16c0-2.189-.806-3.25-3.075-4.539a3 3 0 1 1 1.019-1.72c.816.466 1.498.927 2.056 1.42V16.84c0-2.188-.806-3.25-3.075-4.538a3 3 0 1 1 1.019-1.72c.816.466 1.498.927 2.056 1.42V6.83a3.001 3.001 0 1 1 2 0v5.192a8.75 8.75 0 0 1 1.124-.882l1.11 1.664C16.724 13.809 16 14.967 16 16.839v3.182a8.75 8.75 0 0 1 1.124-.882l1.11 1.664C16.724 21.809 16 22.967 16 24.839V27h4.5c.276 0 .5.232.5.5 0 .276-.229.5-.5.5h-11a.505.505 0 0 1-.5-.5c0-.276.229-.5.5-.5H14zm-2 2.5a.5.5 0 0 1 .491-.5h5.018a.5.5 0 0 1 0 1h-5.018a.5.5 0 0 1-.491-.5z" opacity=".1"/>
        <g stroke="#00A89F" stroke-linecap="round" stroke-linejoin="round" stroke-width=".5" opacity=".1">
            <path d="M3.548 2.09s.056 1.54-1.389 1.43M4.984 3.525s-1.541.055-1.43-1.389M3.549 4.962s-.056-1.542 1.389-1.43M2.112 3.525s1.542-.055 1.43 1.39"/>
        </g>
        <g stroke="#00A89F" stroke-linecap="round" stroke-linejoin="round" stroke-width=".5" opacity=".1">
            <path d="M24.032 2.06s.037 1.027-.926.953M24.99 3.016s-1.028.037-.954-.925M24.033 3.974s-.037-1.027.925-.953M23.075 3.017s1.027-.037.953.926"/>
        </g>
        <g stroke="#00A89F" stroke-linecap="round" stroke-linejoin="round" stroke-width=".5" opacity=".1">
            <path d="M4.032 13.06s.037 1.027-.926.953M4.99 14.016s-1.028.037-.954-.925M4.033 14.974s-.037-1.027.925-.953M3.075 14.017s1.027-.037.953.926"/>
        </g>
    </g>
</svg>
