<svg xmlns="http://www.w3.org/2000/svg" width="264" height="165" viewBox="0 0 264 165">
  <path fill="#72E1DA" fill-rule="evenodd" d="M397.0341,10.1402635 L396.214939,8.89311251 L398.861919,7.1536651 L399.679588,8.39932426 L397.0341,10.1402635 Z M389.56317,15.0721787 L388.741024,13.8280113 L392.475743,11.3575783 L393.297889,12.6032375 L389.56317,15.0721787 Z M382.095224,20.0130447 L381.273078,18.7688773 L385.004813,16.2984443 L385.829943,17.5426117 L382.095224,20.0130447 Z M374.622802,24.9449599 L373.805132,23.6978089 L377.541344,21.2363267 L378.361997,22.4804941 L374.622802,24.9449599 Z M367.127998,29.8500225 L366.314805,28.5983962 C367.565182,27.7853611 368.81556,26.9708343 370.059969,26.1548157 L370.87913,27.4019666 C369.631737,28.2194771 368.381359,29.0354957 367.127998,29.8500225 L367.127998,29.8500225 Z M359.60186,34.7088392 L358.79762,33.4512456 C360.055458,32.6486532 361.308819,31.8415854 362.560689,31.0345176 L363.369405,32.2876358 C362.116044,33.0961954 360.859698,33.904755 359.60186,34.7088392 L359.60186,34.7088392 Z M352.032451,39.5020163 L351.240148,38.2369636 C352.503954,37.4463057 353.764776,36.6511724 355.025598,35.8530554 L355.82387,37.1151245 C354.560064,37.9117496 353.29775,38.7083748 352.032451,39.5020163 L352.032451,39.5020163 Z M344.406343,44.2116522 L343.631945,42.9361569 C344.904704,42.1619088 346.17597,41.3816936 347.444253,40.5984947 L348.227604,41.8680228 C346.956337,42.6527135 345.683578,43.4329287 344.406343,44.2116522 L344.406343,44.2116522 Z M336.719059,48.8183533 L335.961073,47.5324154 C337.247261,46.7775609 338.527481,46.0152473 339.806208,45.2499501 L340.571654,46.5299208 C339.291434,47.2967098 338.006739,48.0605152 336.719059,48.8183533 L336.719059,48.8183533 Z M328.955678,53.3057099 L328.221566,52.0063457 C329.516706,51.2708847 330.810354,50.5309482 332.099526,49.7865363 L332.845575,51.0784415 C331.553419,51.8243452 330.256786,52.5672653 328.955678,53.3057099 L328.955678,53.3057099 Z M321.162454,57.7229516 L320.437295,56.4191119 C321.739896,55.6940936 323.035036,54.9601243 324.3257,54.2201879 L325.068765,55.5135849 C323.772132,56.2565049 322.471024,56.9934578 321.162454,57.7229516 L321.162454,57.7229516 Z M313.272245,61.9939961 L312.57842,60.6722548 C313.898926,59.9785643 315.213463,59.2774149 316.522032,58.5702982 L317.233763,59.8830887 C315.919225,60.593189 314.598719,61.2973221 313.272245,61.9939961 L313.272245,61.9939961 Z M305.277589,66.0681221 L304.61659,64.7314626 C305.952017,64.0691002 307.282967,63.4022623 308.607949,62.7264735 L309.286854,64.0556739 C307.955903,64.7344463 306.618984,65.4042678 305.277589,66.0681221 L305.277589,66.0681221 Z M297.18893,69.9468212 L296.559265,68.5937519 C297.911105,67.965701 299.259961,67.3301911 300.601356,66.6857303 L301.245942,68.0328324 C299.897086,68.6772932 298.546739,69.3157867 297.18893,69.9468212 L297.18893,69.9468212 Z M289.009254,73.6286018 L288.410923,72.2606145 C289.777684,71.6653833 291.138476,71.0612013 292.496285,70.4510521 L293.109537,71.8115805 C291.74576,72.4247133 290.378999,73.0303871 289.009254,73.6286018 L289.009254,73.6286018 Z M280.741544,77.1149557 L280.179023,75.7335421 C281.557721,75.1696389 282.933434,74.5997684 284.304672,74.0209472 L284.885097,75.3963936 C283.507892,75.9767067 282.12621,76.5495607 280.741544,77.1149557 L280.741544,77.1149557 Z M272.396245,80.4014073 L271.865058,79.0065674 C273.257185,78.4784676 274.646327,77.9399252 276.030993,77.3939237 L276.578593,78.7827963 C275.187958,79.3302896 273.792848,79.8703239 272.396245,80.4014073 L272.396245,80.4014073 Z M263.971864,83.4879568 L263.476488,82.0811824 C264.882044,81.5859024 266.283123,81.0816715 267.681218,80.5684898 L268.193007,81.9678051 C266.790436,82.4839704 265.383388,82.9896931 263.971864,83.4879568 L263.971864,83.4879568 Z M255.478848,86.3701287 L255.014806,84.9514198 C256.430806,84.4904514 257.843822,84.0190402 259.255346,83.5401701 L259.732817,84.9529116 C258.318309,85.4347654 256.899324,85.9061766 255.478848,86.3701287 L255.478848,86.3701287 Z M246.990307,89.2015791 L246.518805,87.7873457 C247.937789,87.3129509 249.346329,86.8325889 250.739947,86.3402925 L251.238308,87.7455751 C249.835736,88.2423469 248.418244,88.7256925 246.990307,89.2015791 L246.990307,89.2015791 Z M238.465957,91.9644063 L238.010867,90.5427139 L242.272296,89.1777101 L242.73037,90.5994026 L238.465957,91.9644063 Z M229.962495,94.7332008 L229.488008,93.3189674 C230.912961,92.8400973 232.331945,92.3731615 233.746453,91.9136849 L234.207511,93.3338855 C232.798972,93.7903786 231.381479,94.2558225 229.962495,94.7332008 L229.962495,94.7332008 Z M221.557512,97.7272582 L221.027818,96.3324183 C222.433373,95.7968595 223.840421,95.2821859 225.242992,94.7824305 L225.744337,96.1892048 C224.350718,96.6844849 222.955607,97.194683 221.557512,97.7272582 L221.557512,97.7272582 Z M213.397233,101.259858 L212.755631,99.912756 C214.150742,99.2474099 215.527948,98.6312935 216.846962,98.0479968 L217.454245,99.4115087 C216.147168,99.99033 214.780407,100.601971 213.397233,101.259858 L213.397233,101.259858 Z M205.698012,105.577149 L204.849009,104.347899 C206.020305,103.540832 207.288588,102.7636 208.725477,101.968467 L209.447652,103.273798 C208.055525,104.043571 206.82753,104.796933 205.698012,105.577149 L205.698012,105.577149 Z M199.437173,111.530952 L198.216637,110.676146 C199.056688,109.47375 200.084743,108.305664 201.267976,107.201727 L202.285586,108.29373 C201.176958,109.326061 200.220524,110.41508 199.437173,111.530952 L199.437173,111.530952 Z M195.982968,119.264481 L194.502807,119.08994 C194.681859,117.559345 195.116059,116.040686 195.788995,114.580206 L197.143819,115.205273 C196.536536,116.524031 196.145606,117.890527 195.982968,119.264481 L195.982968,119.264481 Z M196.157543,128.179522 C195.468194,126.701141 194.977294,125.216793 194.695288,123.771231 L196.160527,123.486296 C196.41866,124.812513 196.87375,126.1805 197.509383,127.54998 L196.157543,128.179522 Z M201.323183,135.723592 C200.259318,134.545064 199.2999,133.344159 198.470294,132.156681 L199.693813,131.303367 C200.487609,132.438632 201.408233,133.590308 202.430319,134.724081 L201.323183,135.723592 Z M208.00181,141.869839 C206.785751,140.921049 205.620423,139.937948 204.534176,138.944404 L205.542834,137.844942 C206.597747,138.810142 207.734725,139.769374 208.91945,140.694294 L208.00181,141.869839 Z M215.433946,146.962869 L214.577482,146.385539 C213.656858,145.835063 212.667598,145.207012 211.6664,144.531223 L212.501975,143.294515 C213.479298,143.955385 214.446177,144.568518 215.38023,145.129438 L216.259075,145.720193 L215.433946,146.962869 Z M223.180914,151.571062 C221.854439,150.866929 220.532441,150.124009 219.252222,149.363187 L220.0117,148.081724 C221.272522,148.82912 222.575122,149.560106 223.880707,150.252304 L223.180914,151.571062 Z M231.326272,155.425892 C229.94459,154.842595 228.573353,154.232446 227.21256,153.587985 L227.849686,152.239392 C229.191081,152.874902 230.544413,153.4761 231.906698,154.050446 L231.326272,155.425892 Z M239.753636,158.600458 C238.330176,158.120096 236.914176,157.618849 235.511604,157.090749 L236.036822,155.694417 C237.424473,156.21655 238.822568,156.71183 240.228123,157.184733 L239.753636,158.600458 Z M248.364529,161.203662 C246.915702,160.809825 245.472845,160.398086 244.040431,159.965462 L244.471647,158.537802 C245.892124,158.967443 247.320061,159.373214 248.755458,159.764068 L248.364529,161.203662 Z M257.087328,163.363799 C255.625073,163.032618 254.165802,162.689502 252.715484,162.331469 L253.075079,160.882924 C254.514953,161.237974 255.962287,161.579598 257.417082,161.909287 L257.087328,163.363799 Z M265.865336,165.221099 C264.394128,164.930197 262.928889,164.630344 261.469618,164.323031 L261.778482,162.862552 C263.231784,163.169864 264.692547,163.466734 266.156295,163.759128 L265.865336,165.221099 Z M274.628422,167.057514 C273.14677,166.759153 271.668101,166.456316 270.226736,166.116184 L270.566934,164.664655 C271.993378,165.000312 273.455634,165.300165 274.922365,165.594051 L274.628422,167.057514 Z M283.30049,169.008798 C282.059066,168.652256 280.693797,168.315108 279.004743,167.949615 L279.319575,166.493611 C281.042947,166.865071 282.43955,167.208187 283.715293,167.575171 L283.30049,169.008798 Z M291.384672,172.314643 C290.258139,171.623937 288.879441,171.049591 287.445536,170.475245 L288.002088,169.090848 C289.49717,169.690554 290.940028,170.291753 292.165039,171.04064 L291.384672,172.314643 Z M295.432732,179.567811 L293.973461,179.26199 C294.097305,178.671235 294.159973,178.083463 294.159973,177.518068 C294.159973,177.164509 294.1361,176.810951 294.085368,176.455901 C294.077908,175.941227 294.024192,175.548882 293.919745,175.184881 L295.353651,174.770158 C295.496892,175.26693 295.570005,175.800997 295.570005,176.351474 C295.622228,176.670721 295.65207,177.094394 295.65207,177.518068 C295.65207,178.186397 295.578957,178.875612 295.432732,179.567811 L295.432732,179.567811 Z M208.686683,187.174537 C207.316937,186.277961 206.012845,185.767762 204.914661,185.696156 L205.011647,184.207332 C206.364979,184.295349 207.918253,184.89058 209.501368,185.924402 L208.686683,187.174537 Z M290.825136,187.587767 L289.735905,186.571847 C290.786342,185.445532 291.672647,184.292365 292.366472,183.148149 L293.642215,183.919413 C292.894675,185.153138 291.947193,186.388354 290.825136,187.587767 L290.825136,187.587767 Z M199.683369,191.463483 C199.623685,191.103957 199.593843,190.744432 199.593843,190.390873 C199.593843,189.516674 199.783339,188.69618 200.154871,187.951768 C200.256334,187.571358 200.442846,187.105914 200.660692,186.695667 L201.979706,187.390849 C201.808115,187.716063 201.658905,188.089015 201.538045,188.499262 C201.221721,189.155657 201.08594,189.750888 201.08594,190.390873 C201.08594,190.666858 201.109813,190.942842 201.156068,191.22181 L199.683369,191.463483 Z M214.110455,193.535603 C213.956769,193.137291 213.780702,192.741962 213.583745,192.349617 C213.215197,191.611172 212.636264,190.789186 211.911104,189.973167 L213.027193,188.982607 C213.837402,189.894102 214.492432,190.827973 214.91768,191.681287 C215.135526,192.115403 215.329499,192.553994 215.50109,192.992586 L214.110455,193.535603 Z M284.304672,193.835457 L283.340777,192.698699 C284.512073,191.703664 285.568478,190.680284 286.475673,189.658396 L287.591762,190.648956 C286.636819,191.724549 285.531176,192.795667 284.304672,193.835457 L284.304672,193.835457 Z M276.89641,199.056783 L276.122011,197.782779 C277.508169,196.939908 278.724229,196.152234 279.841809,195.375002 L280.693797,196.598284 C279.55085,197.393417 278.309426,198.198993 276.89641,199.056783 L276.89641,199.056783 Z M204.687862,199.265636 C204.182041,198.773339 203.700094,198.260157 203.239036,197.721615 C202.6795,197.166663 202.125932,196.514743 201.632047,195.822544 L202.846614,194.957296 C203.285291,195.570429 203.798572,196.176102 204.334235,196.708678 C204.804246,197.254679 205.257843,197.736533 205.730838,198.200485 L204.687862,199.265636 Z M89.9754368,200.72164 L89.2458014,199.419292 C90.7632641,198.568962 92.2852032,198.075173 93.7668556,197.951353 L93.8906996,199.437193 C92.6224171,199.543112 91.3063875,199.974244 89.9754368,200.72164 L89.9754368,200.72164 Z M216.127771,202.219414 L214.669992,201.901659 C214.919172,200.751476 215.046,199.617702 215.044508,198.527191 C215.044508,198.239272 215.035556,197.951353 215.019143,197.663434 L216.508256,197.570942 C216.527653,197.890189 216.536605,198.206452 216.536605,198.525699 C216.538097,199.722129 216.400825,200.964804 216.127771,202.219414 L216.127771,202.219414 Z M101.24077,202.675907 C100.526055,201.94343 99.7650859,201.333281 98.9757666,200.860378 C98.5788687,200.596328 98.2103208,200.382999 97.8417728,200.203982 L98.4982955,198.864339 C98.9220511,199.071701 99.3472988,199.317849 99.7725464,199.5998 C100.640947,200.120441 101.504871,200.811148 102.307619,201.631642 L101.24077,202.675907 Z M269.021121,203.484467 L268.397424,202.129906 L269.137505,201.785298 C270.159591,201.215428 271.223456,200.626164 272.276877,200.027949 L273.010989,201.327313 C271.954584,201.925528 270.887735,202.517776 269.820885,203.111515 L269.021121,203.484467 Z M212.143872,204.542158 C210.730856,203.80073 209.414826,203.007088 208.234577,202.183611 L209.088057,200.960329 C210.217574,201.748003 211.479888,202.508825 212.837697,203.223401 L212.143872,204.542158 Z M60.582616,204.65106 C59.1830289,204.343748 57.7327105,204.142354 56.2689632,204.054337 L56.3584891,202.565513 C57.8998254,202.658006 59.4277328,202.86835 60.9034168,203.193564 L60.582616,204.65106 Z M47.5655608,204.736093 L47.2641572,203.277106 C48.7860963,202.962334 50.3050511,202.740055 51.779243,202.619219 L51.901595,204.106551 C50.487087,204.224403 49.027816,204.434748 47.5655608,204.736093 L47.5655608,204.736093 Z M83.6355162,206.536705 L82.4582516,205.622227 C83.4549725,204.342256 84.4875037,203.193564 85.5289875,202.211955 L86.5525661,203.297991 C85.5662899,204.228879 84.5859821,205.317898 83.6355162,206.536705 L83.6355162,206.536705 Z M260.614646,206.797771 L260.149112,205.382046 C261.545715,204.921077 262.948286,204.413863 264.318031,203.873829 L264.865631,205.261209 C263.469028,205.811686 262.039599,206.329343 260.614646,206.797771 L260.614646,206.797771 Z M39.1620699,207.360182 L38.595073,205.978769 C40.0334546,205.389505 41.468852,204.86588 42.8624707,204.428781 L43.3100999,205.850473 C41.9567678,206.27713 40.561657,206.784345 39.1620699,207.360182 L39.1620699,207.360182 Z M68.4862543,208.050889 C67.3000371,207.233379 66.0272783,206.529246 64.7037882,205.9549 L65.2991349,204.585421 C66.7106588,205.198554 68.066975,205.950424 69.3322734,206.82164 L68.4862543,208.050889 Z M220.493647,208.053873 C218.953803,207.524281 217.570629,207.002149 216.26206,206.460623 L216.833533,205.082193 C218.11226,205.611784 219.468576,206.123474 220.980071,206.644115 L220.493647,208.053873 Z M251.884386,209.120515 L251.585966,207.657052 C253.009427,207.369133 254.459745,207.029001 255.899619,206.647098 L256.283088,208.088184 C254.816357,208.479038 253.334704,208.826629 251.884386,209.120515 L251.884386,209.120515 Z M229.371625,209.990239 C227.858638,209.785861 226.356096,209.524795 224.90727,209.218974 L225.216134,207.759987 C226.630642,208.058348 228.095882,208.311955 229.573058,208.513349 L229.371625,209.990239 Z M105.749887,210.02455 C105.115746,208.523792 104.481605,207.24233 103.808669,206.105572 L105.093365,205.346242 C105.799127,206.539688 106.466094,207.882315 107.124109,209.445729 L105.749887,210.02455 Z M242.927327,210.367666 L242.816912,208.878842 C244.265738,208.771432 245.74739,208.613301 247.218598,208.407431 L247.424508,209.885812 C245.921966,210.094665 244.408979,210.257272 242.927327,210.367666 L242.927327,210.367666 Z M237.90642,210.554142 C236.570993,210.554142 235.217661,210.51088 233.87925,210.430322 L233.970268,208.941498 C235.278837,209.020564 236.602327,209.062335 237.90642,209.062335 L238.392844,209.060843 L238.406273,210.55265 L237.90642,210.554142 Z M212.446767,210.619782 L211.193406,209.80973 C212.02152,208.532743 212.727281,207.248297 213.292786,205.989211 L214.655071,206.600852 C214.05674,207.928561 213.313676,209.280138 212.446767,210.619782 L212.446767,210.619782 Z M31.2181449,211.268718 L30.481049,209.972337 C31.8299047,209.205548 33.1727921,208.492464 34.4709166,207.849495 L35.1319156,209.187646 C33.8591568,209.817189 32.5416351,210.516847 31.2181449,211.268718 L31.2181449,211.268718 Z M79.0667149,214.107627 L77.7760509,213.35874 L78.422129,213.733184 L77.8163375,213.288625 C78.3430478,212.093687 79.0637307,210.724208 79.8739394,209.386057 L81.1511746,210.157321 C80.373792,211.443259 79.682951,212.754558 79.1517644,213.949496 L79.0667149,214.107627 Z M74.5874394,214.165808 C73.7473887,212.961919 72.8118438,211.84008 71.8076625,210.830126 L72.8655593,209.778402 C73.9309167,210.84952 74.920177,212.03849 75.810959,213.311002 L74.5874394,214.165808 Z M23.6845467,215.99178 L22.8489723,214.756563 C23.3458406,214.420907 23.8471852,214.088234 24.3530062,213.764511 C25.0871179,213.275199 25.8451033,212.78141 26.6150254,212.295081 L27.4118052,213.555658 C26.6523278,214.037512 25.9047871,214.52235 25.1676912,215.013154 C24.6633624,215.338368 24.1709703,215.66209 23.6845467,215.99178 L23.6845467,215.99178 Z M206.670859,217.649178 L205.615947,216.59447 C206.67832,215.533795 207.678025,214.438808 208.589696,213.340838 L209.738611,214.294103 C208.797098,215.426385 207.764567,216.555683 206.670859,217.649178 L206.670859,217.649178 Z M109.633816,218.142966 C109.005643,216.886864 108.402836,215.632254 107.810474,214.403005 L107.668724,214.107627 L109.014596,213.460183 L109.154853,213.755561 C109.742739,214.978843 110.342562,216.227485 110.967751,217.474636 L109.633816,218.142966 Z M16.6254352,221.36527 L15.6660168,220.222546 C16.8358209,219.239445 18.0190539,218.289163 19.1843818,217.400046 L20.0900847,218.586033 C18.9441541,219.460232 17.7788263,220.395595 16.6254352,221.36527 L16.6254352,221.36527 Z M75.7244174,222.191731 L74.2905121,221.777009 C74.7247123,220.276251 75.227549,218.829198 75.7826092,217.474636 L76.8226009,217.901293 L78.13117,217.261308 C78.792169,218.611394 79.3666264,220.040545 79.8396212,221.508484 L78.4191448,221.964977 C78.0222469,220.738711 77.5537284,219.539298 77.0195577,218.396573 C76.5420866,219.597478 76.1063942,220.872974 75.7244174,222.191731 L75.7244174,222.191731 Z M199.711718,223.477669 L198.861223,222.254387 C200.034011,221.436877 201.211276,220.534333 202.360191,219.570626 L203.319609,220.711858 C202.136376,221.705402 200.921809,222.634798 199.711718,223.477669 L199.711718,223.477669 Z M114.096679,225.971971 C113.941501,225.722839 113.789307,225.470724 113.637113,225.214133 C113.023861,224.296672 112.398672,223.277767 111.748118,222.132059 L113.04475,221.393614 C113.678891,222.507995 114.286175,223.500046 114.900919,224.421983 C115.068034,224.703935 115.215751,224.9471 115.364961,225.187281 L114.096679,225.971971 Z M10.0348423,227.344434 L8.99634275,226.274808 C10.0736369,225.230543 11.167344,224.199704 12.2759722,223.191242 L13.2801535,224.296672 C12.1819701,225.293199 11.1016918,226.310612 10.0348423,227.344434 L10.0348423,227.344434 Z M192.222883,228.47224 L191.454453,227.193761 C192.716767,226.434432 193.979081,225.633331 195.204093,224.811345 L196.035191,226.049545 C194.78929,226.884957 193.507579,227.700976 192.222883,228.47224 L192.222883,228.47224 Z M80.0544832,230.630886 C80.0306096,230.48618 80.0037519,230.342967 79.9768941,230.202737 C79.8769236,228.800438 79.7157771,227.489139 79.48301,226.209169 L80.9512335,225.940643 C81.1929533,227.277303 81.3630523,228.64529 81.4525782,230.00731 C81.4719754,230.069966 81.5003253,230.229589 81.527183,230.392196 L80.0544832,230.630886 Z M73.9950768,230.845706 L72.5149165,230.65923 C72.7103812,229.106259 72.9506089,227.602517 73.2281389,226.189775 L74.6933783,226.479186 C74.4203245,227.857616 74.1860653,229.327046 73.9950768,230.845706 L73.9950768,230.845706 Z M184.27299,232.749252 L183.629896,231.40215 C184.957862,230.768132 186.291797,230.090851 187.592906,229.392686 L188.297176,230.706968 C186.978162,231.415576 185.623338,232.1033 184.27299,232.749252 L184.27299,232.749252 Z M119.880047,233.02822 C118.775895,232.010807 117.720983,230.887477 116.745151,229.694031 L117.903018,228.749717 C118.832595,229.890949 119.838268,230.960575 120.891689,231.933234 L119.880047,233.02822 Z M3.77997127,233.701025 L2.69521667,232.676154 C3.72028739,231.593101 4.75729487,230.514525 5.81071543,229.440423 L6.87607276,230.48618 C5.82862059,231.551331 4.79907359,232.625432 3.77997127,233.701025 L3.77997127,233.701025 Z M175.967977,236.265442 L175.448727,234.867619 C176.833394,234.354437 178.224028,233.802468 179.578852,233.228122 L180.16077,234.603569 C178.785057,235.185374 177.372041,235.744801 175.967977,236.265442 L175.967977,236.265442 Z M127.410661,238.191365 C126.034948,237.514085 124.705489,236.738345 123.458096,235.882048 L124.301131,234.652798 C125.491824,235.467325 126.758615,236.207262 128.068676,236.854706 L127.410661,238.191365 Z M167.377974,239.010368 L166.990029,237.570774 C168.400061,237.190363 169.832474,236.768181 171.249966,236.314672 L171.703564,237.736364 C170.265182,238.195841 168.808895,238.62399 167.377974,239.010368 L167.377974,239.010368 Z M80.8229132,239.568304 L79.3860237,239.165516 C79.7873978,237.731889 80.0544832,236.298262 80.1783272,234.906406 L81.664456,235.037685 C81.5331514,236.520541 81.2481609,238.045168 80.8229132,239.568304 L80.8229132,239.568304 Z M71.9867141,239.774173 C71.8330281,238.953679 71.7554391,238.036217 71.7554391,237.050133 C71.7554391,236.407164 71.7882652,235.758228 71.8449649,235.112275 L73.3310936,235.24057 C73.2788702,235.843261 73.2475362,236.450426 73.2475362,237.050133 C73.2475362,237.945217 73.3161727,238.768695 73.4534456,239.496697 L71.9867141,239.774173 Z M-2.29883234,240.257519 L-3.4,239.249057 C-2.39880284,238.158546 -1.3886531,237.057592 -0.366566585,235.952163 L0.72863269,236.966592 C-0.29196173,238.069037 -1.30061937,239.167007 -2.29883234,240.257519 L-2.29883234,240.257519 Z M158.567141,240.933307 L158.320945,239.462385 C159.771263,239.219221 161.237995,238.935777 162.67936,238.621006 L162.995685,240.078502 C161.531938,240.39924 160.041333,240.687159 158.567141,240.933307 L158.567141,240.933307 Z M136.040951,241.122767 C134.533933,240.809487 133.053772,240.408191 131.637772,239.930813 L132.112259,238.518071 C133.473052,238.976056 134.896512,239.360942 136.345339,239.662288 L136.040951,241.122767 Z M149.596653,241.943261 L149.511603,240.454437 C150.963414,240.372388 152.449543,240.245584 153.928211,240.078502 L154.09831,241.561358 C152.5898,241.731424 151.075321,241.85972 149.596653,241.943261 L149.596653,241.943261 Z M145.074107,242.067081 C143.522326,242.049179 141.99591,241.964146 140.538131,241.816457 L140.688833,240.333601 C142.103341,240.475323 143.583502,240.557372 145.09052,240.575274 L145.074107,242.067081 Z M76.2615723,245.381877 C75.6751782,245.381877 74.8037935,245.164073 73.9846322,244.127267 L75.1559284,243.203838 C75.949724,244.206333 76.8196167,244.060136 77.7297959,242.953215 L78.8816949,243.89902 C78.0834229,244.870187 77.17772,245.381877 76.2615723,245.381877 L76.2615723,245.381877 Z" transform="translate(0 -81)" opacity=".2"/>
</svg>
