<svg xmlns="http://www.w3.org/2000/svg" width="140" height="99" viewBox="0 0 140 99">
  <path fill="#72E1DA" fill-rule="evenodd" d="M232.4341,-146.859737 L231.614939,-148.106887 L234.261919,-149.846335 L235.079588,-148.600676 L232.4341,-146.859737 Z M224.96317,-141.927821 L224.141024,-143.171989 L227.875743,-145.642422 L228.697889,-144.396763 L224.96317,-141.927821 Z M217.495224,-136.986955 L216.673078,-138.231123 L220.404813,-140.701556 L221.229943,-139.457388 L217.495224,-136.986955 Z M210.022802,-132.05504 L209.205132,-133.302191 L212.941344,-135.763673 L213.761997,-134.519506 L210.022802,-132.05504 Z M202.527998,-127.149977 L201.714805,-128.401604 C202.965182,-129.214639 204.21556,-130.029166 205.459969,-130.845184 L206.27913,-129.598033 C205.031737,-128.780523 203.781359,-127.964504 202.527998,-127.149977 L202.527998,-127.149977 Z M195.00186,-122.291161 L194.19762,-123.548754 C195.455458,-124.351347 196.708819,-125.158415 197.960689,-125.965482 L198.769405,-124.712364 C197.516044,-123.903805 196.259698,-123.095245 195.00186,-122.291161 L195.00186,-122.291161 Z M187.432451,-117.497984 L186.640148,-118.763036 C187.903954,-119.553694 189.164776,-120.348828 190.425598,-121.146945 L191.22387,-119.884876 C189.960064,-119.08825 188.69775,-118.291625 187.432451,-117.497984 L187.432451,-117.497984 Z M179.806343,-112.788348 L179.031945,-114.063843 C180.304704,-114.838091 181.57597,-115.618306 182.844253,-116.401505 L183.627604,-115.131977 C182.356337,-114.347287 181.083578,-113.567071 179.806343,-112.788348 L179.806343,-112.788348 Z M172.119059,-108.181647 L171.361073,-109.467585 C172.647261,-110.222439 173.927481,-110.984753 175.206208,-111.75005 L175.971654,-110.470079 C174.691434,-109.70329 173.406739,-108.939485 172.119059,-108.181647 L172.119059,-108.181647 Z M164.355678,-103.69429 L163.621566,-104.993654 C164.916706,-105.729115 166.210354,-106.469052 167.499526,-107.213464 L168.245575,-105.921558 C166.953419,-105.175655 165.656786,-104.432735 164.355678,-103.69429 L164.355678,-103.69429 Z M156.562454,-99.2770484 L155.837295,-100.580888 C157.139896,-101.305906 158.435036,-102.039876 159.7257,-102.779812 L160.468765,-101.486415 C159.172132,-100.743495 157.871024,-100.006542 156.562454,-99.2770484 L156.562454,-99.2770484 Z M148.672245,-95.0060039 L147.97842,-96.3277452 C149.298926,-97.0214357 150.613463,-97.7225851 151.922032,-98.4297018 L152.633763,-97.1169113 C151.319225,-96.406811 149.998719,-95.7026779 148.672245,-95.0060039 L148.672245,-95.0060039 Z M140.677589,-90.9318779 L140.01659,-92.2685374 C141.352017,-92.9308998 142.682967,-93.5977377 144.007949,-94.2735265 L144.686854,-92.9443261 C143.355903,-92.2655537 142.018984,-91.5957322 140.677589,-90.9318779 L140.677589,-90.9318779 Z M132.58893,-87.0531788 L131.959265,-88.4062481 C133.311105,-89.034299 134.659961,-89.6698089 136.001356,-90.3142697 L136.645942,-88.9671676 C135.297086,-88.3227068 133.946739,-87.6842133 132.58893,-87.0531788 L132.58893,-87.0531788 Z M124.409254,-83.3713982 L123.810923,-84.7393855 C125.177684,-85.3346167 126.538476,-85.9387987 127.896285,-86.5489479 L128.509537,-85.1884195 C127.14576,-84.5752867 125.778999,-83.9696129 124.409254,-83.3713982 L124.409254,-83.3713982 Z M116.141544,-79.8850443 L115.579023,-81.2664579 C116.957721,-81.8303611 118.333434,-82.4002316 119.704672,-82.9790528 L120.285097,-81.6036064 C118.907892,-81.0232933 117.52621,-80.4504393 116.141544,-79.8850443 L116.141544,-79.8850443 Z M107.796245,-76.5985927 L107.265058,-77.9934326 C108.657185,-78.5215324 110.046327,-79.0600748 111.430993,-79.6060763 L111.978593,-78.2172037 C110.587958,-77.6697104 109.192848,-77.1296761 107.796245,-76.5985927 L107.796245,-76.5985927 Z M99.3718645,-73.5120432 L98.8764882,-74.9188176 C100.282044,-75.4140976 101.683123,-75.9183285 103.081218,-76.4315102 L103.593007,-75.0321949 C102.190436,-74.5160296 100.783388,-74.0103069 99.3718645,-73.5120432 L99.3718645,-73.5120432 Z M90.8788477,-70.6298713 L90.4148055,-72.0485802 C91.8308057,-72.5095486 93.2438216,-72.9809598 94.6553455,-73.4598299 L95.1328166,-72.0470884 C93.7183085,-71.5652346 92.2993242,-71.0938234 90.8788477,-70.6298713 L90.8788477,-70.6298713 Z M82.3903073,-67.7984209 L81.9188046,-69.2126543 C83.337789,-69.6870491 84.7463286,-70.1674111 86.1399473,-70.6597075 L86.6383078,-69.2544249 C85.2357365,-68.7576531 83.8182442,-68.2743075 82.3903073,-67.7984209 L82.3903073,-67.7984209 Z M73.8659565,-65.0355937 L73.4108669,-66.4572861 L77.6722963,-67.8222899 L78.1303701,-66.4005974 L73.8659565,-65.0355937 Z M65.3624951,-62.2667992 L64.8880083,-63.6810326 C66.312961,-64.1599027 67.7319453,-64.6268385 69.1464534,-65.0863151 L69.6075114,-63.6661145 C68.1989717,-63.2096214 66.7814795,-62.7441775 65.3624951,-62.2667992 L65.3624951,-62.2667992 Z M56.9575121,-59.2727418 L56.4278177,-60.6675817 C57.8333731,-61.2031405 59.2404207,-61.7178141 60.642992,-62.2175695 L61.1443366,-60.8107952 C59.7507179,-60.3155151 58.3556071,-59.805317 56.9575121,-59.2727418 L56.9575121,-59.2727418 Z M48.7972331,-55.7401419 L48.1556313,-57.087244 C49.5507421,-57.7525901 50.9279477,-58.3687065 52.2469616,-58.9520032 L52.8542451,-57.5884913 C51.547168,-57.00967 50.1804071,-56.398029 48.7972331,-55.7401419 L48.7972331,-55.7401419 Z M41.098012,-51.4228514 L40.2490088,-52.6521006 C41.420305,-53.4591684 42.6885875,-54.2364001 44.125477,-55.0315334 L44.847652,-53.726202 C43.4555254,-52.9564293 42.2275295,-52.2030666 41.098012,-51.4228514 L41.098012,-51.4228514 Z M34.8371726,-45.4690481 L33.6166371,-46.3238537 C34.4566878,-47.5262505 35.4847427,-48.6943357 36.6679757,-49.7982731 L37.6855859,-48.7062701 C36.5769578,-47.6739394 35.6205235,-46.58492 34.8371726,-45.4690481 L34.8371726,-45.4690481 Z M31.3829678,-37.7355187 L29.9028074,-37.9100601 C30.0818591,-39.4406545 30.5160593,-40.9593144 31.1889951,-42.4197938 L32.5438193,-41.7947265 C31.9365358,-40.4759688 31.5456063,-39.1094733 31.3829678,-37.7355187 L31.3829678,-37.7355187 Z M31.5575431,-28.8204778 C30.8681943,-30.2988589 30.3772943,-31.7832072 30.095288,-33.2287686 L31.5605273,-33.5137038 C31.8186601,-32.187487 32.2737497,-30.8194997 32.9093831,-29.4500205 L31.5575431,-28.8204778 Z M36.7231833,-21.2764079 C35.6593181,-22.4549357 34.6998996,-23.6558406 33.8702936,-24.8433193 L35.0938133,-25.6966331 C35.8876089,-24.5613677 36.8082328,-23.4096924 37.8303194,-22.2759188 L36.7231833,-21.2764079 Z M43.4018099,-15.1301615 C42.1857508,-16.078951 41.020423,-17.062052 39.9341763,-18.0555957 L40.9428339,-19.1550578 C41.9977466,-18.1898584 43.1347246,-17.2306263 44.3194497,-16.3057057 L43.4018099,-15.1301615 Z M50.8339456,-10.0371311 L49.9774819,-10.6144605 C49.056858,-11.1649375 48.0675976,-11.7929884 47.0664004,-12.4687771 L47.9019748,-13.7054854 C48.8792984,-13.0446148 49.8461773,-12.4314819 50.7802301,-11.8705624 L51.6590753,-11.2798066 L50.8339456,-10.0371311 Z M58.5809138,-5.4289381 C57.2544395,-6.13307119 55.9324414,-6.87599126 54.6522221,-7.63681302 L55.4116995,-8.91827556 C56.6725216,-8.17088006 57.9751224,-7.43989445 59.2807073,-6.74769583 L58.5809138,-5.4289381 Z M66.7262719,-1.57410784 C65.34459,-2.15740452 63.9733527,-2.76755374 62.6125602,-3.41201453 L63.2496856,-4.7606084 C64.5910809,-4.12509846 65.944413,-3.52390008 67.3066977,-2.94955424 L66.7262719,-1.57410784 Z M75.1536363,1.60045826 C73.7301757,1.12009628 72.3141756,0.618849005 70.9116043,0.0907491931 L71.4368225,-1.30558251 C72.8244728,-0.78344993 74.2225677,-0.288169881 75.6281232,0.184733058 L75.1536363,1.60045826 Z M83.7645287,4.20366213 C82.3157024,3.80982499 80.8728445,3.39808615 79.4404313,2.96546201 L79.8716474,1.53780235 C81.2921238,1.96744287 82.7200608,2.37321448 84.1554582,2.76406801 L83.7645287,4.20366213 Z M92.4873284,6.36379922 C91.0250732,6.03261798 89.5658023,5.68950228 88.1154839,5.33146851 L88.4750793,3.88292355 C89.914953,4.2379737 91.3622872,4.57959759 92.8170819,4.90928702 L92.4873284,6.36379922 Z M101.265336,8.2210994 C99.7941279,7.93019696 98.3288886,7.63034368 96.8696176,7.32303136 L97.1784817,5.86255194 C98.6317843,6.16986426 100.092547,6.46673392 101.556295,6.75912817 L101.265336,8.2210994 Z M110.028422,10.0575143 C108.54677,9.75915281 107.068101,9.45631591 105.626736,9.11618383 L105.966934,7.66465525 C107.393378,8.00031191 108.855634,8.30016519 110.322365,8.59405124 L110.028422,10.0575143 Z M118.70049,12.0087983 C117.459066,11.6522564 116.093797,11.3151079 114.404743,10.9496151 L114.719575,9.49361109 C116.442947,9.86507113 117.83955,10.2081868 119.115293,10.5751714 L118.70049,12.0087983 Z M126.784672,15.3146435 C125.658139,14.6239367 124.279441,14.0495908 122.845536,13.475245 L123.402088,12.0908477 C124.89717,12.6905543 126.340028,13.2917527 127.565039,14.04064 L126.784672,15.3146435 Z M130.832732,22.5678109 L129.373461,22.2619904 C129.497305,21.6712347 129.559973,21.0834626 129.559973,20.5180676 C129.559973,20.1645093 129.5361,19.8109509 129.485368,19.4559008 C129.477908,18.9412272 129.424192,18.5488819 129.319745,18.1848809 L130.753651,17.7701584 C130.896892,18.2669303 130.970005,18.8009973 130.970005,19.3514742 C131.022228,19.670721 131.05207,20.0943943 131.05207,20.5180676 C131.05207,21.1863973 130.978957,21.8756123 130.832732,22.5678109 L130.832732,22.5678109 Z M44.0866825,30.1745368 C42.7169374,29.2779605 41.4128445,28.7677624 40.314661,28.6961557 L40.4116473,27.2073319 C41.7649794,27.2953485 43.3182525,27.8905797 44.9013675,28.9244022 L44.0866825,30.1745368 Z M126.225136,30.5877674 L125.135905,29.5718466 C126.186342,28.445532 127.072647,27.2923649 127.766472,26.1481487 L129.042215,26.9194131 C128.294675,28.1531378 127.347193,29.3883543 126.225136,30.5877674 L126.225136,30.5877674 Z M35.0833686,34.463483 C35.0236847,34.1039574 34.9938428,33.7444318 34.9938428,33.3908735 C34.9938428,32.5166744 35.1833391,31.6961803 35.5548713,30.9517684 C35.6563339,30.5713575 35.842846,30.1059136 36.0606922,29.6956666 L37.379706,30.3908488 C37.2081149,30.7160628 37.0589052,31.0890147 36.9380453,31.4992617 C36.6217207,32.155657 36.4859399,32.7508881 36.4859399,33.3908735 C36.4859399,33.6668578 36.5098134,33.9428422 36.5560684,34.2218102 L35.0833686,34.463483 Z M49.5104555,36.5356034 C49.3567695,36.1372909 49.180702,35.7419619 48.9837452,35.3496166 C48.6151972,34.6111719 48.0362636,33.789186 47.3111044,32.9731674 L48.427193,31.9826073 C49.2374017,32.8941016 49.8924324,33.827973 50.31768,34.6812869 C50.5355262,35.1154028 50.7294988,35.5539942 50.90109,35.9925855 L49.5104555,36.5356034 Z M119.704672,36.8354567 L118.740777,35.6986995 C119.912073,34.703664 120.968478,33.6802841 121.875673,32.6583961 L122.991762,33.6489561 C122.036819,34.7245493 120.931176,35.795667 119.704672,36.8354567 L119.704672,36.8354567 Z M112.29641,42.0567825 L111.522011,40.782779 C112.908169,39.9399079 114.124229,39.1522336 115.241809,38.3750019 L116.093797,39.598284 C114.95085,40.3934173 113.709426,41.1989933 112.29641,42.0567825 L112.29641,42.0567825 Z M40.0878623,42.2656356 C39.5820414,41.7733391 39.100094,41.2601574 38.639036,40.7216149 C38.0794996,40.1666626 37.5259315,39.5147428 37.0320474,38.8225441 L38.2466144,37.9572959 C38.685291,38.5704287 39.1985724,39.1761025 39.7342353,39.7086777 C40.2042458,40.2546792 40.6578434,40.736533 41.1308382,41.2004851 L40.0878623,42.2656356 Z M-74.6245632,43.7216396 L-75.3541986,42.4192917 C-73.8367359,41.5689615 -72.3147968,41.0751733 -70.8331444,40.9513533 L-70.7093004,42.4371934 C-71.9775829,42.5431117 -73.2936125,42.9742441 -74.6245632,43.7216396 L-74.6245632,43.7216396 Z M51.5277708,45.2194142 L50.0699919,44.9016592 C50.3191721,43.7514757 50.4460004,42.6177021 50.4445083,41.5271909 C50.4445083,41.2392721 50.4355557,40.9513533 50.4191426,40.6634344 L51.9082555,40.5709424 C51.9276528,40.8901892 51.9366054,41.2064523 51.9366054,41.5256991 C51.9380975,42.7221286 51.8008246,43.9648042 51.5277708,45.2194142 L51.5277708,45.2194142 Z M-63.35923,45.6759072 C-64.0739445,44.9434298 -64.8349141,44.3332806 -65.6242334,43.8603776 C-66.0211313,43.5963277 -66.3896792,43.3829993 -66.7582272,43.2039824 L-66.1017045,41.8643394 C-65.6779489,42.0717006 -65.2527012,42.3178488 -64.8274536,42.5998004 C-63.9590531,43.1204412 -63.0951288,43.811148 -62.2923806,44.6316421 L-63.35923,45.6759072 Z M104.421121,46.4844668 L103.797424,45.1299057 L104.537505,44.7852982 C105.559591,44.2154278 106.623456,43.6261639 107.676877,43.0279491 L108.410989,44.3273134 C107.354584,44.9255281 106.287735,45.5177756 105.220885,46.111515 L104.421121,46.4844668 Z M47.5438715,47.5421583 C46.1308556,46.80073 44.8148259,46.0070885 43.6345771,45.1836108 L44.4880566,43.9603287 C45.6175741,44.748003 46.8798883,45.5088248 48.2376967,46.2234005 L47.5438715,47.5421583 Z M-104.017384,47.6510602 C-105.416971,47.3437479 -106.86729,47.1423539 -108.331037,47.0543372 L-108.241511,45.5655135 C-106.700175,45.6580055 -105.172267,45.8683504 -103.696583,46.1935644 L-104.017384,47.6510602 Z M-117.034439,47.7360932 L-117.335843,46.2771056 C-115.813904,45.9623342 -114.294949,45.7400549 -112.820757,45.6192185 L-112.698405,47.1065505 C-114.112913,47.2244033 -115.572184,47.4347481 -117.034439,47.7360932 L-117.034439,47.7360932 Z M-80.9644838,49.5367047 L-82.1417484,48.6222268 C-81.1450275,47.3422561 -80.1124963,46.1935644 -79.0710125,45.2119551 L-78.0474339,46.2979909 C-79.0337101,47.2288787 -80.0140179,48.3178981 -80.9644838,49.5367047 L-80.9644838,49.5367047 Z M96.014646,49.797771 L95.5491117,48.3820458 C96.9457146,47.9210773 98.3482858,47.4138628 99.718031,46.8738286 L100.265631,48.2612094 C98.8690277,48.8116863 97.4395987,49.3293435 96.014646,49.797771 L96.014646,49.797771 Z M-125.43793,50.3601824 L-126.004927,48.9787688 C-124.566545,48.3895048 -123.131148,47.8658805 -121.737529,47.4287809 L-121.2899,48.8504733 C-122.643232,49.2771302 -124.038343,49.7843447 -125.43793,50.3601824 L-125.43793,50.3601824 Z M-96.1137457,51.0508892 C-97.2999629,50.2333788 -98.5727217,49.5292457 -99.8962118,48.9548998 L-99.3008651,47.5854207 C-97.8893412,48.1985535 -96.533025,48.9504244 -95.2677266,49.8216399 L-96.1137457,51.0508892 Z M55.8936469,51.0538728 C54.3538027,50.5242812 52.9706287,50.0021486 51.6620595,49.4606225 L52.2335327,48.0821925 C53.5122599,48.6117841 54.8685762,49.1234741 56.3800706,49.6441149 L55.8936469,51.0538728 Z M87.2843858,52.1205151 L86.9859664,50.6570521 C88.409427,50.3691332 89.8597454,50.0290012 91.2996191,49.6470985 L91.6830881,51.0881844 C90.2163566,51.4790379 88.7347042,51.826629 87.2843858,52.1205151 L87.2843858,52.1205151 Z M64.7716247,52.9902388 C63.2586382,52.7858612 61.7560964,52.5247949 60.3072701,52.2189744 L60.6161342,50.7599868 C62.0306423,51.0583482 63.4958817,51.3119555 64.9730578,51.5133495 L64.7716247,52.9902388 Z M-58.8501126,53.0245504 C-59.4842538,51.5237921 -60.1183951,50.2423296 -60.7913309,49.1055724 L-59.5066353,48.3462424 C-58.8008734,49.5396883 -58.133906,50.882315 -57.4758911,52.4457291 L-58.8501126,53.0245504 Z M78.3273269,53.3676661 L78.2169117,51.8788423 C79.665738,51.7714322 81.1473904,51.6133006 82.6185982,51.4074312 L82.8245076,52.8858123 C81.3219658,53.0946653 79.8089793,53.2572723 78.3273269,53.3676661 L78.3273269,53.3676661 Z M73.3064201,53.554142 C71.9709932,53.554142 70.6176611,53.5108796 69.27925,53.430322 L69.370268,51.9414982 C70.6788371,52.020564 72.0023273,52.0623346 73.3064201,52.0623346 L73.7928438,52.0608428 L73.8062727,53.5526502 L73.3064201,53.554142 Z M47.8467672,53.6197815 L46.5934057,52.8097301 C47.4215195,51.532743 48.1272815,50.2482968 48.6927863,48.9892114 L50.0550709,49.6008524 C49.45674,50.928561 48.7136756,52.2801385 47.8467672,53.6197815 L47.8467672,53.6197815 Z M-133.381855,54.2687177 L-134.118951,52.9723371 C-132.770095,52.2055481 -131.427208,51.4924642 -130.129083,50.8494952 L-129.468084,52.1876464 C-130.740843,52.8171891 -132.058365,53.5168468 -133.381855,54.2687177 L-133.381855,54.2687177 Z M-85.5332851,57.1076272 L-86.8239491,56.3587399 L-86.177871,56.7331835 L-86.7836625,56.2886249 C-86.2569522,55.0936872 -85.5362693,53.724208 -84.7260606,52.3860568 L-83.4488254,53.1573212 C-84.226208,54.4432592 -84.917049,55.7545579 -85.4482356,56.9494956 L-85.5332851,57.1076272 Z M-90.0125606,57.1658076 C-90.8526113,55.9619191 -91.7881562,54.8400799 -92.7923375,53.8301264 L-91.7344407,52.7784022 C-90.6690833,53.8495198 -89.679823,55.0384903 -88.789041,56.311002 L-90.0125606,57.1658076 Z M-140.915453,58.9917799 L-141.751028,57.7565634 C-141.254159,57.4209067 -140.752815,57.0882337 -140.246994,56.7645115 C-139.512882,56.2751986 -138.754897,55.7814104 -137.984975,55.2950812 L-137.188195,56.5556584 C-137.947672,57.0375122 -138.695213,57.5223496 -139.432309,58.0131542 C-139.936638,58.3383682 -140.42903,58.6620904 -140.915453,58.9917799 L-140.915453,58.9917799 Z M42.0708593,60.6491779 L41.0159467,59.5944701 C42.0783198,58.533795 43.0780249,57.4388084 43.9896962,56.3408382 L45.138611,57.2941031 C44.1970977,58.4263849 43.1645665,59.5556831 42.0708593,60.6491779 L42.0708593,60.6491779 Z M-54.9661838,61.1429661 C-55.5943567,59.8868643 -56.1971639,58.6322543 -56.7895265,57.403005 L-56.9312757,57.1076272 L-55.5854041,56.4601828 L-55.445147,56.7555606 C-54.8572607,57.9788427 -54.2574377,59.2274854 -53.632249,60.4746364 L-54.9661838,61.1429661 Z M-147.974565,64.3652701 L-148.933983,63.2225456 C-147.764179,62.2394445 -146.580946,61.2891632 -145.415618,60.400046 L-144.509915,61.5860329 C-145.655846,62.460232 -146.821174,63.3955953 -147.974565,64.3652701 L-147.974565,64.3652701 Z M-88.8755826,65.1917313 L-90.3094879,64.7770089 C-89.8752877,63.2762507 -89.372451,61.8291975 -88.8173908,60.4746364 L-87.7773991,60.9012933 L-86.46883,60.261308 C-85.807831,61.6113936 -85.2333736,63.0405451 -84.7603788,64.5084836 L-86.1808552,64.9649766 C-86.5777531,63.738711 -87.0462716,62.5392978 -87.5804423,61.3965734 C-88.0579134,62.5974783 -88.4936058,63.8729736 -88.8755826,65.1917313 L-88.8755826,65.1917313 Z M35.1117184,66.4776693 L34.2612231,65.2543872 C35.4340114,64.4368768 36.611276,63.5343333 37.7601908,62.5706258 L38.7196092,63.7118584 C37.5363762,64.7054021 36.3218092,65.6347981 35.1117184,66.4776693 L35.1117184,66.4776693 Z M-50.5033214,68.9719712 C-50.6584995,68.7228394 -50.8106934,68.470724 -50.9628873,68.2141331 C-51.5761392,67.2966715 -52.2013279,66.2777671 -52.8518822,65.132059 L-51.5552498,64.3936144 C-50.9211086,65.5079945 -50.313825,66.5000464 -49.699081,67.4219834 C-49.5319661,67.703935 -49.3842485,67.9470996 -49.2350388,68.1872806 L-50.5033214,68.9719712 Z M-154.565158,70.344434 L-155.603657,69.2748081 C-154.526363,68.230543 -153.432656,67.1997041 -152.324028,66.1912423 L-151.319846,67.2966715 C-152.41803,68.2931989 -153.498308,69.3106115 -154.565158,70.344434 L-154.565158,70.344434 Z M27.6228831,71.4722404 L26.8544531,70.1937615 C28.1167672,69.4344315 29.3790814,68.633331 30.6040931,67.8113451 L31.4351912,69.0495452 C30.1892901,69.8849573 28.9075787,70.700976 27.6228831,71.4722404 L27.6228831,71.4722404 Z M-84.5455168,73.6308857 C-84.5693904,73.4861804 -84.5962481,73.3429669 -84.6231059,73.202737 C-84.7230764,71.800438 -84.8842229,70.4891393 -85.11699,69.2091686 L-83.6487665,68.9406433 C-83.4070467,70.2773027 -83.2369477,71.6452901 -83.1474218,73.0073102 C-83.1280246,73.0699661 -83.0996747,73.2295895 -83.072817,73.3921965 L-84.5455168,73.6308857 Z M-90.6049232,73.8457059 L-92.0850835,73.65923 C-91.8896188,72.1062585 -91.6493911,70.6025167 -91.3718611,69.1897751 L-89.9066217,69.4791857 C-90.1796755,70.8576158 -90.4139347,72.327046 -90.6049232,73.8457059 L-90.6049232,73.8457059 Z M19.6729897,75.7492522 L19.0298958,74.4021501 C20.3578623,73.768132 21.6917971,73.0908514 22.9929057,72.3926856 L23.6971756,73.7069679 C22.3781617,74.4155764 21.0233376,75.1032996 19.6729897,75.7492522 L19.6729897,75.7492522 Z M-44.719953,76.0282201 C-45.8241048,75.0108075 -46.8790175,73.8874765 -47.854849,72.6940306 L-46.6969816,71.7497166 C-45.7674052,72.8909492 -44.7617317,73.9605751 -43.7083111,74.9332335 L-44.719953,76.0282201 Z M-160.820029,76.7010253 L-161.904783,75.6761536 C-160.879713,74.5931014 -159.842705,73.5145247 -158.789285,72.4404234 L-157.723927,73.4861804 C-158.771379,74.5513308 -159.800926,75.6254321 -160.820029,76.7010253 L-160.820029,76.7010253 Z M11.3679772,79.2654421 L10.8487274,77.8676186 C12.2333935,77.3544369 13.624028,76.8024682 14.9788522,76.2281223 L15.5607701,77.6035687 C14.1850565,78.1853736 12.7720406,78.7448014 11.3679772,79.2654421 L11.3679772,79.2654421 Z M-37.1893389,81.1913655 C-38.5650524,80.5140849 -39.8945109,79.7383451 -41.1419041,78.8820476 L-40.2988693,77.6527984 C-39.1081758,78.4673252 -37.8413853,79.2072617 -36.5313241,79.8547061 L-37.1893389,81.1913655 Z M2.77797416,82.0103677 L2.39002892,80.5707736 C3.80006068,80.1903627 5.2324739,79.7681812 6.64996615,79.3146718 L7.10356367,80.7363642 C5.66518206,81.1958409 4.20889529,81.6239896 2.77797416,82.0103677 L2.77797416,82.0103677 Z M-83.7770868,82.5683037 L-85.2139763,82.1655157 C-84.8126022,80.7318888 -84.5455168,79.2982619 -84.4216728,77.9064056 L-82.935544,78.0376847 C-83.0668486,79.5205412 -83.3518391,81.0451683 -83.7770868,82.5683037 L-83.7770868,82.5683037 Z M-92.6132859,82.7741731 C-92.7669719,81.953679 -92.8445609,81.0362175 -92.8445609,80.0501328 C-92.8445609,79.4071638 -92.8117348,78.7582276 -92.7550351,78.112275 L-91.2689064,78.2405705 C-91.3211298,78.8432607 -91.3524638,79.4504263 -91.3524638,80.0501328 C-91.3524638,80.9452172 -91.2838273,81.7686949 -91.1465544,82.4966969 L-92.6132859,82.7741731 Z M-166.898832,83.2575187 L-168,82.2490569 C-166.998803,81.1585457 -165.988653,80.0575919 -164.966567,78.9521626 L-163.871367,79.9665916 C-164.891962,81.0690373 -165.900619,82.1670075 -166.898832,83.2575187 L-166.898832,83.2575187 Z M-6.03285924,83.9333074 L-6.27905527,82.4623853 C-4.82873688,82.2192207 -3.36200542,81.9357773 -1.92063962,81.621006 L-1.60431503,83.0785018 C-3.06806229,83.3992404 -4.5586673,83.6871592 -6.03285924,83.9333074 L-6.03285924,83.9333074 Z M-28.5590492,84.122767 C-30.0660673,83.8094874 -31.5462276,83.4081912 -32.9622278,82.9308129 L-32.4877409,81.5180713 C-31.1269484,81.9760561 -29.7034877,82.3609424 -28.2546614,82.6622875 L-28.5590492,84.122767 Z M-15.003347,84.943261 L-15.0883966,83.4544373 C-13.6365861,83.3723878 -12.1504574,83.2455842 -10.6717891,83.0785018 L-10.5016901,84.5613583 C-12.0102002,84.7314244 -13.5246788,84.8597198 -15.003347,84.943261 L-15.003347,84.943261 Z M-19.5258934,85.067081 C-21.0776744,85.0491793 -22.6040897,84.9641463 -24.0618686,84.8164574 L-23.9111668,83.3336009 C-22.4966587,83.4753226 -21.0164984,83.557372 -19.5094803,83.5752737 L-19.5258934,85.067081 Z M-88.3384277,88.381877 C-88.9248218,88.381877 -89.7962065,88.1640731 -90.6153678,87.127267 L-89.4440716,86.2038383 C-88.650276,87.2063328 -87.7803833,87.0601357 -86.8702041,85.9532146 L-85.7183051,86.8990205 C-86.5165771,87.8701871 -87.42228,88.381877 -88.3384277,88.381877 L-88.3384277,88.381877 Z" transform="rotate(-20 33.54 -30.732)" opacity=".15"/>
</svg>
