<svg xmlns="http://www.w3.org/2000/svg" width="40" height="16" viewBox="0 0 40 16">
  <path fill="#FFFFFF" fill-rule="evenodd" d="M38.5878705,15.8337424 C39.0903864,14.9668391 39.3714546,13.9508926 39.3496884,12.8708008 C39.2862824,9.74655293 36.7301703,7.26375689 33.636527,7.32412883 C33.01477,7.3382785 32.4176183,7.45902238 31.8639991,7.66655093 C31.8602137,7.59485925 31.86116,7.53165737 31.8554819,7.46562556 C31.4400308,2.94244661 27.4814166,-0.380840026 23.0070375,0.0351603736 C19.1941623,0.39456208 16.2490972,3.35656039 15.7172442,7.02604237 C14.7812964,4.65172717 12.3917433,3.07734017 9.74761987,3.32543111 C6.93125938,3.58955835 4.76599299,5.83086662 4.47451482,8.56741347 C1.91650998,8.8305974 -0.0528603702,11.0285133 0.00108201812,13.6716723 C0.0143310258,14.4499044 0.206441637,15.1838008 0.531988682,15.8337424 L38.5878705,15.8337424 Z"/>
</svg>
