<svg xmlns="http://www.w3.org/2000/svg" width="92" height="91" viewBox="0 0 92 91" xmlns:xlink="http://www.w3.org/1999/xlink">
  <defs>
    <polygon id="a" points=".466 .083 50.74 .083 50.74 52.057 .466 52.057 .466 .083"/>
  </defs>
  <g fill="none" fill-rule="evenodd" transform="translate(.282 .197)">
    <g transform="translate(18.892 19.066)">
      <path fill="#00D7F2" d="M53.3295621,26.6394606 C53.3295621,41.1815517 41.5057692,52.9710596 26.9176654,52.9710596 C12.3276689,52.9710596 0.501983169,41.1815517 0.501983169,26.6394606 C0.501983169,12.0992562 12.3276689,0.311634852 26.9176654,0.311634852 C41.5057692,0.311634852 53.3295621,12.0992562 53.3295621,26.6394606"/>
      <path fill="#3AAB51" d="M4.08574511,13.3906497 C4.08574511,13.3906497 2.9472768,20.3937947 5.3160101,20.3287062 C7.68663612,20.2645611 9.71468065,20.3768151 9.71468065,20.3768151 L9.71468065,26.7771841 L11.0708112,34.1991595 L12.8764617,38.7289416 L17.1625157,44.5548338 L19.870045,34.1991595 L24.1589381,30.8805894 L26.9175707,25.093373 L20.8854868,20.3287062 L15.3653824,20.3287062 L11.747457,15.2055811 L13.7783406,10.8182391 L18.1779575,9.13065466 L19.7583748,2.99063969 L21.11072,0.69650597 C21.11072,0.69650597 12.9871855,3.83396023 10.6383258,5.90452912 C8.28851961,7.97226806 5.06522531,11.5615686 4.08574511,13.3906497"/>
      <path fill="#3AAB51" d="M4.3427408,0.46410929 L3.47776988,2.57146732 L6.2553297,10.1349394 L11.2208685,10.1349394 L14.4640363,10.1349394 L10.994689,16.249485 L4.9020382,15.3080601 L1.74404259,17.3531595 L0.61598422,20.7066321 L0.61598422,24.7562687 L5.12821769,26.7787287 L10.9341221,26.9617311 L7.53859072,31.2226695 L3.54969306,37.2476004 L6.03104292,42.9735016 L9.35843656,43.2149894 C9.35843656,43.2149894 16.3406636,38.9238651 18.1803829,27.0041801 C20.021995,15.0835519 12.8079103,4.51185921 4.3427408,0.46410929" transform="translate(35.05 2.976)"/>
      <g transform="translate(.035 .031)">
        <mask id="b" fill="white">
          <use xlink:href="#a"/>
        </mask>
        <path fill="#FFFFFF" d="M20.1498479,52.0572737 C18.3848908,48.5179687 17.3874298,44.5305907 17.3874298,40.3083282 C17.3874298,25.7105817 29.2594871,13.8767381 43.9043723,13.8767381 C46.2693202,13.8767381 48.5595058,14.1899176 50.7399139,14.7672243 C46.3989712,6.0670617 37.3962705,0.0826931355 26.9844432,0.0826931355 C12.3395579,0.0826931355 0.465607984,11.9165367 0.465607984,26.5161698 C0.465607984,38.7565806 8.8172146,49.0499964 20.1498479,52.0572737" opacity=".2" mask="url(#b)"/>
      </g>
    </g>
    <g stroke="#FFCE39" stroke-width=".85" transform="translate(44.531)" stroke-linecap="square">
      <path d="M1.01207697 11.1450514L1.01207697.316641353M1.01207697 90.173598L1.01207697 79.3451879"/>
    </g>
    <path stroke="#FFCE39" stroke-width=".85" d="M1.36571201,11.4999786 L1.36571201,0.671568509" transform="rotate(45 -71.498 59.284)" stroke-linecap="square"/>
    <g stroke="#FFCE39" stroke-width=".85" transform="rotate(90 23.278 67.522)" stroke-linecap="square">
      <path d="M1.01207697 11.1450514L1.01207697.316641353M1.01207697 90.173598L1.01207697 79.3451879"/>
    </g>
    <g stroke="#FFCE39" stroke-width=".85" transform="rotate(135 23.615 54.794)" stroke-linecap="square">
      <path d="M1.36571201 11.9215159L1.36571201 1.09310578M1.36571201 90.9500625L1.36571201 80.1216524"/>
    </g>
    <path stroke="#FFCE39" stroke-width=".85" d="M1.95328395,12.2693215 L1.95328395,1.44091139" transform="rotate(68 -33.98 38.645)" stroke-linecap="square"/>
    <g stroke="#FFCE39" stroke-width=".85" transform="rotate(112 23.752 59.96)" stroke-linecap="square">
      <path d="M1.95328395 11.152173L1.95328395.323762903M1.95328395 90.1807196L1.95328395 79.3523095"/>
    </g>
    <g stroke="#FFCE39" stroke-width=".85" transform="rotate(156 23.61 50.144)" stroke-linecap="square">
      <path d="M1.58449061 11.5786829L1.58449061.750272835M1.58449061 90.6072295L1.58449061 79.7788194"/>
    </g>
    <g stroke="#FFCE39" stroke-width=".85" transform="rotate(25 24.986 144.036)" stroke-linecap="square">
      <path d="M1.87093726 11.7117933L1.87093726.883383222M1.87093726 90.7403399L1.87093726 79.9119298"/>
    </g>
  </g>
</svg>
