<svg xmlns="http://www.w3.org/2000/svg" width="34" height="33" viewBox="0 0 34 33">
  <g fill="none" fill-rule="evenodd" transform="translate(-1 -1)">
    <path fill="#231F20" d="M35.0942431,16.225117 C35.0942431,24.3292187 27.6192469,30.9029924 18.3502516,30.9029924 C17.0351307,30.9029924 15.7200097,30.7758565 14.4632536,30.5190957 L7.8242609,34.5400678 C7.34539471,34.859152 6.74738305,34.2857959 6.98801813,33.7747761 L8.90113876,28.4151819 C4.47689779,25.7328959 1.60614044,21.2657802 1.60614044,16.2248873 C1.60614044,8.12078558 9.08113667,1.54701193 18.350132,1.54701193 C27.6191273,1.54701193 35.0941235,8.12078558 35.0941235,16.2248873 L35.0942431,16.225117 Z" transform="scale(-1 1) rotate(5 0 -402.199)"/>
    <path fill="#FFFFFF" d="M23.0835625,12.9366318 C22.702367,12.1630945 20.3126225,9.57282084 17.5423475,13.3230293 C14.6330933,9.57282084 12.381663,12.1630945 12.0011326,12.9366318 C11.3082313,14.3669707 11.7238391,16.5324298 12.6940338,17.5763711 L17.5430125,22.9896478 L22.3919912,17.5763711 C23.3608726,16.5324298 23.7764803,14.367713 23.0835957,12.9366318 L23.0835625,12.9366318 Z"/>
  </g>
</svg>
