<svg xmlns="http://www.w3.org/2000/svg" width="55" height="47" viewBox="0 0 55 47" xmlns:xlink="http://www.w3.org/1999/xlink">
  <defs>
    <polygon id="a" points="10.004 50.203 0 50.203 0 .129 27.76 .129 27.76 50.203 10.004 50.203 10.004 30.347 0 30.347 0 50.203 10.004 50.203"/>
  </defs>
  <g fill="none" fill-rule="evenodd" transform="scale(-1 1) rotate(50 5.855 -15.437)">
    <g transform="translate(9.268 48.704)">
      <path fill="#FFCE39" d="M7.92924128,2.06044634 C7.92924128,2.06044634 5.91246771,15.2657912 4.44951322,15.2657912 C2.98620986,15.2657912 1.41153218,2.06044634 1.41153218,2.06044634"/>
      <path fill="#FFCE39" d="M8.01739881,2.06044634 C9.24923196,3.73391759 7.68031051,9.96686448 7.00543619,9.96686448 C6.33012579,9.96686448 6.0014974,2.06044634 6.0014974,2.06044634"/>
      <path fill="#FF7031" d="M0.978907909,2.06044634 C-0.252750813,3.73391759 1.35812134,9.96686448 2.03325731,9.96686448 C2.70830607,9.96686448 3.13636024,2.06044634 3.13636024,2.06044634"/>
      <path fill="#EE5F56" d="M8.3847422,2.06044634 C8.3847422,2.06044634 6.10021674,21.254175 4.44242259,21.254175 C2.78454122,21.254175 1.00063332,2.06044634 1.00063332,2.06044634"/>
      <path fill="#EE5F56" d="M8.48456046 2.06044634C9.88018451 4.49286991 8.10273055 13.5523424 7.33802416 13.5523424 6.57323055 13.5523424 6.20081993 2.06044634 6.20081993 2.06044634M.51072584 2.06044634C-.884898212 4.49286991.940088245 13.5523424 1.70505628 13.5523424 2.46993711 13.5523424 2.95503028 2.06044634 2.95503028 2.06044634"/>
      <path fill="#FFCE39" d="M7.36677042,0.0886153508 C7.36677042,0.0886153508 5.6811545,9.59174082 4.45795569,9.59174082 C3.2348441,9.59174082 1.91849902,0.0886153508 1.91849902,0.0886153508"/>
      <path fill="#FFCE39" d="M7.44061587.0886153508C8.47019605 1.29308208 7.15873505 5.77836441 6.59453732 5.77836441 6.03007795 5.77836441 5.75543602.0886153508 5.75543602.0886153508M1.55696419.0886153508C.527296804 1.29308208 1.87390569 5.77836441 2.43819063 5.77836441 3.00265 5.77836441 3.36049561.0886153508 3.36049561.0886153508"/>
    </g>
    <path fill="#231F20" d="M7.12807356,40.0670463 L0.227288028,48.932095 L4.6378258,59.4683588 L5.52609421,59.4686745 C5.7278226,56.4527203 6.41088726,51.731609 9.77644984,50.6262012 L7.12807356,40.0670463 Z"/>
    <g transform="translate(0 9.493)">
      <mask id="b" fill="white">
        <use xlink:href="#a"/>
      </mask>
      <path fill="#404042" d="M7.0210959,31.0813623 L0.488223784,39.4737474 L4.78928796,49.7479464 L5.3142241,49.7482622 C5.67850419,44.7870302 7.05126828,41.9169482 9.50565672,40.9878814 L7.0210959,31.0813623 Z M5.52590464,50.2027708 L4.63779421,50.2021393 C4.54617129,50.2021393 4.46355269,50.1472004 4.42816729,50.062582 L0.0176295134,39.526634 C-0.0141225672,39.4510141 -0.00243274648,39.3641854 0.0479598592,39.2996165 L6.94874539,30.434252 C7.00213944,30.3657363 7.08965512,30.3333729 7.17495922,30.3515279 C7.26010535,30.3693673 7.32724283,30.434252 7.34856885,30.5187126 L9.99678716,41.0778675 C10.0258537,41.1934286 9.96061191,41.3116734 9.84750499,41.3487729 C7.42802804,42.1433342 6.08859574,44.9701597 5.75290832,49.9905931 C5.7450098,50.109943 5.64580429,50.2027708 5.52606261,50.2027708 L5.52590464,50.2027708 Z" mask="url(#b)"/>
    </g>
    <path fill="#231F20" d="M20.6311593,40.0668884 L27.5322607,48.9327265 L23.1223548,59.4686745 L22.2336125,59.4686745 C22.032674,56.4528782 21.3489774,51.7312933 17.9832569,50.6266748 L20.6311593,40.0668884 Z"/>
    <path fill="#231F20" d="M9.57862332,9.16329732 L3.04559323,0.770122891 L0.561348351,10.6772735 C3.01700056,11.6061823 4.38992262,14.4762644 4.75293894,19.4373385 L5.27834899,19.4371806 L9.57862332,9.16329732 Z M4.31393878,19.6795115 C3.97998904,14.659236 2.64055674,11.8327262 0.219658051,11.038165 C0.106393166,11.0010655 0.0411513284,10.8828206 0.0700599392,10.7672596 L2.71796231,0.207473147 C2.73913036,0.123012537 2.80642582,0.058127844 2.89157194,0.0402885002 C2.97734995,0.0221334159 3.0645497,0.0544968271 3.11794374,0.123012537 L10.0188872,8.98900851 C10.0692798,9.05373534 10.0808117,9.14040613 10.0492176,9.21618387 L5.6393117,19.751974 C5.60408427,19.8364346 5.5213077,19.8915313 5.42968478,19.8915313 L4.54078449,19.8916892 C4.42120078,19.8916892 4.32199528,19.7988615 4.31393878,19.6795115 L4.31393878,19.6795115 Z" transform="translate(17.693 39.804)"/>
    <path fill="#EE5F56" d="M4.73175509,36.8368779 C5.30455631,42.233674 6.99247164,47.2275852 9.77733448,50.6255855 C11.104761,50.8770729 12.4775251,51.0101576 13.8806195,51.0101576 C15.283714,51.0101576 16.6534766,50.8770729 17.9839046,50.6255855 C20.7687674,47.2275852 22.4568407,42.233674 23.029484,36.8368779 C23.4204611,33.1662356 23.2961383,29.3110429 22.6506706,25.649557 C21.4718943,18.9807999 18.5597072,12.9509438 13.8806195,9.84989754 C9.20168979,12.9509438 6.28934472,18.9807999 5.11056847,25.649557 C4.4651008,29.3110429 4.33777654,33.1662356 4.73175509,36.8368779"/>
    <g fill="#231F20" transform="translate(4.265 .107)">
      <path d="M5.50927034,50.5182021 L5.51227178,50.5182021 L5.50927034,50.5182021 Z M18.5383654,36.7053403 C18.9287106,33.0402235 18.7985429,29.1937137 18.1616056,25.5816412 C16.8954717,18.41875 13.8633849,12.8989729 9.61539886,10.0161034 C5.36757076,12.8989729 2.33548401,18.41875 1.06935005,25.5816412 C0.430517141,29.2041331 0.300191437,33.0504851 0.692590285,36.7051825 L0.692590285,36.7054982 C1.28419,42.2789512 3.0387689,47.1059935 5.63596272,50.310287 C8.24926954,50.7949488 10.9692065,50.7960539 13.594993,50.310287 C16.1920288,47.1059935 17.9467657,42.2789512 18.5383654,36.7053403 L18.5383654,36.7053403 Z M5.46993568,50.7412729 C5.41748945,50.7314849 5.37025626,50.703384 5.33645056,50.662022 C2.65505843,47.3904758 0.845347807,42.4510299 0.24063654,36.7534908 L0.24063654,36.7538065 C-0.156185483,33.0571156 -0.0244380442,29.1667178 0.621503537,25.5027061 C1.92207508,18.1457923 5.07153395,12.481406 9.48981228,9.55322767 C9.56595408,9.50255131 9.66500162,9.50255131 9.74114342,9.55322767 C14.1592638,12.481406 17.3088806,18.1457923 18.6092942,25.502864 C19.2533401,29.1561405 19.3850876,33.0465383 18.9901612,36.7534908 C18.3856079,42.4510299 16.5758973,47.3904758 13.8945051,50.662022 C13.8606994,50.703384 13.8133083,50.7314849 13.7608621,50.7412729 C12.3958385,50.9993908 11.0011165,51.1301074 9.61539886,51.1301074 C8.22667975,51.1301074 6.83179979,50.9993908 5.46993568,50.7412729 L5.46993568,50.7412729 Z"/>
      <polygon points="9.379 0 9.773 0 10.032 9.724 9.268 9.724"/>
    </g>
    <path fill="#D4554C" d="M4.73175509,36.8368779 L23.029484,36.8368779 C23.4204611,33.1662356 23.2961383,29.3110429 22.6506706,25.649557 L5.11056847,25.649557 C4.4651008,29.3110429 4.33777654,33.1662356 4.73175509,36.8368779"/>
    <path fill="#231F20" d="M22.4595578,25.8766061 L5.30174443,25.8766061 C4.70303604,29.3770642 4.57681757,33.0791227 4.93667449,36.6095762 L22.8246278,36.6095762 C23.182589,33.0693348 23.0565285,29.3672763 22.4595578,25.8766061 M4.5058888,36.8610636 C4.1089088,33.1645306 4.24065624,29.2741328 4.88675579,25.610121 C4.90587023,25.5015063 5.00049459,25.4224132 5.11060006,25.4224132 L22.6507022,25.4224132 C22.7611236,25.4224132 22.855274,25.5015063 22.8745464,25.6102789 C23.5185924,29.2633976 23.6503398,33.1539533 23.2554134,36.8609057 C23.2430917,36.9764668 23.1456239,37.0639269 23.0295156,37.0639269 L4.73178668,37.0639269 C4.61567833,37.0639269 4.5182105,36.9764668 4.5058888,36.8610636"/>
    <g transform="translate(9.07 20.507)">
      <path fill="#6C6E70" d="M4.90301144,0.453828034 C2.43192821,0.453635509 0.428206626,2.45608548 0.428013979,4.92598556 C0.428784567,7.39569311 2.43192821,9.39756551 4.90281879,9.39756551 C7.37467262,9.39814308 9.3783942,7.39569311 9.37762361,4.92560051 C9.37781626,2.45589296 7.37467262,0.454213083 4.90301144,0.453828034"/>
      <path fill="#231F20" d="M4.90301144,0.730774893 C3.78199847,0.730774893 2.72783402,1.16703599 1.93489891,1.95946788 C1.14215646,2.75189977 0.705233031,3.80539522 0.705233031,4.92569677 C0.705810972,7.2388817 2.58874288,9.12061865 4.90262615,9.12061865 L4.90358938,9.12061865 C6.02460235,9.12061865 7.07857416,8.68435755 7.87150926,7.89211819 C8.66425172,7.09987882 9.10078985,6.04638337 9.10059721,4.92550424 C9.10078985,2.61289689 7.2176653,0.731159943 4.90301144,0.730774893 L4.90301144,0.730774893 Z M4.90262615,9.67451236 C2.28320471,9.67451236 0.151565516,7.54422596 0.150987575,4.92569677 C0.150987575,3.65734369 0.64531981,2.46484536 1.54305489,1.56768 C2.44078997,0.67070717 3.63385292,0.176496125 4.90301144,0.17668865 C7.52339611,0.177073699 9.65503531,2.30736011 9.65484266,4.92550424 C9.65522796,6.19424238 9.16108837,7.38674071 8.26335329,8.28390606 C7.3660035,9.18087889 6.1727479,9.67451236 4.90358938,9.67451236 L4.90262615,9.67451236 Z"/>
      <path fill="#BFE7FF" d="M7.66967299,3.32985908 C6.78715702,1.80275273 4.83371631,1.28024054 3.30641079,2.16200392 C1.77871998,3.04338224 1.25568334,4.99481316 2.13723607,6.52172698 C3.01994468,8.04844829 4.9730001,8.571153 6.50011297,7.69015972 C8.02799643,6.80858887 8.55161101,4.85658038 7.66967299,3.32985908"/>
      <path fill="#231F20" d="M7.42971187,3.46841915 C7.03998696,2.79400493 6.41080182,2.3115379 5.65812994,2.110157 C4.90526541,1.90896863 4.11945825,2.01235443 3.44500105,2.40183201 C2.0523558,3.20523781 1.57343532,4.99109743 2.37715866,6.38324393 C3.18165259,7.77442781 4.96922422,8.25323687 6.36167683,7.45060117 C7.75451473,6.64661779 8.2338205,4.8601806 7.42971187,3.46841915 M1.89727495,6.66028705 C0.940589886,5.00361154 1.51043975,2.87813825 3.167782,1.92206032 C3.97015681,1.45884576 4.90526541,1.33485982 5.80165196,1.57513071 C6.69726793,1.8146315 7.44589422,2.38893285 7.90959558,3.19156855 C8.86647329,4.84785901 8.29643078,6.97371735 6.63870323,7.93018033 C6.09370483,8.24457326 5.49823292,8.39377994 4.90988894,8.39377994 C3.70912011,8.39377994 2.53956009,7.77173246 1.89727495,6.66028705"/>
      <path fill="#FEFEFE" d="M4.78081544,7.10513475 C3.52437162,6.38008652 3.09419084,4.77443007 3.81989214,3.51916867 C4.16299647,2.92484475 4.70452722,2.5145745 5.31367708,2.32628529 C4.28513468,2.18266182 3.22576875,2.65954564 2.67518359,3.61331328 C1.94967494,4.86838215 2.38043366,6.47384608 3.63591424,7.1988943 C4.29707879,7.58028584 5.05456685,7.64150871 5.72998727,7.43165673 C5.40460647,7.38660594 5.08230802,7.2789846 4.78081544,7.10513475" opacity=".5"/>
    </g>
    <path fill="#FEFEFE" d="M21.2169931 24.7409819C21.2323162 24.7409819 21.2476393 24.7394032 21.2631205 24.7364037 21.3860215 24.7111444 21.4651648 24.5910051 21.4400475 24.4680241 19.7020555 16.0105965 14.0854125 11.0656251 14.0288591 11.0166853 13.9339188 10.9344349 13.7907975 10.9450122 13.7083368 11.0395765 13.6261922 11.1344566 13.6363023 11.2779607 13.7312426 11.3598954 13.7865323 11.4080458 19.2889625 16.2589265 20.9945705 24.5595889 21.0168444 24.6669407 21.1113108 24.7409819 21.2169931 24.7409819M22.0888483 36.1736332C22.2041668 36.1736332 22.3030564 36.0860152 22.3147462 35.9687175 22.8047709 30.997224 21.9795327 26.448507 21.9710023 26.4031983 21.9484125 26.2797437 21.8293027 26.1973354 21.7064016 26.2211738 21.5828686 26.244065 21.5013558 26.3624677 21.5242616 26.4857644 21.5323181 26.5305996 22.3457084 31.0190101 21.8623185 35.9241981 21.8499968 36.0490735 21.9413038 36.1600563 22.0661006 36.1725281 22.0738411 36.1733174 22.0812657 36.1736332 22.0888483 36.1736332M17.5494224 49.9949884C17.6164019 49.9949884 17.6827495 49.9654666 17.7276132 49.9089491 20.979279 45.8117412 22.1713247 38.2200743 22.2204536 37.8988082 22.239568 37.7750379 22.1544219 37.6590033 22.030257 37.6400588 21.9056183 37.6222195 21.7902998 37.7062065 21.7713433 37.8301347 21.7593375 37.9078068 20.5475455 45.624507 17.3715475 49.6268349 17.2933521 49.7248723 17.309939 49.8677449 17.4083547 49.9457329 17.4502169 49.9787278 17.4999776 49.9949884 17.5494224 49.9949884"/>
    <path fill="#FEFEFE" d="M22.9597716,57.9788525 C23.0509206,57.9788525 23.1371725,57.92344 23.171768,57.8332961 L26.5431755,49.0885445 C26.5724001,49.0132404 26.5591306,48.9279904 26.50858,48.8650002 L22.5689524,43.9437093 C22.490915,43.8461455 22.3477936,43.829727 22.249536,43.9081885 C22.1515942,43.9866501 22.1357972,44.1293648 22.2141506,44.2275601 L26.0722653,49.0470246 L22.7477751,57.6700582 C22.7025955,57.7870401 22.7608866,57.9183882 22.8781008,57.9635391 C22.9049558,57.9739585 22.9326006,57.9788525 22.9597716,57.9788525" opacity=".5"/>
  </g>
</svg>
