<svg xmlns="http://www.w3.org/2000/svg" width="115" height="105" viewBox="0 0 115 105" xmlns:xlink="http://www.w3.org/1999/xlink">
  <defs>
    <path id="a" d="M0,0 C12.0731707,12.3 56.6341463,-9.44464286 70.0243902,22.8428571"/>
    <path id="b" d="M33.4183081,18.9962719 C33.4183081,29.4422412 25.9916628,37.9104478 16.8308012,37.9104478 C7.66993969,37.9104478 0.243294348,29.4422412 0.243294348,18.9962719 C0.243294348,3.31900214 7.66993969,0.0827890046 16.8308012,0.0827890046 C25.9916628,0.0827890046 33.4183081,0.779926138 33.4183081,18.9962719 Z"/>
    <path id="d" d="M23.3770747,38.2906101 C15.141698,38.2906101 7.55174758,35.5214659 2.55370074,30.692603 C0.243715823,28.7632934 0.243715823,21.3456235 0.243715823,18.9073458 C0.243715823,16.907988 0.243715823,10.8480631 2.02701544,8.15045763 C6.9332748,3.06003134 14.908587,0.0218717783 23.3770747,0.0218717783 C32.2899305,0.0218717783 40.5056384,3.3141428 45.35362,8.82933017 C46.7493725,10.3435662 46.7493725,15.497334 46.7493725,18.9073458 C46.7493725,22.8412297 46.7493725,28.2282435 44.8822986,30.0032977 C39.9585559,35.2025225 31.9293368,38.2906101 23.3770747,38.2906101"/>
    <path id="f" d="M63.9781033,30.9736257 C63.9781033,48.0281559 49.7087925,61.8530115 32.1074504,61.8530115 C14.5061084,61.8530115 0.236797554,48.0281559 0.236797554,30.9736257 C0.236797554,13.9190955 14.5061084,0.0942398728 32.1074504,0.0942398728 C49.7087925,0.0942398728 63.9781033,13.9190955 63.9781033,30.9736257 Z"/>
  </defs>
  <g fill="none" fill-rule="evenodd" transform="scale(-1 1) rotate(40 6.304 -119.457)">
    <g transform="rotate(140 61.31 54.215)">
      <use stroke="#BBBDBF" stroke-width="4.388" xlink:href="#a"/>
      <use stroke="#E6E6E6" stroke-width="3.51" xlink:href="#a"/>
      <path stroke="#BBBDBF" stroke-width="4.388" d="M0,0 C12.0731707,12.3 56.6341463,-9.44464286 70.0243902,22.8428571" stroke-dasharray="1.755 3.51"/>
    </g>
    <g transform="rotate(-22 71.138 13.818)">
      <g transform="translate(50.459 62.091)">
        <g transform="translate(.277 .201)">
          <path fill="#E6E6E6" d="M0.136632645,22.6645004 C3.32952571,22.4185861 2.69939737,22.5363269 5.79103282,22.0556762 C7.64062339,21.768031 8.85790021,20.5965846 9.31173831,18.8841267 C9.53465076,18.0420565 9.97464789,17.7126804 10.8255033,17.5338336 C13.0313167,17.0703224 14.7089878,15.7990199 14.7993184,13.6536038 C14.8779934,11.7764579 15.7849411,11.2674898 17.4232748,11.1236672 C17.6367171,11.1050373 17.8450601,11.0036908 18.0490323,10.9247001 C21.002258,9.79498469 22.3878119,6.97293164 21.472851,3.95638273 C20.7640477,1.62094195 18.0818135,0.367524147 14.9683239,1.02180526 C11.4549031,1.7595482 7.96042263,2.58000777 4.4615713,3.37513072 L1.5068886,4.03313781"/>
          <path fill="#231F20" fill-rule="nonzero" d="M0.191993426,23.395705 C0.931483436,23.33875 2.42984691,23.2326709 2.58258193,23.2206739 C2.7740391,23.2056353 2.93818654,23.1912946 3.09815314,23.1754487 C3.69695642,23.1161327 4.23594694,23.0394367 5.9017991,22.7804498 C8.00171368,22.4538746 9.47657079,21.1019704 10.0141594,19.0734983 C10.1538289,18.5458854 10.3413213,18.3846963 10.9738433,18.2517424 C13.6587724,17.6875538 15.4249968,16.077577 15.5257457,13.6847175 C15.5816067,12.3519013 16.0091746,11.9839111 17.4863199,11.8542385 C17.7226247,11.8336132 17.8858214,11.7810672 18.1902076,11.657241 C18.2546965,11.6309775 18.2797357,11.6208892 18.3096523,11.6093037 C21.6165214,10.3443135 23.1956855,7.12963184 22.1681258,3.74185434 C21.3325619,0.988749222 18.2494089,-0.416776587 14.8200193,0.30388902 C12.5714381,0.7760428 10.7674386,1.18050452 6.76142616,2.09788467 C6.51490868,2.15433765 6.51490868,2.15433765 6.26842552,2.21077212 C5.44516447,2.39924622 4.8744022,2.52959635 4.30175505,2.65973188 L1.35012385,3.31705246 L1.66365335,4.74922315 L4.61833604,4.09121607 C5.19494473,3.96018721 5.76636057,3.82968782 6.59031017,3.64105609 C6.83686856,3.58460439 6.83686856,3.58460439 7.08339748,3.52814879 C11.0809233,2.61271208 12.8791973,2.20953402 15.1165166,1.73974501 C17.8681832,1.16149883 20.184734,2.2175515 20.7776124,4.17103072 C21.5802198,6.81715945 20.3870867,9.24600325 17.7911905,10.2390273 C17.747758,10.2558404 17.7129751,10.2698544 17.6462657,10.2970466 C17.4751063,10.3666753 17.4052558,10.3891657 17.3605882,10.3930644 C15.2092855,10.5819184 14.1625705,11.4827832 14.0728851,13.6226317 C14.0042733,15.2522127 12.7716302,16.375811 10.677207,16.8159156 C9.53269681,17.0564876 8.8987159,17.6015275 8.60926384,18.6949566 C8.21974909,20.1647044 7.20641805,21.0935581 5.68023159,21.330908 C4.0418613,21.5856224 3.51867594,21.6600694 2.95601901,21.7158048 C2.80654739,21.7306111 2.6519515,21.7441174 2.46967611,21.7584347 C2.32400021,21.7698772 0.82710248,21.8758525 0.0812718647,21.9332959 L0.191993426,23.395705 Z"/>
        </g>
        <path fill="#F2EEED" d="M2.03235092,7.53810422 C2.11685368,6.5782932 2.20208491,5.61848218 2.28731614,4.65867117 C6.19411183,3.81436536 12.9543326,2.45512988 16.86987,1.69130512 C20.0664054,1.06832219 21.8446057,3.30241647 21.6952689,7.55673409 C21.5714287,7.56195045 21.3696419,7.63572475 21.3354037,7.56567643 C19.2527021,3.29421933 16.2397416,4.3911462 13.3134693,5.06554758 C10.5037526,5.71312193 4.83915379,6.86370284 2.03235092,7.53810422"/>
        <path fill="#BBBDBF" d="M2.87963678,19.7275551 C4.86472316,19.8363535 9.02939796,18.9115667 9.78919432,18.5270461 L9.11900002,20.2402492 L7.8077503,21.8513605 L5.89405419,22.1948954 L3.3720839,22.4728531 L2.75798194,22.4668915 L2.87963678,19.7275551 Z"/>
        <path fill="#231F20" fill-rule="nonzero" d="M0.468609688,23.5967008 C1.2080997,23.5397458 2.70646317,23.4336667 2.85919819,23.4216697 C3.05065536,23.4066312 3.2148028,23.3922904 3.37476941,23.3764445 C3.97357268,23.3171286 4.5125632,23.2404325 6.17841536,22.9814456 C8.27832995,22.6548704 9.75318705,21.3029662 10.2907757,19.2744941 C10.4304452,18.7468812 10.6179375,18.5856921 11.2504596,18.4527382 C13.9353887,17.8885496 15.701613,16.2785728 15.8023619,13.8857133 C15.858223,12.5528971 16.2857909,12.1849069 17.7629361,12.0552344 C17.999241,12.0346091 18.1624376,11.9820631 18.4668239,11.8582368 C18.5313128,11.8319733 18.5563519,11.8218851 18.5862686,11.8102995 C21.8931376,10.5453093 23.4723017,7.33062767 22.4447421,3.94285017 C21.6091782,1.18974506 18.5260252,-0.215780754 15.0966356,0.504884853 C12.8480543,0.977038633 11.0440549,1.38150035 7.03804242,2.2988805 C6.79152495,2.35533348 6.79152495,2.35533348 6.54504178,2.41176795 C5.72178073,2.60024205 5.15101846,2.73059218 4.57837132,2.86072771 L1.62674012,3.51804829 L1.94026961,4.95021899 L4.89495231,4.2922119 C5.471561,4.16118304 6.04297683,4.03068365 6.86692644,3.84205192 C7.11348482,3.78560022 7.11348482,3.78560022 7.36001374,3.72914462 C11.3575396,2.81370792 13.1558136,2.41052986 15.3931329,1.94074084 C18.1447995,1.36249467 20.4613502,2.41854733 21.0542287,4.37202656 C21.856836,7.01815528 20.663703,9.44699908 18.0678067,10.4400231 C18.0243742,10.4568363 17.9895914,10.4708502 17.9228819,10.4980424 C17.7517226,10.5676711 17.6818721,10.5901616 17.6372044,10.5940603 C15.4859017,10.7829143 14.4391868,11.683779 14.3495014,13.8236276 C14.2808896,15.4532085 13.0482465,16.5768068 10.9538233,17.0169114 C9.80931307,17.2574834 9.17533216,17.8025233 8.8858801,18.8959524 C8.49636535,20.3657002 7.48303432,21.2945539 5.95684785,21.5319039 C4.31847756,21.7866182 3.7952922,21.8610652 3.23263527,21.9168007 C3.08316365,21.9316069 2.92856776,21.9451132 2.74629237,21.9594305 C2.60061647,21.9708731 1.10371874,22.0768484 0.357888127,22.1342917 L0.468609688,23.5967008 Z"/>
        <path fill="#231F20" d="M11.6532815,11.766191 C11.9570543,12.2118175 12.070696,12.6850163 11.5083155,12.901868 C10.9823587,13.104561 10.922624,12.5702563 10.8760018,12.1127066 C11.0756031,11.8041959 11.3196413,11.6372723 11.6532815,11.766191"/>
        <path fill="#231F20" fill-rule="nonzero" d="M18.8162404,10.057257 C17.7609552,10.5413862 13.7423736,11.4470936 12.9799231,11.4401366 C12.5783833,11.4364728 12.2499261,11.7618137 12.2462935,12.166806 C12.2426609,12.5717983 12.5652284,12.9030795 12.9667683,12.9067433 C13.9470346,12.9156878 18.1746059,11.9628783 19.4183178,11.3923053 C19.7838385,11.2246167 19.945372,10.7898175 19.7791129,10.4211541 C19.6128538,10.0524907 19.1817611,9.88956843 18.8162404,10.057257 Z"/>
      </g>
      <g transform="translate(.138 62.196)">
        <path fill="#E6E6E6" d="M21.0126864,4.05938141 L18.0587322,3.40137432 C14.5591523,2.60625138 11.0646719,1.7857918 7.55125108,1.04804886 C4.43776147,0.393767751 1.75479885,1.64718555 1.04745248,3.98188114 C0.131763093,6.99917525 1.51731696,9.82122829 4.47127119,10.9509437 C4.67524337,11.0299344 4.8828579,11.1312809 5.09630022,11.1499108 C6.73390542,11.2937334 7.64231009,11.8027015 7.72098507,13.6798474 C7.81058714,15.8252635 9.4882583,17.096566 11.6940717,17.5600772 C12.5456556,17.738924 12.9841957,18.0683001 13.2078367,18.9103703 C13.6624032,20.6228282 14.8796801,21.7942746 16.7285422,22.0819198 C19.8201776,22.5625705 19.1900493,22.4448297 22.3829423,22.690744"/>
        <path fill="#231F20" fill-rule="nonzero" d="M21.169488,3.34330427 L18.2155338,2.68529718 C17.5858038,2.54221257 16.9996767,2.40831382 15.9931429,2.17785963 C15.8758037,2.15099324 15.8758037,2.15099324 15.7584569,2.12412399 C11.7443513,1.20500267 9.94727537,0.802105497 7.69944377,0.330109115 C4.27002366,-0.3905629 1.18603364,1.01509434 0.352110538,3.76757412 C-0.676134046,7.15574932 0.902973243,10.3705599 4.213485,11.6366379 C4.24056576,11.6471321 4.26542694,11.6571554 4.32973337,11.6833716 C4.63447028,11.8074876 4.79680992,11.8598446 5.03361364,11.8805135 C6.51035552,12.0102084 6.93871811,12.3786545 6.99455184,13.7108195 C7.0944872,16.1036543 8.86062546,17.7137602 11.5457755,18.2779952 C12.1782708,18.4108298 12.3651528,18.571614 12.5055152,19.1001174 C13.0438958,21.1283223 14.5186237,22.4801081 16.6176983,22.8066813 C18.283628,23.0656803 18.8226186,23.1423763 19.4214218,23.2016923 C19.5813884,23.2175382 19.7455359,23.2318789 19.936993,23.2469175 C20.0897281,23.2589145 21.5880915,23.3649936 22.3275816,23.4219486 L22.4383031,21.9595395 C21.6924725,21.9020962 20.1955748,21.7961208 20.0498989,21.7846783 C19.8676235,21.770361 19.7130276,21.7568547 19.563556,21.7420484 C19.000899,21.686313 18.4777137,21.611866 16.8393084,21.3571462 C15.3138573,21.1198171 14.3004326,20.1908775 13.9101826,18.7207151 C13.6197358,17.6271022 12.9867296,17.0824942 11.8422902,16.8421429 C9.74790244,16.4020457 8.51547875,15.2785025 8.44742286,13.6489842 C8.35774478,11.5093097 7.31013486,10.6082324 5.15937315,10.4193419 C5.11457877,10.415432 5.04542521,10.3931289 4.87423044,10.3234032 C4.80747532,10.2961637 4.77273649,10.282158 4.73189124,10.2663402 C2.13243866,9.27219416 0.93941894,6.84339626 1.74269464,4.19651723 C2.33430121,2.24383732 4.65136789,1.18773741 7.40294648,1.7659651 C9.63952295,2.23559816 11.430904,2.63721854 15.436523,3.55439667 C15.5538723,3.58126651 15.5538723,3.58126651 15.6712285,3.60813679 C16.6784973,3.83875927 17.265242,3.97279912 17.8989476,4.11678035 L20.8558848,4.77545855 L21.169488,3.34330427 Z"/>
        <path fill="#F2EEED" d="M20.7644231,7.36327747 C20.6791919,6.40346645 20.5946891,5.44365544 20.5087294,4.48384442 C16.6026622,3.63953861 9.84171295,2.28030313 5.9261756,1.51647837 C2.73036864,0.893495444 0.951439861,3.12758972 1.10077663,7.38190734 C1.22461689,7.38712371 1.42640365,7.460898 1.46064183,7.39084968 C3.54334347,3.11939258 6.55630393,4.21631945 9.48257622,4.89072083 C12.2930214,5.53829519 17.9568918,6.68887609 20.7644231,7.36327747"/>
        <path fill="#BBBDBF" d="M19.9171372,19.5527283 C17.9313224,19.6615268 13.7666476,18.7367399 13.0075797,18.3522194 L13.677774,20.0654224 L14.9890237,21.6765338 L16.9027198,22.0200686 L19.4246901,22.2980263 L20.0380636,22.2920648 L19.9171372,19.5527283 Z"/>
        <path fill="#231F20" fill-rule="nonzero" d="M21.169488,3.34330427 L18.2155338,2.68529718 C17.5858038,2.54221257 16.9996767,2.40831382 15.9931429,2.17785963 C15.8758037,2.15099324 15.8758037,2.15099324 15.7584569,2.12412399 C11.7443513,1.20500267 9.94727537,0.802105497 7.69944377,0.330109115 C4.27002366,-0.3905629 1.18603364,1.01509434 0.352110538,3.76757412 C-0.676134046,7.15574932 0.902973243,10.3705599 4.213485,11.6366379 C4.24056576,11.6471321 4.26542694,11.6571554 4.32973337,11.6833716 C4.63447028,11.8074876 4.79680992,11.8598446 5.03361364,11.8805135 C6.51035552,12.0102084 6.93871811,12.3786545 6.99455184,13.7108195 C7.0944872,16.1036543 8.86062546,17.7137602 11.5457755,18.2779952 C12.1782708,18.4108298 12.3651528,18.571614 12.5055152,19.1001174 C13.0438958,21.1283223 14.5186237,22.4801081 16.6176983,22.8066813 C18.283628,23.0656803 18.8226186,23.1423763 19.4214218,23.2016923 C19.5813884,23.2175382 19.7455359,23.2318789 19.936993,23.2469175 C20.0897281,23.2589145 21.5880915,23.3649936 22.3275816,23.4219486 L22.4383031,21.9595395 C21.6924725,21.9020962 20.1955748,21.7961208 20.0498989,21.7846783 C19.8676235,21.770361 19.7130276,21.7568547 19.563556,21.7420484 C19.000899,21.686313 18.4777137,21.611866 16.8393084,21.3571462 C15.3138573,21.1198171 14.3004326,20.1908775 13.9101826,18.7207151 C13.6197358,17.6271022 12.9867296,17.0824942 11.8422902,16.8421429 C9.74790244,16.4020457 8.51547875,15.2785025 8.44742286,13.6489842 C8.35774478,11.5093097 7.31013486,10.6082324 5.15937315,10.4193419 C5.11457877,10.415432 5.04542521,10.3931289 4.87423044,10.3234032 C4.80747532,10.2961637 4.77273649,10.282158 4.73189124,10.2663402 C2.13243866,9.27219416 0.93941894,6.84339626 1.74269464,4.19651723 C2.33430121,2.24383732 4.65136789,1.18773741 7.40294648,1.7659651 C9.63952295,2.23559816 11.430904,2.63721854 15.436523,3.55439667 C15.5538723,3.58126651 15.5538723,3.58126651 15.6712285,3.60813679 C16.6784973,3.83875927 17.265242,3.97279912 17.8989476,4.11678035 L20.8558848,4.77545855 L21.169488,3.34330427 Z"/>
        <path fill="#231F20" d="M11.1427641,11.5913642 C10.8389912,12.0369908 10.7253496,12.5101895 11.28773,12.7270412 C11.8136868,12.9297342 11.8734215,12.3954295 11.9207722,11.9378799 C11.7204424,11.6293692 11.4771327,11.4624455 11.1427641,11.5913642"/>
        <path fill="#231F20" fill-rule="nonzero" d="M3.37831491,11.2174137 C4.62116046,11.7879123 8.84937434,12.7408666 9.82928378,12.7319165 C10.2308236,12.7282491 10.5533882,12.3969649 10.549752,11.9919727 C10.5461158,11.5869805 10.2176557,11.2616425 9.81611588,11.2653099 C9.05407597,11.2722701 5.03497162,10.3664449 3.98067489,9.88249508 C3.6151897,9.71472782 3.18406254,9.87755728 3.01772542,10.2461849 C2.85138831,10.6148125 3.01282972,11.0496464 3.37831491,11.2174137 Z"/>
      </g>
      <g transform="translate(18.885 59.407)">
        <path fill="#E6E6E6" d="M34.3008422,21.3448889 C34.3008422,31.1513494 26.7913282,39.100924 17.528247,39.100924 C8.26516591,39.100924 0.755651869,31.1513494 0.755651869,21.3448889 C0.755651869,6.62784051 8.26516591,3.58955447 17.528247,3.58955447 C26.7913282,3.58955447 34.3008422,4.24401922 34.3008422,21.3448889"/>
        <g transform="translate(.885 1.19)">
          <mask id="c" fill="white">
            <use xlink:href="#b"/>
          </mask>
          <path fill="#FFFFFF" d="M31.7885016,11.2279034 C31.7885016,11.2279034 34.8233688,23.9777549 27.6204964,30.6421187 C27.6204964,30.6421187 25.1040242,32.5400801 22.8121767,33.78204 C19.3365474,35.6654953 15.6024067,37.1820825 15.8177478,37.3086799 C15.9623832,37.39371 22.4583869,36.322062 24.6008263,35.3597474 C26.555159,34.4819242 29.5222256,31.7601317 29.5222256,31.7601317 C29.5222256,31.7601317 33.1644548,28.2411727 34.0547775,23.1909069 C34.9451001,18.1413034 33.4882085,9.98603479 33.4882085,9.98603479 L31.7885016,11.2279034 Z" mask="url(#c)" transform="rotate(-10 25.076 23.65)"/>
          <path fill="#BBBDBF" d="M16.4432343,12.4219333 C16.4432343,12.4219333 19.4779107,25.1717847 12.2754913,31.8361486 C12.2754913,31.8361486 9.75917735,33.73411 7.46747396,34.9760699 C3.99206321,36.8595251 0.258157431,38.3761123 0.473484907,38.5027098 C0.61811121,38.5877399 7.11370639,37.5160918 9.2560111,36.5537772 C11.2102209,35.6759541 14.177101,32.9541615 14.177101,32.9541615 C14.177101,32.9541615 17.819101,29.4352026 18.7093677,24.3849367 C19.5996344,19.3353332 18.1428344,11.1800646 18.1428344,11.1800646 L16.4432343,12.4219333 Z" mask="url(#c)" transform="scale(-1 1) rotate(5 0 -198.034)"/>
          <path fill="#BBBDBF" d="M14.9602488,16.789652 C31.6225777,16.789652 34.1417095,8.06338955 34.1417095,8.06338955 L30.9731792,6.89557463 L-2.23545486,7.48433451 L-3.33976611,9.0233593 C-3.33976611,9.0233593 -1.70208004,16.789652 14.9602488,16.789652" mask="url(#c)"/>
        </g>
        <path fill="#231F20" fill-rule="nonzero" d="M33.576472,20.1867481 C33.576472,11.8190647 32.0188724,6.94424063 28.9875963,4.46881688 C26.5947202,2.51472816 23.7135269,2.00659856 17.7160471,2.00659856 C6.98394298,2.00659856 1.85562224,6.73675702 1.85562224,20.1867481 C1.85562224,30.2463251 8.97791362,38.3675906 17.7160471,38.3675906 C26.4541806,38.3675906 33.576472,30.2463251 33.576472,20.1867481 Z M35.030636,20.1867481 C35.030636,31.0190081 27.2997259,39.8342573 17.7160471,39.8342573 C8.13236838,39.8342573 0.401458256,31.0190081 0.401458256,20.1867481 C0.401458256,5.8960279 6.20840505,0.539931835 17.7160471,0.539931835 C24.0380799,0.539931835 27.1620361,1.09087529 29.902651,3.32893708 C33.3428734,6.13831772 35.030636,11.4205133 35.030636,20.1867481 Z"/>
        <path fill="#221F20" fill-rule="nonzero" d="M16.5053156,14.7769698 L16.5053156,27.310075 C16.5053156,27.7703123 16.8752312,28.1434083 17.3315451,28.1434083 C17.7878591,28.1434083 18.1577746,27.7703123 18.1577746,27.310075 L18.1577746,14.7769698 C18.1577746,14.3167326 17.7878591,13.9436365 17.3315451,13.9436365 C16.8752312,13.9436365 16.5053156,14.3167326 16.5053156,14.7769698 Z"/>
      </g>
      <g transform="translate(24.178)">
        <path fill="#FFFFFF" d="M1.68886092,7.01995941 L3.39421403,5.69649329 L5.56943162,5.69649329 L6.863198,5.69649329 L7.7446492,5.93719124 L8.65596776,5.51541093 L9.18556695,3.77240009 L9.9796015,2.80960829 L11.3316457,1.48614217 L12.9197148,1.00549146 L15.0067872,0.854962096 L16.5059827,1.27599721 L17.828888,2.50854955 L18.2412032,4.19269 L18.5639163,5.24490519 L19.2275544,6.05716762 L20.8870137,6.47820273 C20.8870137,6.47820273 21.3568782,6.35822635 22.2091905,6.74945367 C23.0622313,7.13993579 23.5320958,7.6921252 23.5320958,7.6921252 L24.3261304,9.27491915 L24.0908339,10.9396845 L24.0325561,12.7937294 C24.0325561,12.7937294 23.8854048,13.5389243 23.0330924,14.3541675 C22.1800517,15.1701559 21.0042977,15.7111674 21.0042977,15.7111674 L18.8873579,16.2432366 L15.5065191,15.6508066 L12.1060115,15.3504931 L9.43397592,15.5308302 L7.56835896,15.6806144 L5.36400249,14.8385442 L4.62897418,14.3541675 L3.39421403,13.094043 L2.39475035,11.155791 L1.27800268,8.67429206 L1.51257068,7.38063374 L1.68886092,7.01995941 Z"/>
        <path fill="#EE5F56" d="M18.1911572 5.09728208C18.9327417 7.33733791 18.0323503 9.54684076 15.7595174 10.5394404 14.1372101 11.2481207 12.7990069 12.0514408 12.654041 14.0530343 12.6307299 14.3734681 12.5644389 14.6611133 12.1652362 14.7170029 11.6523919 14.7885416 11.3464336 14.5180359 11.1446469 14.0977459 10.3083609 12.3517543 9.52889583 10.5863876 9.51505486 8.58628455 9.41452572 7.35745818 9.69862982 6.22103597 10.333129 5.1822343 10.7738546 4.46014045 11.1388191 3.80809492 12.05378 4.85434855 12.7771528 5.68226007 13.8421789 5.15168131 13.86549 4.30066874 13.9244963 2.10457941 15.0616412 3.12475121 15.9977278 3.33862214 16.6548096 3.48840631 17.0685817 4.2186973 17.8152656 4.1471586 17.8152656 4.1471586 18.078244 4.76417996 18.1911572 5.09728208M9.73629183 14.5998583C6.25492383 14.9799077 2.30077746 12.3650188 1.8119727 9.4617395 2.84421762 7.94526791 4.60566307 6.59199399 6.06843498 7.2894964 7.53120689 7.98550843 7.7031263 8.3245721 7.72862282 8.39313003 7.75411934 8.46168796 8.65086845 12.6444669 9.73629183 14.5998583zM19.7689548 14.3308998C18.4839301 13.9650091 17.3205602 13.9679899 16.1302368 14.2917202 15.4543287 14.4755458 14.7614378 15.0227564 14.4401817 14.203042 14.1342234 13.4220777 14.8364705 12.1737625 15.5387175 11.9613819 17.4589699 11.3831107 18.5997571 10.5173081 19.7099486 8.98667776 20.1987533 8.9665575 20.6560941 8.90858209 21.3661351 8.98667776 22.813881 9.32835821 23.2022437 10.0366574 23.9030338 11.0173338 23.4863478 13.4503951 21.9310599 14.9456856 19.7689548 14.3308998z"/>
        <path fill="#231F20" d="M2.08158021,9.52917964 C1.79383375,6.97614195 3.92242912,5.70632986 6.18287794,6.50964995 C7.24426174,6.76301621 7.80882759,7.29508536 7.54657765,8.54552239 C7.2843277,9.79595941 8.39743302,12.4704639 9.40053905,14.2760711 C6.18506336,14.6270579 2.36932668,12.0814721 2.08158021,9.52917964 L2.08158021,9.52917964 Z M9.86457576,4.50284012 C10.6090742,2.82242564 11.9523767,1.8655954 13.7313055,1.86112423 C15.4395725,1.85665307 17.7094914,2.50571781 17.9651851,5.22418877 C18.2201504,7.94116933 17.8143914,9.46956405 15.6450016,10.4167068 C14.09627,11.0940889 12.81853,11.8601493 12.6815772,13.7700838 C12.6597231,14.077104 12.596346,14.3505906 12.2138982,14.4034994 C11.7250934,14.4720573 11.4329761,14.2142199 11.2406595,13.8125599 C10.4429826,12.1470493 9.71888135,10.6514431 9.46755848,8.53285407 C9.21550715,6.41426501 9.284712,5.81140234 9.86457576,4.50284012 L9.86457576,4.50284012 Z M23.8694512,10.9882712 C23.4607784,13.3743853 22.0831053,14.0586364 19.8162326,13.9444594 C17.6222826,13.8339552 17.1519957,13.6753731 16.2481765,14.199316 C15.7191542,14.5059895 14.9056025,14.9161935 14.5909025,14.1121282 C14.290772,13.3460679 14.9791781,12.708181 15.6675842,12.5002717 C17.551413,11.9331784 19.8053056,10.2140137 19.7594118,8.99785569 C19.7127896,7.78095243 20.2474881,7.4210233 21.3380108,7.83758724 C23.1723035,8.05443896 23.7915047,9.29444325 23.8694512,10.9882712 Z M21.7772794,15.8819661 C24.6241483,14.4564082 25.9536098,12.5338054 25.6367245,10.3339901 C25.296528,7.97321271 23.8971332,6.00068184 20.7727165,5.79426286 C19.9102055,5.73688285 19.8949076,5.19214539 19.7302729,4.64666273 C18.8830599,1.8514367 16.8593645,0.177728981 14.1122964,0.0108053259 C11.5925115,-0.142704821 9.08875301,1.4140073 8.18544765,3.98343928 C7.83578106,4.97827446 7.52836585,4.9126973 6.73651671,4.67498014 C4.25315544,3.93127564 1.93442886,4.8836347 0.859932559,6.98135832 C-0.293967193,9.23482766 0.333247256,11.8467357 2.46329958,13.5524868 C3.13203693,14.0875368 4.68951021,15.3908826 5.36626076,15.8819661 L21.7772794,15.8819661 Z"/>
      </g>
      <g transform="translate(27.48 77.928)">
        <polygon fill="#EE5F56" points=".884 9.519 16.859 9.519 16.859 1.22 .884 1.22"/>
        <path fill="#231F20" fill-rule="nonzero" d="M0.884020702,10.2520178 C0.482464405,10.2520178 0.156938708,9.92369332 0.156938708,9.51868449 L0.156938708,1.22019421 C0.156938708,0.815185374 0.482464405,0.486860845 0.884020702,0.486860845 L16.8586846,0.486860845 C17.2602409,0.486860845 17.5857666,0.815185374 17.5857666,1.22019421 L17.5857666,9.51868449 C17.5857666,9.92369332 17.2602409,10.2520178 16.8586846,10.2520178 L0.884020702,10.2520178 Z M16.1316026,8.78535113 L16.1316026,1.95352757 L1.6111027,1.95352757 L1.6111027,8.78535113 L16.1316026,8.78535113 Z"/>
        <polygon fill="#231F20" points="4.355 5.039 5.982 5.039 5.982 3.375 4.355 3.375"/>
        <polygon fill="#231F20" points="6.669 5.039 13.932 5.039 13.932 3.375 6.669 3.375"/>
        <polygon fill="#231F20" points="4.355 7.522 5.982 7.522 5.982 5.858 4.355 5.858"/>
        <polygon fill="#231F20" points="6.669 7.522 13.932 7.522 13.932 5.858 6.669 5.858"/>
      </g>
      <g transform="translate(56.612 36.458)">
        <path fill="#E6E6E6" d="M14.6436483,9.08333799 C14.6436483,13.6275364 11.6481712,17.3102896 7.95263241,17.3102896 C4.25782209,17.3102896 1.26307343,13.6275364 1.26307343,9.08333799 C1.26307343,4.53913956 4.25782209,0.856386417 7.95263241,0.856386417 C11.6481712,0.856386417 14.6436483,4.53913956 14.6436483,9.08333799"/>
        <path fill="#231F20" fill-rule="nonzero" d="M13.9165663,9.08333799 C13.9165663,4.91576499 11.2114015,1.58971978 7.95263241,1.58971978 C4.6946613,1.58971978 1.99015543,4.91570523 1.99015543,9.08333799 C1.99015543,13.2509708 4.6946613,16.5769562 7.95263241,16.5769562 C11.2114015,16.5769562 13.9165663,13.250911 13.9165663,9.08333799 Z M15.3707303,9.08333799 C15.3707303,14.0039259 12.0851327,18.0436229 7.95263241,18.0436229 C3.82084369,18.0436229 0.535991438,14.0039309 0.535991438,9.08333799 C0.535991438,4.16274508 3.82084369,0.123053057 7.95263241,0.123053057 C12.0851327,0.123053057 15.3707303,4.16275006 15.3707303,9.08333799 Z"/>
      </g>
      <g transform="translate(.47 36.458)">
        <path fill="#CCCCCC" d="M14.5961277,9.08333799 C14.5961277,13.6275364 11.6006505,17.3102896 7.90511175,17.3102896 C4.2110299,17.3102896 1.21555277,13.6275364 1.21555277,9.08333799 C1.21555277,4.53913956 4.2110299,0.856386417 7.90511175,0.856386417 C11.6006505,0.856386417 14.5961277,4.53913956 14.5961277,9.08333799"/>
        <path fill="#231F20" fill-rule="nonzero" d="M13.8690457,9.08333799 C13.8690457,4.91576499 11.1638809,1.58971978 7.90511175,1.58971978 C4.6476031,1.58971978 1.94263476,4.91602375 1.94263476,9.08333799 C1.94263476,13.2506522 4.6476031,16.5769562 7.90511175,16.5769562 C11.1638809,16.5769562 13.8690457,13.250911 13.8690457,9.08333799 Z M15.3232097,9.08333799 C15.3232097,14.0039259 12.0376121,18.0436229 7.90511175,18.0436229 C3.77381429,18.0436229 0.488470777,14.0036306 0.488470777,9.08333799 C0.488470777,4.16304534 3.77381429,0.123053057 7.90511175,0.123053057 C12.0376121,0.123053057 15.3232097,4.16275006 15.3232097,9.08333799 Z"/>
      </g>
      <path fill="#E6E6E6" d="M68.3415494,44.9360715 C68.3415494,61.9906017 54.0722386,75.8154573 36.4708965,75.8154573 C18.8695545,75.8154573 4.60024367,61.9906017 4.60024367,44.9360715 C4.60024367,27.8815413 18.8695545,14.0566857 36.4708965,14.0566857 C54.0722386,14.0566857 68.3415494,27.8815413 68.3415494,44.9360715"/>
      <path fill="#3F4953" d="M36.1977195,67.4316422 C21.3354324,67.4316422 9.24425308,58.5727654 9.24425308,47.6839777 C9.24425308,36.7951899 21.3354324,27.9363131 36.1977195,27.9363131 C51.0600066,27.9363131 63.1511859,36.7951899 63.1511859,47.6839777 C63.1511859,58.5727654 51.0600066,67.4316422 36.1977195,67.4316422"/>
      <g transform="translate(12.324 27.328)">
        <g>
          <path fill="#FFCE39" d="M23.9672387,39.1861325 C15.731862,39.1861325 8.14191152,36.4169883 3.14386468,31.5881254 C0.833879757,29.6588158 0.833879757,22.2411459 0.833879757,19.8028682 C0.833879757,17.8035103 0.833879757,11.7435855 2.61717937,9.04598001 C7.52343873,3.95555373 15.4987509,0.917394166 23.9672387,0.917394166 C32.8800944,0.917394166 41.0958023,4.20966519 45.9437839,9.72485256 C47.3395364,11.2390886 47.3395364,16.3928564 47.3395364,19.8028682 C47.3395364,23.7367521 47.3395364,29.1237659 45.4724625,30.8988201 C40.5487198,36.0980449 32.5195007,39.1861325 23.9672387,39.1861325"/>
          <path fill="#231F20" d="M23.9672387,0.172571875 C14.9167017,0.172571875 6.91807845,3.49092472 2.053342,8.57017308 C0.39752499,11.0047248 0.105407692,15.7456547 0.105407692,19.8032408 C0.105407692,24.388425 0.39752499,30.2560895 2.64413284,32.1302547 C7.55184915,36.8711846 15.2743815,39.9317 23.9672387,39.9317 C33.0716825,39.9317 41.1118287,36.574597 45.9678235,31.4446754 C48.0680085,29.4482983 48.0680085,24.0970538 48.0680085,19.8032408 C48.0680085,16.0087085 48.0680085,10.9428736 46.4850387,9.22594458 C41.6953349,3.77782475 33.4024089,0.172571875 23.9672387,0.172571875 M23.9672387,1.66296165 C32.6768507,1.66296165 40.6900434,4.86282851 45.4251118,10.248352 C46.6110644,11.5345583 46.6110644,16.9133751 46.6110644,19.8032408 C46.6110644,23.3846475 46.6110644,28.7992335 44.976373,30.3529649 L44.9479626,30.3797919 L44.9217376,30.4073641 C40.1597157,35.4381748 32.3264556,38.4413102 23.9672387,38.4413102 C15.9161654,38.4413102 8.50833297,35.7451951 3.64432499,31.0467413 L3.60571597,31.0087364 L3.56419306,30.9744574 C2.23618848,29.8670978 1.56235182,26.1083348 1.56235182,19.8032408 C1.56235182,17.8739313 1.56235182,12.053214 3.18465911,9.51880617 C7.96052197,4.59679393 15.718021,1.66296165 23.9672387,1.66296165"/>
          <g transform="translate(.59 .896)">
            <mask id="e" fill="white">
              <use xlink:href="#d"/>
            </mask>
            <use fill="#FFCE39" xlink:href="#d"/>
            <path fill="#D49954" d="M-0.749990798,10.4056066 C0.0874897068,8.73676362 7.00194821,1.28722036 21.7724257,1.28722036 C36.5437099,1.28722036 47.2131148,12.1487304 47.2131148,12.1487304 L46.6983628,8.6938458 L43.7954197,5.64255381 L30.3561974,-0.209951313 L21.5069815,-0.754677499 L13.7889289,-0.0737697668 L6.07006961,2.44435083 L0.280319996,6.90367747 L-0.749990798,10.4056066 Z" mask="url(#e)" transform="rotate(-3 23.232 5.697)"/>
          </g>
        </g>
        <g transform="translate(17.397 22.316)">
          <path fill="#FFCD3A" d="M10.7749914,6.66536997 C10.7254553,6.85166869 10.7152567,6.99102013 10.6540651,7.09981859 C10.2461207,7.82638361 6.03919454,9.16326324 5.2291336,8.83090632 C1.12346504,7.14974665 1.12273657,7.14900145 3.87781792,3.66074418 C4.14589564,3.32093531 4.45403932,3.01018904 4.69589205,2.6517503 C5.65528976,1.23215403 6.57243609,1.04063895 7.63964766,2.58393756 C8.37758987,3.65180184 9.27142509,4.6049061 10.0785721,5.62358751 C10.3444644,5.95967041 10.5586352,6.3397198 10.7749914,6.66536997"/>
          <path fill="#D49954" d="M9.07605336,9.46672337 C8.63832967,11.1441726 7.22401791,12.1346987 6.3137516,13.8053635 C5.24348402,12.3958991 4.29010857,11.1424765 3.33590409,9.88735776 C5.38773388,11.3918041 7.22484693,10.1816322 9.09346283,9.48453249 L9.07605336,9.46672337 Z"/>
          <path fill="#4E401C" d="M10.8411367,6.66536997 C10.625509,6.3397198 10.4113382,5.95967041 10.1447174,5.62358751 C9.33829883,4.6049061 8.4444636,3.65180184 7.7065214,2.58393756 C6.63930982,1.04063895 5.72216349,1.23215403 4.76276578,2.6517503 C4.52091306,3.01018904 4.21276937,3.32093531 3.94396318,3.66074418 C1.1896103,7.14900145 1.19033877,7.14974665 5.29600733,8.83090632 C6.10606827,9.16326324 10.3129945,7.82638361 10.7209388,7.09981859 C10.7821305,6.99102013 10.7923291,6.85166869 10.8411367,6.66536997 L10.8411367,6.66536997 Z M8.81088505,9.74526044 C7.16890902,10.3578106 5.55461492,11.4212037 3.75237503,10.099228 C4.5901179,11.2021165 5.42786078,12.3035145 6.36831822,13.5427736 C7.16818054,12.0747397 8.41095389,11.2036068 8.79558714,9.72961135 L8.89903017,9.6647794 L8.81088505,9.74526044 Z M6.15924673,14.8625137 C5.64276004,14.7701096 5.19402125,14.5972244 4.86693729,14.152343 C4.52309847,13.685851 4.13919369,13.2506572 3.78224238,12.7938527 C-1.58368285,5.92166547 -0.338724092,7.11174171 4.22151104,1.27388495 C5.54077395,-0.415471866 6.77262021,-0.368524588 8.15744561,1.20160104 C9.25743843,2.44831209 10.2401472,3.80158601 11.3131866,5.07363369 C12.3490739,6.30022447 12.4627155,7.5059498 11.4698081,8.82196398 C10.1607438,10.5560325 8.88300379,12.3139472 7.61327698,14.0793139 C7.23665692,14.6031859 6.725998,14.7738356 6.15924673,14.8625137 L6.15924673,14.8625137 Z"/>
        </g>
        <g fill="#EE5F56" transform="translate(8.375 23.987)">
          <path d="M29.1657346 2.60348333C28.1764695 2.49244929 27.1697212 2.3896124 27.147867 1.30088266 27.1267413.197249032 28.1364036.0146762847 28.9938152.00051758182 29.7922206-.0128959262 30.6904266.230782802 30.7822141 1.15556966 30.8973127 2.32179966 29.8410282 2.37321811 29.1657346 2.60348333M1.90043819 2.60963735C.944682837 2.44569448-.0511384763 2.33018927.00203998451 1.19823823.0457483084.24662436.951239086.0133783599 1.74381669.000710046742 2.60996998-.0134486561 3.60142046.176576041 3.63711559 1.25561824 3.67499614 2.39278564 2.60924151 2.41067032 1.90043819 2.60963735"/>
        </g>
        <g transform="translate(7.49 5.605)">
          <path fill="#FEFEFE" d="M16.8335479,9.3275963 C16.8335479,13.8188859 13.2742334,17.4599081 8.88373226,17.4599081 C4.49323112,17.4599081 0.933916607,13.8188859 0.933916607,9.3275963 C0.933916607,4.8363067 4.49323112,1.19528448 8.88373226,1.19528448 C13.2742334,1.19528448 16.8335479,4.8363067 16.8335479,9.3275963"/>
          <path fill="#020303" d="M8.74991194,0.440551094 C3.95875116,0.440551094 0.0606971419,4.42808894 0.0606971419,9.32774534 C0.0606971419,14.2288921 3.95875116,18.2156848 8.74991194,18.2156848 C13.5410727,18.2156848 17.4383983,14.2274017 17.4383983,9.32774534 C17.4383983,4.42808894 13.5410727,0.440551094 8.74991194,0.440551094 M8.74991194,17.4600572 C4.3594108,17.4600572 0.801553233,13.8190349 0.801553233,9.32923573 C0.801553233,4.83720094 4.36086774,1.1976691 8.74991194,1.1976691 C13.1404131,1.1976691 16.6989991,4.83794613 16.6989991,9.32923573 C16.6989991,13.8190349 13.1389561,17.4600572 8.74991194,17.4600572"/>
          <path fill="#221E1F" d="M8.74991194,4.53837779 C6.16747847,4.53837779 4.06656503,6.68751985 4.06656503,9.32923573 C4.06656503,11.9709516 6.16747847,14.1186033 8.74991194,14.1186033 C11.3323454,14.1186033 13.4332588,11.9709516 13.4332588,9.32923573 C13.4332588,6.68751985 11.3316169,4.53837779 8.74991194,4.53837779 M8.74991194,10.9798424 C7.8589906,10.9798424 7.13488937,10.2383735 7.13488937,9.32774534 C7.13488937,8.41637199 7.8589906,7.67564827 8.74991194,7.67564827 C9.64083328,7.67564827 10.3649345,8.41637199 10.3649345,9.32774534 C10.3649345,10.2383735 9.63937633,10.9798424 8.74991194,10.9798424 M10.9295004,7.79413426 C10.5550657,7.79413426 10.2498359,7.4811524 10.2498359,7.09812223 C10.2498359,6.71434686 10.5543372,6.4021102 10.9295004,6.4021102 C11.3046635,6.4021102 11.6098933,6.71434686 11.6098933,7.09812223 C11.6098933,7.4811524 11.3053919,7.79413426 10.9295004,7.79413426"/>
        </g>
        <g transform="translate(22.822 5.605)">
          <path fill="#FEFEFE" d="M16.8637884,9.3275963 C16.8637884,13.8568908 13.2746065,17.5284661 8.84768175,17.5284661 C4.42075701,17.5284661 0.830846673,13.8568908 0.830846673,9.3275963 C0.830846673,4.79904696 4.42075701,1.12747174 8.84768175,1.12747174 C13.2746065,1.12747174 16.8637884,4.79904696 16.8637884,9.3275963"/>
          <path fill="#020303" d="M8.78015239,0.440551094 C3.98899162,0.440551094 0.0909375962,4.42808894 0.0909375962,9.32774534 C0.0909375962,14.2288921 3.98899162,18.2156848 8.78015239,18.2156848 C13.5713132,18.2156848 17.4679102,14.2274017 17.4679102,9.32774534 C17.4679102,4.42808894 13.5713132,0.440551094 8.78015239,0.440551094 M8.78015239,17.4600572 C4.38965125,17.4600572 0.831065215,13.8190349 0.831065215,9.32923573 C0.831065215,4.83720094 4.3911082,1.1976691 8.78015239,1.1976691 C13.1706535,1.1976691 16.7285111,4.83794613 16.7285111,9.32923573 C16.7285111,13.8190349 13.1691966,17.4600572 8.78015239,17.4600572"/>
          <path fill="#221E1F" d="M8.78015239,4.53837779 C6.19771892,4.53837779 4.09680548,6.68751985 4.09680548,9.32923573 C4.09680548,11.9709516 6.19771892,14.1186033 8.78015239,14.1186033 C11.3625859,14.1186033 13.4634993,11.9709516 13.4634993,9.32923573 C13.4634993,6.68751985 11.3611289,4.53837779 8.78015239,4.53837779 M8.78015239,10.9798424 C7.88923106,10.9798424 7.16512982,10.2383735 7.16512982,9.32774534 C7.16512982,8.41637199 7.88923106,7.67564827 8.78015239,7.67564827 C9.67107373,7.67564827 10.395175,8.41637199 10.395175,9.32774534 C10.395175,10.2383735 9.66961679,10.9798424 8.78015239,10.9798424 M10.9597408,7.77699477 C10.5940478,7.77699477 10.2961028,7.47221006 10.2961028,7.09812223 C10.2961028,6.7240344 10.5933194,6.41850449 10.9597408,6.41850449 C11.3254338,6.41850449 11.6233789,6.7240344 11.6233789,7.09812223 C11.6233789,7.47221006 11.3261623,7.77699477 10.9597408,7.77699477"/>
        </g>
        <g fill="#D49954" transform="translate(8.137 30.968)">
          <g transform="translate(23.607)">
            <path d="M3.01108786 2.45423357C2.75539416 2.45423357 2.54777962 2.24185303 2.54777962 1.97954442 2.54777962 1.71723582 2.75539416 1.50560048 3.01108786 1.50560048 3.26751002 1.50560048 3.47512456 1.71723582 3.47512456 1.97954442 3.47512456 2.24185303 3.26751002 2.45423357 3.01108786 2.45423357zM.706577144 1.48016805C.461554672 1.48016805.262926989 1.27818297.262926989 1.02810621.262926989.778029448.461554672.576044371.706577144.576044371.950874696.576044371 1.14877746.778029448 1.14877746 1.02810621 1.14877746 1.27818297.950874696 1.48016805.706577144 1.48016805zM5.62429306 1.02512544C5.38941945 1.02512544 5.19949079.831278953 5.19949079.591560399 5.19949079.352581718 5.38941945.158735233 5.62429306.158735233 5.85844175.158735233 6.04837041.352581718 6.04837041.591560399 6.04837041.831278953 5.85844175 1.02512544 5.62429306 1.02512544z"/>
          </g>
          <g transform="matrix(-1 0 0 1 7.377 0)">
            <path d="M2.78893102 2.45423357C2.53323733 2.45423357 2.32562279 2.24185303 2.32562279 1.97954442 2.32562279 1.71723582 2.53323733 1.50560048 2.78893102 1.50560048 3.04462472 1.50560048 3.25223925 1.71723582 3.25223925 1.97954442 3.25223925 2.24185303 3.04462472 2.45423357 2.78893102 2.45423357zM.48369539 1.48016805C.239397837 1.48016805.0407701533 1.27818297.0407701533 1.02810621.0407701533.778029448.239397837.576044371.48369539.576044371.728717861.576044371.926620626.778029448.926620626 1.02810621.926620626 1.27818297.728717861 1.48016805.48369539 1.48016805zM5.40141131 1.02512544C5.16726261 1.02512544 4.97733395.831278953 4.97733395.591560399 4.97733395.352581718 5.16726261.158735233 5.40141131.158735233 5.63556.158735233 5.82621358.352581718 5.82621358.591560399 5.82621358.831278953 5.63556 1.02512544 5.40141131 1.02512544z"/>
          </g>
        </g>
      </g>
      <g transform="translate(33.376 89.978)">
        <path fill="#E6E6E6" d="M20.4647119,7.52093997 L2.66522548,7.52093997 C2.66522548,7.52093997 5.70513941,2.33438354 11.5846374,2.33438354 C17.463407,2.33438354 20.4647119,7.52093997 20.4647119,7.52093997"/>
        <path fill="#231F20" fill-rule="nonzero" d="M17.6692164,5.480855 C15.9461784,3.96851078 13.9042976,3.0677169 11.5372487,3.0677169 C9.16919607,3.0677169 7.11911757,3.96909953 5.38366736,5.48241026 C4.90471811,5.9000535 4.47748781,6.34153452 4.10320855,6.78760659 L18.9411111,6.78760661 C18.5699184,6.34100692 18.1455856,5.8989736 17.6692164,5.480855 Z M20.3701435,8.25427333 L2.66522548,8.25427333 C2.10294232,8.25427333 1.75345895,7.63809538 2.03846766,7.14922976 C2.14814999,6.96109544 2.35364248,6.65140498 2.65508274,6.26039647 C3.15158033,5.61637242 3.74375099,4.97359895 4.43261159,4.37291325 C6.41459456,2.64462621 8.7880736,1.60105018 11.5372487,1.60105018 C14.2867936,1.60105018 16.6536614,2.64521496 18.6238277,4.37446851 C19.3086236,4.97552737 19.896365,5.61869156 20.3883832,6.26311413 C20.6871319,6.65440132 20.8905038,6.96435948 20.9989435,7.15275499 C21.2803446,7.6416418 20.9306248,8.25427333 20.3701435,8.25427333 Z"/>
        <polygon fill="#E6E6E6" points="2.665 9.624 20.465 9.624 20.465 7.799 2.665 7.799"/>
        <path fill="#231F20" fill-rule="nonzero" d="M2.66529832,10.3578095 C2.26374203,10.3578095 1.93821633,10.0294849 1.93821633,9.6244761 L1.93821633,7.79874862 C1.93821633,7.39373979 2.26374203,7.06541526 2.66529832,7.06541526 L20.4647848,7.06541526 C20.8663411,7.06541526 21.1918668,7.39373979 21.1918668,7.79874862 L21.1918668,9.6244761 C21.1918668,10.0294849 20.8663411,10.3578095 20.4647848,10.3578095 L2.66529832,10.3578095 Z M19.7377028,8.89114274 L19.7377028,8.53208198 L3.39238032,8.53208198 L3.39238032,8.89114274 L19.7377028,8.89114274 Z"/>
        <path fill="#BBBDBF" d="M5.46313406,6.95764715 L9.90244283,6.95764715 C9.90244283,6.95764715 7.24133437,2.78604616 3.06791791,2.24876065 C3.06791791,2.24876065 5.46313406,3.80472758 5.46313406,6.95764715" transform="matrix(-1 0 0 1 12.97 0)"/>
        <path fill="#231F20" fill-rule="nonzero" d="M17.6692164,5.480855 C15.9461784,3.96851078 13.9042976,3.0677169 11.5372487,3.0677169 C9.16919607,3.0677169 7.11911757,3.96909953 5.38366736,5.48241026 C4.90471811,5.9000535 4.47748781,6.34153452 4.10320855,6.78760659 L18.9411111,6.78760661 C18.5699184,6.34100692 18.1455856,5.8989736 17.6692164,5.480855 Z M20.3701435,8.25427333 L2.66522548,8.25427333 C2.10294232,8.25427333 1.75345895,7.63809538 2.03846766,7.14922976 C2.14814999,6.96109544 2.35364248,6.65140498 2.65508274,6.26039647 C3.15158033,5.61637242 3.74375099,4.97359895 4.43261159,4.37291325 C6.41459456,2.64462621 8.7880736,1.60105018 11.5372487,1.60105018 C14.2867936,1.60105018 16.6536614,2.64521496 18.6238277,4.37446851 C19.3086236,4.97552737 19.896365,5.61869156 20.3883832,6.26311413 C20.6871319,6.65440132 20.8905038,6.96435948 20.9989435,7.15275499 C21.2803446,7.6416418 20.9306248,8.25427333 20.3701435,8.25427333 Z"/>
        <path fill="#221F20" fill-rule="nonzero" d="M0.409705718,1.31979981 C1.82372701,1.90091449 5.18037349,1.93136842 6.05204037,1.23522178 C6.30757077,1.0311454 6.35069277,0.656779445 6.14835605,0.399052025 C5.94601933,0.141324606 5.5748447,0.0978318491 5.3193143,0.301908235 C4.84610346,0.679832571 1.91580356,0.653246772 0.855091571,0.217330205 C0.553248209,0.0932828445 0.208852798,0.239518819 0.085862891,0.543957395 C-0.0371270162,0.848395971 0.107862356,1.19575245 0.409705718,1.31979981 Z"/>
        <polygon fill="#221F20" fill-rule="nonzero" points="2.361 1.069 2.361 7.489 3.541 7.489 3.541 1.069"/>
      </g>
      <g transform="translate(17.573 91.47)">
        <path fill="#E6E6E6" d="M18.6217327,6.02840266 L0.822246271,6.02840266 C0.822246271,6.02840266 3.86143173,0.841846229 9.74092977,0.841846229 C15.6196993,0.841846229 18.6217327,6.02840266 18.6217327,6.02840266"/>
        <path fill="#231F20" fill-rule="nonzero" d="M15.9100456,3.98961439 C14.1767859,2.47656665 12.1225203,1.57517959 9.74092977,1.57517959 C7.35836077,1.57517959 5.29616079,2.47712987 3.55088662,3.99110582 C3.06985828,4.40838429 2.64074924,4.84943212 2.26477919,5.29506928 L17.1878709,5.2950693 C16.8148851,4.84892644 16.3885782,4.40734905 15.9100456,3.98961439 Z M18.6217327,6.76173602 L0.822246271,6.76173602 C0.259242007,6.76173602 -0.0901434149,6.14413718 0.196310252,5.65528642 C0.306565703,5.46712873 0.513122096,5.1574236 0.816116805,4.76641605 C1.3151383,4.12244054 1.91032066,3.47973296 2.60266589,2.87914307 C4.59422577,1.15152124 6.97893798,0.108512869 9.74092977,0.108512869 C12.5032626,0.108512869 14.8815674,1.15208447 16.8616941,2.88063449 C17.5501071,3.48158415 18.1410053,4.12466903 18.6356945,4.7690297 C18.9360864,5.16030716 19.1405925,5.47027182 19.2496468,5.65868285 C19.5326159,6.14756325 19.1829975,6.76173602 18.6217327,6.76173602 Z"/>
        <polygon fill="#E6E6E6" points=".823 8.132 18.622 8.132 18.622 6.306 .823 6.306"/>
        <path fill="#231F20" fill-rule="nonzero" d="M0.822829049,8.86527215 C0.421272752,8.86527215 0.0957470548,8.53694762 0.0957470548,8.13193879 L0.0957470548,6.30621131 C0.0957470548,5.90120248 0.421272752,5.57287795 0.822829049,5.57287795 L18.6223155,5.57287795 C19.0238718,5.57287795 19.3493975,5.90120248 19.3493975,6.30621131 L19.3493975,8.13193879 C19.3493975,8.53694762 19.0238718,8.86527215 18.6223155,8.86527215 L0.822829049,8.86527215 Z M17.8952335,7.39860543 L17.8952335,7.03954467 L1.54991104,7.03954467 L1.54991104,7.39860543 L17.8952335,7.39860543 Z"/>
        <path fill="#BBBDBF" d="M3.62015486,5.46510984 L8.05946362,5.46510984 C8.05946362,5.46510984 5.39835517,1.29350885 1.2249387,0.756223336 C1.2249387,0.756223336 3.62015486,2.31219026 3.62015486,5.46510984" transform="matrix(-1 0 0 1 9.284 0)"/>
        <path fill="#231F20" fill-rule="nonzero" d="M15.9100456,3.98961439 C14.1767859,2.47656665 12.1225203,1.57517959 9.74092977,1.57517959 C7.35836077,1.57517959 5.29616079,2.47712987 3.55088662,3.99110582 C3.06985828,4.40838429 2.64074924,4.84943212 2.26477919,5.29506928 L17.1878709,5.2950693 C16.8148851,4.84892644 16.3885782,4.40734905 15.9100456,3.98961439 Z M18.6217327,6.76173602 L0.822246271,6.76173602 C0.259242007,6.76173602 -0.0901434149,6.14413718 0.196310252,5.65528642 C0.306565703,5.46712873 0.513122096,5.1574236 0.816116805,4.76641605 C1.3151383,4.12244054 1.91032066,3.47973296 2.60266589,2.87914307 C4.59422577,1.15152124 6.97893798,0.108512869 9.74092977,0.108512869 C12.5032626,0.108512869 14.8815674,1.15208447 16.8616941,2.88063449 C17.5501071,3.48158415 18.1410053,4.12466903 18.6356945,4.7690297 C18.9360864,5.16030716 19.1405925,5.47027182 19.2496468,5.65868285 C19.5326159,6.14756325 19.1829975,6.76173602 18.6217327,6.76173602 Z"/>
      </g>
      <g transform="translate(3.773 12.772)">
        <g transform="translate(1.18 .595)">
          <g fill="#BBBDBF" fill-rule="nonzero" opacity=".2" transform="translate(22.721 .299)">
            <polygon points="11.768 .481 15.343 15.495 16.204 15.286 12.629 .273"/>
            <polygon points="3.835 .273 .26 15.286 1.121 15.495 4.696 .481"/>
          </g>
          <path fill="#BBBDBF" d="M0.0969022036,35.8020924 C5.6515017,46.6074183 13.3915174,63.3743033 40.7092199,61.0455692 L37.6132136,61.7907641 L29.8127347,62.4741078 L22.072719,61.0455692 L11.5703372,55.7047575 L4.2251534,47.7565088 L0.0969022036,37.9758259 L0.0969022036,35.8020924 Z"/>
          <g transform="translate(0 .595)">
            <mask id="g" fill="white">
              <use xlink:href="#f"/>
            </mask>
            <path fill="#FEFEFE" d="M70.5387073,18.6706821 C70.2587107,18.5163988 69.8963212,18.4414 69.7098896,18.1964038 C61.7973689,7.81084985 50.9459319,5.78588112 41.2123863,6.26015951 C32.047911,6.70658119 26.7538118,9.51796634 21.3382179,14.6121734 C19.9766387,15.8942965 19.1666736,17.8171239 17.4720312,18.6706821 C19.9570878,12.8372008 24.015292,8.82440563 29.2472473,6.46229924 C39.1365017,1.99593964 49.130493,2.00665376 58.9911193,6.56729762 C64.1169412,8.9379753 68.1053209,12.9200567 70.5387073,18.6706821" mask="url(#g)" transform="rotate(30 44.005 10.9)"/>
          </g>
        </g>
        <path fill="#231F20" fill-rule="nonzero" d="M63.8411852,32.1641019 C63.8411852,15.5215387 49.9040176,2.01804942 32.6976144,2.01804942 C15.4912111,2.01804942 1.55404348,15.5215387 1.55404348,32.1641019 C1.55404348,48.806665 15.4912111,62.3101543 32.6976144,62.3101543 C49.9040176,62.3101543 63.8411852,48.806665 63.8411852,32.1641019 Z M65.2953492,32.1641019 C65.2953492,49.6301575 50.6943511,63.776821 32.6976144,63.776821 C14.7008776,63.776821 0.0998794949,49.6301575 0.0998794949,32.1641019 C0.0998794949,14.6980463 14.7008776,0.551382703 32.6976144,0.551382703 C50.6943511,0.551382703 65.2953492,14.6980463 65.2953492,32.1641019 Z"/>
      </g>
      <path fill="#231F20" d="M36.1977195,27.1911182 C20.9092763,27.1911182 8.51578102,36.3667029 8.51578102,47.6839777 C8.51578102,59.0019976 20.9092763,68.1768371 36.1977195,68.1768371 C51.4861627,68.1768371 63.879658,59.0019976 63.879658,47.6839777 C63.879658,36.3667029 51.4861627,27.1911182 36.1977195,27.1911182 M36.1977195,28.681508 C50.6586185,28.681508 62.4227139,37.2057923 62.4227139,47.6839777 C62.4227139,58.162163 50.6586185,66.6864473 36.1977195,66.6864473 C21.7368205,66.6864473 9.97272515,58.162163 9.97272515,47.6839777 C9.97272515,37.2057923 21.7368205,28.681508 36.1977195,28.681508"/>
      <g fill="#FEFEFE" transform="translate(51.953 34.31)">
        <path fill-rule="nonzero" d="M0.375596072,1.42364268 C3.94800762,3.96404969 5.56330926,5.78972493 6.79029991,9.17557036 C6.92815093,9.55596631 7.34564437,9.751627 7.72279759,9.61259074 C8.09995081,9.47355449 8.29394358,9.0524715 8.15609255,8.67207555 C6.81181068,4.96256837 5.00666072,2.92231934 1.21353259,0.224956748 C0.885346322,-0.00842249547 0.431720303,0.070721232 0.200330521,0.401729211 C-0.0310592597,0.73273719 0.0474098,1.19026343 0.375596072,1.42364268 Z"/>
        <path d="M9.14754098,11.1665356 C9.14754098,11.6588152 8.75834752,12.0578397 8.27711505,12.0578397 C7.79588259,12.0578397 7.40581256,11.6588152 7.40581256,11.1665356 C7.40581256,10.6742559 7.79588259,10.2761281 8.27711505,10.2761281 C8.75834752,10.2761281 9.14754098,10.6742559 9.14754098,11.1665356"/>
      </g>
    </g>
  </g>
</svg>
