<svg xmlns="http://www.w3.org/2000/svg" width="317" height="229" viewBox="0 0 317 229" xmlns:xlink="http://www.w3.org/1999/xlink">
  <defs>
    <polygon id="a" points="0 3.454 0 .906 2.549 .906 2.549 3.454"/>
    <polygon id="c" points="0 3.454 0 .906 2.549 .906 2.549 3.454"/>
  </defs>
  <g fill="none" fill-rule="evenodd">
    <path fill="#FCFFFF" d="M122.5479 23.1148C122.5479 23.8198 121.9779 24.3898 121.2739 24.3898 120.5689 24.3898 119.9989 23.8198 119.9989 23.1148 119.9989 22.4118 120.5689 21.8418 121.2739 21.8418 121.9779 21.8418 122.5479 22.4118 122.5479 23.1148zM170.3853 31.8414C170.3853 32.5464 169.8153 33.1174 169.1103 33.1174 168.4063 33.1174 167.8363 32.5464 167.8363 31.8414 167.8363 31.1384 168.4063 30.5684 169.1103 30.5684 169.8153 30.5684 170.3853 31.1384 170.3853 31.8414M206.1568 17.7311C206.1568 18.4361 205.5868 19.0061 204.8818 19.0061 204.1768 19.0061 203.6058 18.4361 203.6058 17.7311 203.6058 17.0281 204.1768 16.4581 204.8818 16.4581 205.5868 16.4581 206.1568 17.0281 206.1568 17.7311M212.5767 33.4186C212.5767 34.1236 212.0087 34.6936 211.3037 34.6936 210.5997 34.6936 210.0297 34.1236 210.0297 33.4186 210.0297 32.7156 210.5997 32.1456 211.3037 32.1456 212.0087 32.1456 212.5767 32.7156 212.5767 33.4186M234.9146 9.2096C234.9146 9.9146 234.3446 10.4846 233.6416 10.4846 232.9356 10.4846 232.3656 9.9146 232.3656 9.2096 232.3656 8.5066 232.9356 7.9366 233.6416 7.9366 234.3446 7.9366 234.9146 8.5066 234.9146 9.2096M257.4264 19.0055C257.4264 19.7105 256.8564 20.2805 256.1534 20.2805 255.4474 20.2805 254.8774 19.7105 254.8774 19.0055 254.8774 18.3025 255.4474 17.7325 256.1534 17.7325 256.8564 17.7325 257.4264 18.3025 257.4264 19.0055M155.0636 15.1822C155.0636 15.8872 154.4936 16.4572 153.7896 16.4572 153.0846 16.4572 152.5146 15.8872 152.5146 15.1822 152.5146 14.4792 153.0846 13.9092 153.7896 13.9092 154.4936 13.9092 155.0636 14.4792 155.0636 15.1822M77.9884 3.7311C77.9884 4.4361 77.4184 5.0061 76.7144 5.0061 76.0094 5.0061 75.4394 4.4361 75.4394 3.7311 75.4394 3.0281 76.0094 2.4581 76.7144 2.4581 77.4184 2.4581 77.9884 3.0281 77.9884 3.7311M94.1456 23.398C94.1456 24.103 93.5756 24.673 92.8716 24.673 92.1666 24.673 91.5966 24.103 91.5966 23.398 91.5966 22.695 92.1666 22.125 92.8716 22.125 93.5756 22.125 94.1456 22.695 94.1456 23.398M38.5391 132.213C38.5391 132.918 37.9691 133.488 37.2651 133.488 36.5601 133.488 35.9901 132.918 35.9901 132.213 35.9901 131.51 36.5601 130.94 37.2651 130.94 37.9691 130.94 38.5391 131.51 38.5391 132.213M200.5826 77.984C200.5826 78.689 200.0126 79.259 199.3096 79.259 198.6036 79.259 198.0336 78.689 198.0336 77.984 198.0336 77.281 198.6036 76.711 199.3096 76.711 200.0126 76.711 200.5826 77.281 200.5826 77.984M302.524 85.4361C302.524 86.1411 301.954 86.7111 301.249 86.7111 300.544 86.7111 299.973 86.1411 299.973 85.4361 299.973 84.7331 300.544 84.1631 301.249 84.1631 301.954 84.1631 302.524 84.7331 302.524 85.4361M308.1568 34.3902C308.1568 35.0952 307.5868 35.6652 306.8818 35.6652 306.1768 35.6652 305.6058 35.0952 305.6058 34.3902 305.6058 33.6872 306.1768 33.1182 306.8818 33.1182 307.5868 33.1182 308.1568 33.6872 308.1568 34.3902M299.4557 11.5582C299.4557 12.2632 298.8857 12.8332 298.1827 12.8332 297.4767 12.8332 296.9067 12.2632 296.9067 11.5582 296.9067 10.8552 297.4767 10.2862 298.1827 10.2862 298.8857 10.2862 299.4557 10.8552 299.4557 11.5582M274.7144 55.8321C274.7144 56.5371 274.1444 57.1071 273.4394 57.1071 272.7354 57.1071 272.1654 56.5371 272.1654 55.8321 272.1654 55.1291 272.7354 54.5591 273.4394 54.5591 274.1444 54.5591 274.7144 55.1291 274.7144 55.8321M238.6363 99.2657C238.6363 99.9707 238.0663 100.5407 237.3633 100.5407 236.6573 100.5407 236.0873 99.9707 236.0873 99.2657 236.0873 98.5627 236.6573 97.9927 237.3633 97.9927 238.0663 97.9927 238.6363 98.5627 238.6363 99.2657M156.1031 77.7247C156.1031 78.4297 155.5351 78.9997 154.8301 78.9997 154.1261 78.9997 153.5561 78.4297 153.5561 77.7247 153.5561 77.0217 154.1261 76.4517 154.8301 76.4517 155.5351 76.4517 156.1031 77.0217 156.1031 77.7247M195.3853 52.4913C195.3853 53.1963 194.8153 53.7663 194.1123 53.7663 193.4063 53.7663 192.8363 53.1963 192.8363 52.4913 192.8363 51.7883 193.4063 51.2183 194.1123 51.2183 194.8153 51.2183 195.3853 51.7883 195.3853 52.4913M264.6119 126.0704C264.6119 126.7754 264.0419 127.3454 263.3389 127.3454 262.6329 127.3454 262.0629 126.7754 262.0629 126.0704 262.0629 125.3674 262.6329 124.7974 263.3389 124.7974 264.0419 124.7974 264.6119 125.3674 264.6119 126.0704M202.9244 134.5626C202.9244 135.2676 202.3544 135.8376 201.6494 135.8376 200.9444 135.8376 200.3754 135.2676 200.3754 134.5626 200.3754 133.8596 200.9444 133.2896 201.6494 133.2896 202.3544 133.2896 202.9244 133.8596 202.9244 134.5626M67.6163 91.4454C67.6163 92.1504 67.0463 92.7204 66.3413 92.7204 65.6373 92.7204 65.0673 92.1504 65.0673 91.4454 65.0673 90.7424 65.6373 90.1724 66.3413 90.1724 67.0463 90.1724 67.6163 90.7424 67.6163 91.4454M112.4307 69.9107C112.4307 70.6147 111.8607 71.1847 111.1567 71.1847 110.4517 71.1847 109.8817 70.6147 109.8817 69.9107 109.8817 69.2067 110.4517 68.6367 111.1567 68.6367 111.8607 68.6367 112.4307 69.2067 112.4307 69.9107M240.4986 39.2892C240.4986 39.9942 239.9296 40.5642 239.2256 40.5642 238.5206 40.5642 237.9496 39.9942 237.9496 39.2892 237.9496 38.5862 238.5206 38.0162 239.2256 38.0162 239.9296 38.0162 240.4986 38.5862 240.4986 39.2892M115.1871 104.2657C115.1871 104.9707 114.6171 105.5407 113.9121 105.5407 113.2081 105.5407 112.6361 104.9707 112.6361 104.2657 112.6361 103.5627 113.2081 102.9927 113.9121 102.9927 114.6171 102.9927 115.1871 103.5627 115.1871 104.2657M91.3004 50.4874C91.3004 51.1924 90.7304 51.7624 90.0264 51.7624 89.3214 51.7624 88.7514 51.1924 88.7514 50.4874 88.7514 49.7844 89.3214 49.2144 90.0264 49.2144 90.7304 49.2144 91.3004 49.7844 91.3004 50.4874M132.1099 47.7882C132.1099 48.4932 131.5399 49.0632 130.8359 49.0632 130.1309 49.0632 129.5609 48.4932 129.5609 47.7882 129.5609 47.0852 130.1309 46.5152 130.8359 46.5152 131.5399 46.5152 132.1099 47.0852 132.1099 47.7882M58.5435 46.756C58.5435 47.461 57.9735 48.031 57.2695 48.031 56.5645 48.031 55.9945 47.461 55.9945 46.756 55.9945 46.053 56.5645 45.483 57.2695 45.483 57.9735 45.483 58.5435 46.053 58.5435 46.756"/>
    <g transform="translate(0 58.838)">
      <mask id="b" fill="white">
        <use xlink:href="#a"/>
      </mask>
      <path fill="#FCFFFF" d="M2.5489,2.1792 C2.5489,2.8842 1.9779,3.4542 1.2749,3.4542 C0.5699,3.4542 -0.0001,2.8842 -0.0001,2.1792 C-0.0001,1.4762 0.5699,0.9062 1.2749,0.9062 C1.9779,0.9062 2.5489,1.4762 2.5489,2.1792" mask="url(#b)"/>
    </g>
    <path fill="#FCFFFF" d="M72.6363 71.5157C72.6363 72.2207 72.0663 72.7907 71.3613 72.7907 70.6573 72.7907 70.0873 72.2207 70.0873 71.5157 70.0873 70.8127 70.6573 70.2427 71.3613 70.2427 72.0663 70.2427 72.6363 70.8127 72.6363 71.5157M160.9107 59.2667C160.9107 59.9717 160.3407 60.5417 159.6367 60.5417 158.9317 60.5417 158.3617 59.9717 158.3617 59.2667 158.3617 58.5637 158.9317 57.9937 159.6367 57.9937 160.3407 57.9937 160.9107 58.5637 160.9107 59.2667M17.4307 94.6036C17.4307 95.3086 16.8607 95.8786 16.1567 95.8786 15.4517 95.8786 14.8817 95.3086 14.8817 94.6036 14.8817 93.9006 15.4517 93.3306 16.1567 93.3306 16.8607 93.3306 17.4307 93.9006 17.4307 94.6036M172.7535 99.2657C172.7535 99.9707 172.1835 100.5407 171.4805 100.5407 170.7745 100.5407 170.2045 99.9707 170.2045 99.2657 170.2045 98.5627 170.7745 97.9927 171.4805 97.9927 172.1835 97.9927 172.7535 98.5627 172.7535 99.2657M242.982 70.9044C242.982 71.6094 242.412 72.1794 241.709 72.1794 241.003 72.1794 240.433 71.6094 240.433 70.9044 240.433 70.2014 241.003 69.6314 241.709 69.6314 242.412 69.6314 242.982 70.2014 242.982 70.9044M268.401 82.9395C268.401 83.6445 267.831 84.2145 267.128 84.2145 266.422 84.2145 265.852 83.6445 265.852 82.9395 265.852 82.2365 266.422 81.6665 267.128 81.6665 267.831 81.6665 268.401 82.2365 268.401 82.9395M8.4639 15.1822C8.4639 15.8872 8.9229 16.4572 9.4889 16.4572 10.0559 16.4572 10.5149 15.8872 10.5149 15.1822 10.5149 14.4792 10.0559 13.9092 9.4889 13.9092 8.9229 13.9092 8.4639 14.4792 8.4639 15.1822M54.9366 17.7311C54.9366 18.4361 55.3956 19.0061 55.9616 19.0061 56.5286 19.0061 56.9876 18.4361 56.9876 17.7311 56.9876 17.0281 56.5286 16.4581 55.9616 16.4581 55.3956 16.4581 54.9366 17.0281 54.9366 17.7311"/>
    <polygon fill="#F5D800" points="296.385 109.037 297.389 110.254 298.854 110.832 298.008 112.162 297.91 113.736 296.385 113.342 294.858 113.736 294.76 112.162 293.914 110.832 295.381 110.254"/>
    <polygon fill="#F5D800" points="280.321 21.049 281.325 22.265 282.79 22.844 281.944 24.174 281.846 25.747 280.321 25.354 278.794 25.747 278.696 24.174 277.85 22.844 279.317 22.265"/>
    <polygon fill="#F5D800" points="183.073 11.559 184.077 12.775 185.544 13.354 184.698 14.684 184.6 16.257 183.073 15.864 181.548 16.257 181.45 14.684 180.604 13.354 182.069 12.775"/>
    <polygon fill="#F5D800" points="42.646 84.715 43.65 85.932 45.116 86.51 44.27 87.84 44.172 89.414 42.646 89.02 41.121 89.414 41.022 87.84 40.176 86.51 41.642 85.932"/>
    <polygon fill="#F5D800" points="172.235 127.518 173.239 128.733 174.706 129.313 173.858 130.643 173.76 132.215 172.235 131.823 170.708 132.215 170.61 130.643 169.766 129.313 171.231 128.733"/>
    <polygon fill="#F5D800" points="26.884 6.064 27.886 7.282 29.353 7.859 28.507 9.19 28.409 10.764 26.884 10.37 25.357 10.764 25.259 9.19 24.413 7.859 25.88 7.282"/>
    <polygon fill="#F5D800" points="249.471 51 250.475 52.216 251.942 52.795 251.096 54.125 250.998 55.698 249.471 55.305 247.946 55.698 247.848 54.125 247 52.795 248.467 52.216"/>
    <polygon fill="#F5D800" points="96.838 87.704 97.841 88.92 99.308 89.499 98.462 90.829 98.364 92.402 96.838 92.009 95.312 92.402 95.214 90.829 94.368 89.499 95.834 88.92"/>
    <polygon fill="#F5D800" points="202.06 96.918 203.064 98.133 204.531 98.713 203.685 100.043 203.587 101.615 202.06 101.223 200.535 101.615 200.437 100.043 199.591 98.713 201.056 98.133"/>
    <polygon fill="#F5D800" points="5.019 114.387 6.023 115.604 7.489 116.182 6.642 117.512 6.544 119.086 5.019 118.692 3.493 119.086 3.394 117.512 2.549 116.182 4.015 115.604"/>
    <polygon fill="#F5D800" points="24.607 34.762 25.61 35.978 27.078 36.557 26.232 37.887 26.134 39.46 24.607 39.067 23.081 39.46 22.983 37.887 22.137 36.557 23.604 35.978"/>
    <polygon fill="#F5D800" points="99.308 6.861 100.312 8.077 101.778 8.656 100.932 9.986 100.834 11.559 99.308 11.166 97.782 11.559 97.684 9.986 96.838 8.656 98.304 8.077"/>
    <polygon fill="#FCFFFF" points="136.487 68.642 139.362 68.642 139.362 65.767 136.487 65.767"/>
    <polygon fill="#FCFFFF" points="140.424 31.788 143.299 31.788 143.299 28.913 140.424 28.913"/>
    <polygon fill="#FCFFFF" points="193.07 115.225 195.945 115.225 195.945 112.35 193.07 112.35"/>
    <polygon fill="#FCFFFF" points="303.484 43.53 300.849 44.68 299.699 42.046 302.334 40.895"/>
    <polygon fill="#FCFFFF" points="269.65 103.03 267.015 104.18 265.865 101.546 268.5 100.395"/>
    <polygon fill="#FCFFFF" points="152.044 118.813 154.316 120.575 152.554 122.846 150.282 121.084"/>
    <polygon fill="#FCFFFF" points="179.544 71.312 181.815 73.074 180.054 75.346 177.782 73.584"/>
    <polygon fill="#FCFFFF" points="228.419 53.937 230.69 55.699 228.929 57.971 226.657 56.209"/>
    <polygon fill="#FCFFFF" points="274.357 3.187 276.628 4.949 274.867 7.221 272.595 5.459"/>
    <polygon fill="#FCFFFF" points="183.794 32.375 186.065 34.137 184.304 36.409 182.032 34.647"/>
    <polygon fill="#FCFFFF" points="125.107 0 127.379 1.762 125.617 4.034 123.345 2.272"/>
    <polygon fill="#FCFFFF" points="57.232 105.937 59.504 107.699 57.742 109.971 55.47 108.209"/>
    <polygon fill="#FCFFFF" points="109.315 32.854 111.587 34.616 109.825 36.888 107.553 35.126"/>
    <polygon fill="#FCFFFF" points="20.982 52.187 23.254 53.949 21.492 56.221 19.22 54.459"/>
    <polygon fill="#FCFFFF" points="68.982 27.187 71.254 28.949 69.492 31.221 67.22 29.459"/>
    <polygon fill="#FCFFFF" points="139.482 93.062 141.754 94.824 139.992 97.096 137.72 95.334"/>
    <polygon fill="#FCFFFF" points="88.482 121.813 90.754 123.575 88.992 125.846 86.72 124.084"/>
    <polygon fill="#FCFFFF" points="314.42 47.312 316.69 49.074 314.93 51.346 312.658 49.584"/>
    <g transform="rotate(180 158.5 114.5)">
      <path fill="#FCFFFF" d="M122.5479 23.1148C122.5479 23.8198 121.9779 24.3898 121.2739 24.3898 120.5689 24.3898 119.9989 23.8198 119.9989 23.1148 119.9989 22.4118 120.5689 21.8418 121.2739 21.8418 121.9779 21.8418 122.5479 22.4118 122.5479 23.1148zM170.3853 31.8414C170.3853 32.5464 169.8153 33.1174 169.1103 33.1174 168.4063 33.1174 167.8363 32.5464 167.8363 31.8414 167.8363 31.1384 168.4063 30.5684 169.1103 30.5684 169.8153 30.5684 170.3853 31.1384 170.3853 31.8414M206.1568 17.7311C206.1568 18.4361 205.5868 19.0061 204.8818 19.0061 204.1768 19.0061 203.6058 18.4361 203.6058 17.7311 203.6058 17.0281 204.1768 16.4581 204.8818 16.4581 205.5868 16.4581 206.1568 17.0281 206.1568 17.7311M212.5767 33.4186C212.5767 34.1236 212.0087 34.6936 211.3037 34.6936 210.5997 34.6936 210.0297 34.1236 210.0297 33.4186 210.0297 32.7156 210.5997 32.1456 211.3037 32.1456 212.0087 32.1456 212.5767 32.7156 212.5767 33.4186M234.9146 9.2096C234.9146 9.9146 234.3446 10.4846 233.6416 10.4846 232.9356 10.4846 232.3656 9.9146 232.3656 9.2096 232.3656 8.5066 232.9356 7.9366 233.6416 7.9366 234.3446 7.9366 234.9146 8.5066 234.9146 9.2096M257.4264 19.0055C257.4264 19.7105 256.8564 20.2805 256.1534 20.2805 255.4474 20.2805 254.8774 19.7105 254.8774 19.0055 254.8774 18.3025 255.4474 17.7325 256.1534 17.7325 256.8564 17.7325 257.4264 18.3025 257.4264 19.0055M155.0636 15.1822C155.0636 15.8872 154.4936 16.4572 153.7896 16.4572 153.0846 16.4572 152.5146 15.8872 152.5146 15.1822 152.5146 14.4792 153.0846 13.9092 153.7896 13.9092 154.4936 13.9092 155.0636 14.4792 155.0636 15.1822M77.9884 3.7311C77.9884 4.4361 77.4184 5.0061 76.7144 5.0061 76.0094 5.0061 75.4394 4.4361 75.4394 3.7311 75.4394 3.0281 76.0094 2.4581 76.7144 2.4581 77.4184 2.4581 77.9884 3.0281 77.9884 3.7311M94.1456 23.398C94.1456 24.103 93.5756 24.673 92.8716 24.673 92.1666 24.673 91.5966 24.103 91.5966 23.398 91.5966 22.695 92.1666 22.125 92.8716 22.125 93.5756 22.125 94.1456 22.695 94.1456 23.398M38.5391 132.213C38.5391 132.918 37.9691 133.488 37.2651 133.488 36.5601 133.488 35.9901 132.918 35.9901 132.213 35.9901 131.51 36.5601 130.94 37.2651 130.94 37.9691 130.94 38.5391 131.51 38.5391 132.213M200.5826 77.984C200.5826 78.689 200.0126 79.259 199.3096 79.259 198.6036 79.259 198.0336 78.689 198.0336 77.984 198.0336 77.281 198.6036 76.711 199.3096 76.711 200.0126 76.711 200.5826 77.281 200.5826 77.984M302.524 85.4361C302.524 86.1411 301.954 86.7111 301.249 86.7111 300.544 86.7111 299.973 86.1411 299.973 85.4361 299.973 84.7331 300.544 84.1631 301.249 84.1631 301.954 84.1631 302.524 84.7331 302.524 85.4361M308.1568 34.3902C308.1568 35.0952 307.5868 35.6652 306.8818 35.6652 306.1768 35.6652 305.6058 35.0952 305.6058 34.3902 305.6058 33.6872 306.1768 33.1182 306.8818 33.1182 307.5868 33.1182 308.1568 33.6872 308.1568 34.3902M299.4557 11.5582C299.4557 12.2632 298.8857 12.8332 298.1827 12.8332 297.4767 12.8332 296.9067 12.2632 296.9067 11.5582 296.9067 10.8552 297.4767 10.2862 298.1827 10.2862 298.8857 10.2862 299.4557 10.8552 299.4557 11.5582M274.7144 55.8321C274.7144 56.5371 274.1444 57.1071 273.4394 57.1071 272.7354 57.1071 272.1654 56.5371 272.1654 55.8321 272.1654 55.1291 272.7354 54.5591 273.4394 54.5591 274.1444 54.5591 274.7144 55.1291 274.7144 55.8321M238.6363 99.2657C238.6363 99.9707 238.0663 100.5407 237.3633 100.5407 236.6573 100.5407 236.0873 99.9707 236.0873 99.2657 236.0873 98.5627 236.6573 97.9927 237.3633 97.9927 238.0663 97.9927 238.6363 98.5627 238.6363 99.2657M156.1031 77.7247C156.1031 78.4297 155.5351 78.9997 154.8301 78.9997 154.1261 78.9997 153.5561 78.4297 153.5561 77.7247 153.5561 77.0217 154.1261 76.4517 154.8301 76.4517 155.5351 76.4517 156.1031 77.0217 156.1031 77.7247M195.3853 52.4913C195.3853 53.1963 194.8153 53.7663 194.1123 53.7663 193.4063 53.7663 192.8363 53.1963 192.8363 52.4913 192.8363 51.7883 193.4063 51.2183 194.1123 51.2183 194.8153 51.2183 195.3853 51.7883 195.3853 52.4913M264.6119 126.0704C264.6119 126.7754 264.0419 127.3454 263.3389 127.3454 262.6329 127.3454 262.0629 126.7754 262.0629 126.0704 262.0629 125.3674 262.6329 124.7974 263.3389 124.7974 264.0419 124.7974 264.6119 125.3674 264.6119 126.0704M202.9244 134.5626C202.9244 135.2676 202.3544 135.8376 201.6494 135.8376 200.9444 135.8376 200.3754 135.2676 200.3754 134.5626 200.3754 133.8596 200.9444 133.2896 201.6494 133.2896 202.3544 133.2896 202.9244 133.8596 202.9244 134.5626M67.6163 91.4454C67.6163 92.1504 67.0463 92.7204 66.3413 92.7204 65.6373 92.7204 65.0673 92.1504 65.0673 91.4454 65.0673 90.7424 65.6373 90.1724 66.3413 90.1724 67.0463 90.1724 67.6163 90.7424 67.6163 91.4454M112.4307 69.9107C112.4307 70.6147 111.8607 71.1847 111.1567 71.1847 110.4517 71.1847 109.8817 70.6147 109.8817 69.9107 109.8817 69.2067 110.4517 68.6367 111.1567 68.6367 111.8607 68.6367 112.4307 69.2067 112.4307 69.9107M240.4986 39.2892C240.4986 39.9942 239.9296 40.5642 239.2256 40.5642 238.5206 40.5642 237.9496 39.9942 237.9496 39.2892 237.9496 38.5862 238.5206 38.0162 239.2256 38.0162 239.9296 38.0162 240.4986 38.5862 240.4986 39.2892M115.1871 104.2657C115.1871 104.9707 114.6171 105.5407 113.9121 105.5407 113.2081 105.5407 112.6361 104.9707 112.6361 104.2657 112.6361 103.5627 113.2081 102.9927 113.9121 102.9927 114.6171 102.9927 115.1871 103.5627 115.1871 104.2657M91.3004 50.4874C91.3004 51.1924 90.7304 51.7624 90.0264 51.7624 89.3214 51.7624 88.7514 51.1924 88.7514 50.4874 88.7514 49.7844 89.3214 49.2144 90.0264 49.2144 90.7304 49.2144 91.3004 49.7844 91.3004 50.4874M132.1099 47.7882C132.1099 48.4932 131.5399 49.0632 130.8359 49.0632 130.1309 49.0632 129.5609 48.4932 129.5609 47.7882 129.5609 47.0852 130.1309 46.5152 130.8359 46.5152 131.5399 46.5152 132.1099 47.0852 132.1099 47.7882M58.5435 46.756C58.5435 47.461 57.9735 48.031 57.2695 48.031 56.5645 48.031 55.9945 47.461 55.9945 46.756 55.9945 46.053 56.5645 45.483 57.2695 45.483 57.9735 45.483 58.5435 46.053 58.5435 46.756"/>
      <g transform="translate(0 58.838)">
        <mask id="d" fill="white">
          <use xlink:href="#c"/>
        </mask>
        <path fill="#FCFFFF" d="M2.5489,2.1792 C2.5489,2.8842 1.9779,3.4542 1.2749,3.4542 C0.5699,3.4542 -0.0001,2.8842 -0.0001,2.1792 C-0.0001,1.4762 0.5699,0.9062 1.2749,0.9062 C1.9779,0.9062 2.5489,1.4762 2.5489,2.1792" mask="url(#d)"/>
      </g>
      <path fill="#FCFFFF" d="M72.6363 71.5157C72.6363 72.2207 72.0663 72.7907 71.3613 72.7907 70.6573 72.7907 70.0873 72.2207 70.0873 71.5157 70.0873 70.8127 70.6573 70.2427 71.3613 70.2427 72.0663 70.2427 72.6363 70.8127 72.6363 71.5157M160.9107 59.2667C160.9107 59.9717 160.3407 60.5417 159.6367 60.5417 158.9317 60.5417 158.3617 59.9717 158.3617 59.2667 158.3617 58.5637 158.9317 57.9937 159.6367 57.9937 160.3407 57.9937 160.9107 58.5637 160.9107 59.2667M17.4307 94.6036C17.4307 95.3086 16.8607 95.8786 16.1567 95.8786 15.4517 95.8786 14.8817 95.3086 14.8817 94.6036 14.8817 93.9006 15.4517 93.3306 16.1567 93.3306 16.8607 93.3306 17.4307 93.9006 17.4307 94.6036M172.7535 99.2657C172.7535 99.9707 172.1835 100.5407 171.4805 100.5407 170.7745 100.5407 170.2045 99.9707 170.2045 99.2657 170.2045 98.5627 170.7745 97.9927 171.4805 97.9927 172.1835 97.9927 172.7535 98.5627 172.7535 99.2657M242.982 70.9044C242.982 71.6094 242.412 72.1794 241.709 72.1794 241.003 72.1794 240.433 71.6094 240.433 70.9044 240.433 70.2014 241.003 69.6314 241.709 69.6314 242.412 69.6314 242.982 70.2014 242.982 70.9044M268.401 82.9395C268.401 83.6445 267.831 84.2145 267.128 84.2145 266.422 84.2145 265.852 83.6445 265.852 82.9395 265.852 82.2365 266.422 81.6665 267.128 81.6665 267.831 81.6665 268.401 82.2365 268.401 82.9395M8.4639 15.1822C8.4639 15.8872 8.9229 16.4572 9.4889 16.4572 10.0559 16.4572 10.5149 15.8872 10.5149 15.1822 10.5149 14.4792 10.0559 13.9092 9.4889 13.9092 8.9229 13.9092 8.4639 14.4792 8.4639 15.1822M54.9366 17.7311C54.9366 18.4361 55.3956 19.0061 55.9616 19.0061 56.5286 19.0061 56.9876 18.4361 56.9876 17.7311 56.9876 17.0281 56.5286 16.4581 55.9616 16.4581 55.3956 16.4581 54.9366 17.0281 54.9366 17.7311"/>
      <polygon fill="#F5D800" points="296.385 109.037 297.389 110.254 298.854 110.832 298.008 112.162 297.91 113.736 296.385 113.342 294.858 113.736 294.76 112.162 293.914 110.832 295.381 110.254"/>
      <polygon fill="#F5D800" points="280.321 21.049 281.325 22.265 282.79 22.844 281.944 24.174 281.846 25.747 280.321 25.354 278.794 25.747 278.696 24.174 277.85 22.844 279.317 22.265"/>
      <polygon fill="#F5D800" points="183.073 11.559 184.077 12.775 185.544 13.354 184.698 14.684 184.6 16.257 183.073 15.864 181.548 16.257 181.45 14.684 180.604 13.354 182.069 12.775"/>
      <polygon fill="#F5D800" points="42.646 84.715 43.65 85.932 45.116 86.51 44.27 87.84 44.172 89.414 42.646 89.02 41.121 89.414 41.022 87.84 40.176 86.51 41.642 85.932"/>
      <polygon fill="#F5D800" points="172.235 127.518 173.239 128.733 174.706 129.313 173.858 130.643 173.76 132.215 172.235 131.823 170.708 132.215 170.61 130.643 169.766 129.313 171.231 128.733"/>
      <polygon fill="#F5D800" points="26.884 6.064 27.886 7.282 29.353 7.859 28.507 9.19 28.409 10.764 26.884 10.37 25.357 10.764 25.259 9.19 24.413 7.859 25.88 7.282"/>
      <polygon fill="#F5D800" points="222.997 85.354 224.001 86.57 225.468 87.149 224.622 88.479 224.524 90.052 222.997 89.659 221.472 90.052 221.374 88.479 220.526 87.149 221.993 86.57"/>
      <polygon fill="#F5D800" points="204.47 176 205.473 177.216 206.94 177.795 206.094 179.125 205.996 180.698 204.47 180.305 202.944 180.698 202.846 179.125 202 177.795 203.466 177.216"/>
      <polygon fill="#F5D800" points="175.469 57 176.473 58.215 177.94 58.795 177.094 60.125 176.996 61.697 175.469 61.305 173.944 61.697 173.846 60.125 173 58.795 174.465 58.215"/>
      <polygon fill="#F5D800" points="91.47 94 92.474 95.217 93.94 95.795 93.093 97.125 92.995 98.699 91.47 98.305 89.944 98.699 89.845 97.125 89 95.795 90.466 95.217"/>
      <polygon fill="#F5D800" points="24.607 34.762 25.61 35.978 27.078 36.557 26.232 37.887 26.134 39.46 24.607 39.067 23.081 39.46 22.983 37.887 22.137 36.557 23.604 35.978"/>
      <polygon fill="#F5D800" points="99.308 6.861 100.312 8.077 101.778 8.656 100.932 9.986 100.834 11.559 99.308 11.166 97.782 11.559 97.684 9.986 96.838 8.656 98.304 8.077"/>
      <polygon fill="#FCFFFF" points="136.487 68.642 139.362 68.642 139.362 65.767 136.487 65.767"/>
      <polygon fill="#FCFFFF" points="140.424 31.788 143.299 31.788 143.299 28.913 140.424 28.913"/>
      <polygon fill="#FCFFFF" points="193.07 115.225 195.945 115.225 195.945 112.35 193.07 112.35"/>
      <polygon fill="#FCFFFF" points="303.484 43.53 300.849 44.68 299.699 42.046 302.334 40.895"/>
      <polygon fill="#FCFFFF" points="269.65 103.03 267.015 104.18 265.865 101.546 268.5 100.395"/>
      <polygon fill="#FCFFFF" points="152.044 118.813 154.316 120.575 152.554 122.846 150.282 121.084"/>
      <polygon fill="#FCFFFF" points="179.544 71.312 181.815 73.074 180.054 75.346 177.782 73.584"/>
      <polygon fill="#FCFFFF" points="228.419 53.937 230.69 55.699 228.929 57.971 226.657 56.209"/>
      <polygon fill="#FCFFFF" points="274.357 3.187 276.628 4.949 274.867 7.221 272.595 5.459"/>
      <polygon fill="#FCFFFF" points="183.794 32.375 186.065 34.137 184.304 36.409 182.032 34.647"/>
      <polygon fill="#FCFFFF" points="125.107 0 127.379 1.762 125.617 4.034 123.345 2.272"/>
      <polygon fill="#FCFFFF" points="57.232 105.937 59.504 107.699 57.742 109.971 55.47 108.209"/>
      <polygon fill="#FCFFFF" points="109.315 32.854 111.587 34.616 109.825 36.888 107.553 35.126"/>
      <polygon fill="#FCFFFF" points="20.982 52.187 23.254 53.949 21.492 56.221 19.22 54.459"/>
      <polygon fill="#FCFFFF" points="68.982 27.187 71.254 28.949 69.492 31.221 67.22 29.459"/>
      <polygon fill="#FCFFFF" points="139.482 93.062 141.754 94.824 139.992 97.096 137.72 95.334"/>
      <polygon fill="#FCFFFF" points="88.482 121.813 90.754 123.575 88.992 125.846 86.72 124.084"/>
      <polygon fill="#FCFFFF" points="314.42 47.312 316.69 49.074 314.93 51.346 312.658 49.584"/>
    </g>
  </g>
</svg>
