<svg xmlns="http://www.w3.org/2000/svg" width="375" height="233" viewBox="0 0 375 233">
    <defs>
        <linearGradient id="a" x1="50%" x2="50%" y1="95.573%" y2="8.048%">
            <stop offset="0%" stop-color="#FFF"/>
            <stop offset="100%" stop-color="#7DBCE2"/>
        </linearGradient>
        <linearGradient id="b" x1="50%" x2="50%" y1="72.552%" y2="-35.692%">
            <stop offset="0%" stop-color="#FFF"/>
            <stop offset="100%" stop-color="#7DBCE2"/>
        </linearGradient>
        <linearGradient id="c" x1="50%" x2="50%" y1="67.478%" y2="-85.887%">
            <stop offset="0%" stop-color="#FFF"/>
            <stop offset="100%" stop-color="#7DBCE2"/>
        </linearGradient>
        <linearGradient id="d" x1="50%" x2="50%" y1="0%" y2="100%">
            <stop offset="0%" stop-color="#FFF" stop-opacity="0"/>
            <stop offset="100%" stop-color="#FFF"/>
        </linearGradient>
    </defs>
    <g fill="none" fill-rule="evenodd">
        <g fill-rule="nonzero">
            <path fill="url(#a)" d="M.264 0h374.208v262.315H.264z" opacity=".56"/>
            <path fill="#FFF" d="M374.393 110.826c-3.677-4.051-11.393-9.864-20.785-1.6-6.275 5.52-1.382 14.667-1.382 14.667s-5.154-1.897-9.556 3.866c-4.096 5.365-2.225 10.54-2.225 10.54s-9.637-8.566-20.579 1.024c-10.94 9.59-2.314 20.51-2.314 20.51s-4.655-1.601-7.236 1.24c-3.302 3.635-1.22 7.459-1.22 7.459s-5.349-.8-8.302 2.269c-6.251 6.5-33.504 54.054-38.479 55.844 13.182-2.275 112.078 1.583 112.078 1.583.02-75.755.02-114.889 0-117.402zM.262 104.976c3.003-.22 6.41.968 10.067 4.186 6.276 5.52 1.383 14.667 1.383 14.667s5.154-1.897 9.556 3.866c4.095 5.365 2.224 10.54 2.224 10.54s9.638-8.566 20.58 1.024c10.94 9.59 2.313 20.51 2.313 20.51s4.656-1.601 7.237 1.24c3.3 3.635 1.219 7.459 1.219 7.459s5.349-.8 8.302 2.27c6.252 6.499 33.505 54.054 38.48 55.843C88.44 224.306.261 228.164.261 228.164V104.976z" opacity=".16"/>
            <path fill="url(#b)" d="M146.86 241.6s70.35-98.411 118.907-106.856c48.557-8.445 109.101 112.133 109.101 112.133L146.86 241.6z" opacity=".56"/>
            <path fill="#FFF" d="M374.314 122.958c-3.219-2.161-8.467-3.7-15.707.892-6.424 4.075-3.46 13.839-3.46 13.839s-8.178-3.774-19.5 4.404c-11.287 8.152-6.919 26.733-6.919 26.733s-2.832-2.515-6.291-.314c-3.46 2.201-2.832 6.606-2.832 6.606s-6.613-12.934-20.766-9.474c-14.153 3.46-13.203 17.966-13.203 17.966s-5.66-6.92-18.24-1.887c-10.71 4.283-12.267 17.299-12.267 17.299s-27.363-11.324-47.177 11.638c85.767-.495 164.987 49.016 166.362 49.016.015-88.299.015-133.871 0-136.718z" opacity=".54"/>
            <path fill="url(#c)" d="M.261 208.366c34.206-20.453 96.944-52.23 139.21-39.735 60.696 17.945 63.335 42.224 131.949 46.974 59.778 4.139-188.121 67.97-271.105 31.636-.051-11.645-.117-27.413-.054-38.875z"/>
            <path fill="#FFF" d="M.264 144.964c2.239-.01 4.629.467 7.12 1.658 13.192 6.31 13.765 21.793 13.765 21.793s6.542-7.038 17.971-1.53c10.638 5.13 11.812 14.688 11.812 14.688s8.26-20.996 32.924-14.689c24.664 6.31 19.846 30.174 19.846 30.174s5.998-6.183 12.27-3.792c8.031 3.059 7.804 10.675 7.804 10.675s7.714-5.484 14.755-3.03c14.902 5.196 9.337 17.943 18.512 16.795C210.5 228.25 204.125 262 0 262c.22-72.362.308-111.374.264-117.036z" opacity=".44"/>
        </g>
        <path fill="url(#d)" d="M.528 205.577h373.944v56.738H.528z"/>
        <g>
            <path fill="#00D7F2" d="M295.251 280.646c0 60.65-49.048 109.819-109.563 109.819-60.524 0-109.58-49.17-109.58-109.819 0-60.64 49.056-109.802 109.58-109.802 60.515 0 109.563 49.161 109.563 109.802"/>
            <path fill="#3AAB51" d="M95.078 255.327c9.834-.268 18.247.2 18.247.2v26.694l5.626 30.954 7.49 18.892 17.78 24.297 11.231-43.19 17.792-13.84 11.443-24.136-25.022-19.871h-22.9l-15.007-21.367 8.424-18.297 18.251-7.039 6.556-25.607 5.698-9.236s-22.156 3.768-43.656 21.375c-14.156 12.344-22.993 23.607-27.056 31.235 0 0-4.723 29.207 5.103 28.936zM237.439 183.89l-3.589 8.79 11.523 31.543h34.051l-14.391 25.502-25.274-3.927-13.1 8.53-4.68 13.986v16.889l18.718 8.435 24.084.763-14.085 17.77-16.547 25.128 10.293 23.88 13.803 1.008s28.964-17.897 36.596-67.609c7.64-49.716-22.287-93.806-57.402-110.688"/>
            <path fill="#FFF" d="M146.3 337.784c0-60.88 49.247-110.235 109.998-110.235 9.81 0 19.31 1.306 28.356 3.714-18.008-36.285-55.353-61.243-98.544-61.243-60.75 0-110.007 49.354-110.007 110.243 0 51.05 34.645 93.98 81.655 106.521-7.321-14.76-11.459-31.39-11.459-49z" opacity=".2"/>
            <path fill="#FFF" d="M292.294 202.474a12.712 12.712 0 0 0 1.703-6.638c-.141-7-5.858-12.562-12.776-12.427-1.39.032-2.726.302-3.964.767-.008-.16-.006-.302-.019-.45-.929-10.134-9.782-17.58-19.788-16.647-8.526.805-15.112 7.441-16.302 15.662-2.093-5.32-7.436-8.846-13.35-8.29-6.298.591-11.14 5.613-11.792 11.744-5.72.59-10.124 5.513-10.004 11.435a11.24 11.24 0 0 0 1.188 4.844h85.104zM137.294 243.474a12.712 12.712 0 0 0 1.703-6.638c-.141-7-5.858-12.562-12.776-12.427-1.39.032-2.726.302-3.964.767-.008-.16-.006-.302-.019-.45-.929-10.134-9.782-17.58-19.788-16.647-8.526.805-15.112 7.441-16.302 15.662-2.093-5.32-7.436-8.846-13.35-8.29-6.298.591-11.14 5.613-11.792 11.744-5.72.59-10.124 5.513-10.004 11.435a11.24 11.24 0 0 0 1.188 4.844h85.104zM333.449 243.93a11.557 11.557 0 0 0 1.549-6.034c-.13-6.363-5.326-11.42-11.615-11.297a10.949 10.949 0 0 0-3.604.697c-.007-.146-.006-.274-.017-.409-.845-9.212-8.892-15.981-17.989-15.134-7.751.732-13.739 6.765-14.82 14.239-1.903-4.836-6.76-8.043-12.136-7.537-5.726.538-10.128 5.103-10.72 10.676-5.2.536-9.204 5.013-9.095 10.396.027 1.585.418 3.08 1.08 4.404h77.367z"/>
        </g>
    </g>
</svg>
