<svg xmlns="http://www.w3.org/2000/svg" width="375" height="116" viewBox="0 0 375 116">
    <defs>
        <linearGradient id="a" x1="50%" x2="50%" y1="95.573%" y2="8.048%">
            <stop offset="0%" stop-color="#FFF"/>
            <stop offset="100%" stop-color="#7DBCE2"/>
        </linearGradient>
        <linearGradient id="b" x1="50%" x2="50%" y1="72.552%" y2="-35.692%">
            <stop offset="0%" stop-color="#FFF"/>
            <stop offset="100%" stop-color="#7DBCE2"/>
        </linearGradient>
        <linearGradient id="c" x1="50%" x2="50%" y1="67.478%" y2="-85.887%">
            <stop offset="0%" stop-color="#FFF"/>
            <stop offset="100%" stop-color="#7DBCE2"/>
        </linearGradient>
        <linearGradient id="d" x1="50%" x2="50%" y1="0%" y2="100%">
            <stop offset="0%" stop-color="#FFF" stop-opacity="0"/>
            <stop offset="100%" stop-color="#FFF"/>
        </linearGradient>
    </defs>
    <g fill="none" fill-rule="evenodd" opacity=".6">
        <g fill-rule="nonzero">
            <path fill="url(#a)" d="M.264 0h374.208v262.315H.264z" opacity=".56" transform="matrix(-1 0 0 1 375 -146)"/>
            <path fill="#FFF" d="M.607-35.174c3.677-4.051 11.393-9.864 20.785-1.6 6.275 5.52 1.382 14.667 1.382 14.667s5.154-1.897 9.556 3.866c4.096 5.365 2.225 10.54 2.225 10.54s9.637-8.566 20.579 1.024c10.94 9.59 2.314 20.51 2.314 20.51s4.655-1.601 7.236 1.24c3.302 3.635 1.22 7.459 1.22 7.459s5.349-.8 8.302 2.269c6.251 6.5 33.504 54.054 38.479 55.844C99.503 78.37.607 82.228.607 82.228.587 6.473.587-32.661.607-35.174zM374.738-41.024c-3.003-.22-6.41.968-10.067 4.186-6.276 5.52-1.383 14.667-1.383 14.667s-5.154-1.897-9.556 3.866c-4.095 5.365-2.224 10.54-2.224 10.54s-9.638-8.566-20.58 1.024c-10.94 9.59-2.313 20.51-2.313 20.51s-4.656-1.601-7.237 1.24c-3.3 3.635-1.219 7.459-1.219 7.459s-5.349-.8-8.302 2.27c-6.252 6.499-33.505 54.054-38.48 55.843 13.183-2.275 101.361 1.583 101.361 1.583V-41.024z" opacity=".16"/>
            <path fill="url(#b)" d="M146.86 241.6s70.35-98.411 118.907-106.856c48.557-8.445 109.101 112.133 109.101 112.133L146.86 241.6z" opacity=".56" transform="matrix(-1 0 0 1 375 -146)"/>
            <path fill="#FFF" d="M.686-23.042c3.219-2.161 8.467-3.7 15.707.892 6.424 4.075 3.46 13.839 3.46 13.839s8.178-3.774 19.5 4.404c11.287 8.152 6.919 26.733 6.919 26.733s2.832-2.515 6.291-.314c3.46 2.201 2.832 6.606 2.832 6.606s6.613-12.934 20.766-9.474c14.153 3.46 13.203 17.966 13.203 17.966s5.66-6.92 18.24-1.887c10.71 4.283 12.267 17.299 12.267 17.299s27.363-11.324 47.177 11.638C81.28 64.165 2.06 113.676.686 113.676.671 25.377.671-20.195.686-23.042z" opacity=".54"/>
            <path fill="url(#c)" d="M.261 208.366c34.206-20.453 96.944-52.23 139.21-39.735 60.696 17.945 63.335 42.224 131.949 46.974 59.778 4.139-188.121 67.97-271.105 31.636-.051-11.645-.117-27.413-.054-38.875z" transform="matrix(-1 0 0 1 375 -146)"/>
            <path fill="#FFF" d="M374.736-1.036c-2.239-.01-4.629.467-7.12 1.658-13.192 6.31-13.765 21.793-13.765 21.793s-6.542-7.038-17.971-1.53c-10.638 5.13-11.812 14.688-11.812 14.688s-8.26-20.996-32.924-14.689c-24.664 6.31-19.846 30.174-19.846 30.174s-5.998-6.183-12.27-3.792c-8.031 3.059-7.804 10.675-7.804 10.675s-7.714-5.484-14.755-3.03c-14.902 5.196-9.337 17.943-18.512 16.795C164.5 82.25 170.875 116 375 116c-.22-72.362-.308-111.374-.264-117.036z" opacity=".44"/>
        </g>
        <path fill="url(#d)" d="M.528 205.577h373.944v56.738H.528z" transform="matrix(-1 0 0 1 375 -146)"/>
    </g>
</svg>
