<svg xmlns="http://www.w3.org/2000/svg" xmlns:xlink="http://www.w3.org/1999/xlink" width="375" height="215" viewBox="0 0 375 215">
    <defs>
        <linearGradient id="a" x1="50%" x2="50%" y1="95.573%" y2="8.048%">
            <stop offset="0%" stop-color="#FFF"/>
            <stop offset="100%" stop-color="#7DBCE2"/>
        </linearGradient>
        <linearGradient id="b" x1="50%" x2="50%" y1="72.552%" y2="-35.692%">
            <stop offset="0%" stop-color="#FFF"/>
            <stop offset="100%" stop-color="#7DBCE2"/>
        </linearGradient>
        <linearGradient id="c" x1="50%" x2="50%" y1="67.478%" y2="-85.887%">
            <stop offset="0%" stop-color="#FFF"/>
            <stop offset="100%" stop-color="#7DBCE2"/>
        </linearGradient>
        <linearGradient id="d" x1="50%" x2="50%" y1="0%" y2="100%">
            <stop offset="0%" stop-color="#FFF" stop-opacity="0"/>
            <stop offset="100%" stop-color="#FFF"/>
        </linearGradient>
        <path id="e" d="M.686.123h74.06v76.831H.686V.124z"/>
        <linearGradient id="g" x1="90.498%" x2="14.581%" y1="92.795%" y2="57.252%">
            <stop offset="0%" stop-color="#50A9E3"/>
            <stop offset="100%" stop-color="#50A9E3" stop-opacity="0"/>
        </linearGradient>
        <path id="h" d="M10.004 50.203H0V.129h27.76v50.074H10.004V30.347H0v19.856h10.004z"/>
    </defs>
    <g fill="none" fill-rule="evenodd">
        <g opacity=".6">
            <g fill-rule="nonzero">
                <path fill="url(#a)" d="M.264 0h374.208v262.315H.264z" opacity=".56" transform="translate(0 -92)"/>
                <path fill="#FFF" d="M374.393 18.826c-3.677-4.051-11.393-9.864-20.785-1.6-6.275 5.52-1.382 14.667-1.382 14.667s-5.154-1.897-9.556 3.866c-4.096 5.365-2.225 10.54-2.225 10.54s-9.637-8.566-20.579 1.024c-10.94 9.59-2.314 20.51-2.314 20.51s-4.655-1.601-7.236 1.24c-3.302 3.635-1.22 7.459-1.22 7.459s-5.349-.8-8.302 2.269c-6.251 6.5-33.504 54.054-38.479 55.844 13.182-2.275 112.078 1.583 112.078 1.583.02-75.755.02-114.889 0-117.402zM.262 12.976c3.003-.22 6.41.968 10.067 4.186 6.276 5.52 1.383 14.667 1.383 14.667s5.154-1.897 9.556 3.866c4.095 5.365 2.224 10.54 2.224 10.54s9.638-8.566 20.58 1.024c10.94 9.59 2.313 20.51 2.313 20.51s4.656-1.601 7.237 1.24c3.3 3.635 1.219 7.459 1.219 7.459s5.349-.8 8.302 2.27c6.252 6.499 33.505 54.054 38.48 55.843C88.44 132.306.261 136.164.261 136.164V12.976z" opacity=".16"/>
                <path fill="url(#b)" d="M146.86 241.6s70.35-98.411 118.907-106.856c48.557-8.445 109.101 112.133 109.101 112.133L146.86 241.6z" opacity=".56" transform="translate(0 -92)"/>
                <path fill="#FFF" d="M374.314 30.958c-3.219-2.161-8.467-3.7-15.707.892-6.424 4.075-3.46 13.839-3.46 13.839s-8.178-3.774-19.5 4.404c-11.287 8.152-6.919 26.733-6.919 26.733s-2.832-2.515-6.291-.314c-3.46 2.201-2.832 6.606-2.832 6.606s-6.613-12.934-20.766-9.474c-14.153 3.46-13.203 17.966-13.203 17.966s-5.66-6.92-18.24-1.887c-10.71 4.283-12.267 17.299-12.267 17.299s-27.363-11.324-47.177 11.638c85.767-.495 164.987 49.016 166.362 49.016.015-88.299.015-133.871 0-136.718z" opacity=".54"/>
                <path fill="url(#c)" d="M.261 208.366c34.206-20.453 96.944-52.23 139.21-39.735 60.696 17.945 63.335 42.224 131.949 46.974 59.778 4.139-188.121 67.97-271.105 31.636-.051-11.645-.117-27.413-.054-38.875z" transform="translate(0 -92)"/>
                <path fill="#FFF" d="M.264 52.964c2.239-.01 4.629.467 7.12 1.658 13.192 6.31 13.765 21.793 13.765 21.793s6.542-7.038 17.971-1.53c10.638 5.13 11.812 14.688 11.812 14.688s8.26-20.996 32.924-14.689c24.664 6.31 19.846 30.174 19.846 30.174s5.998-6.183 12.27-3.792c8.031 3.059 7.804 10.675 7.804 10.675s7.714-5.484 14.755-3.03c14.902 5.196 9.337 17.943 18.512 16.795C210.5 136.25 204.125 170 0 170 .22 97.638.308 58.626.264 52.964z" opacity=".44"/>
            </g>
            <path fill="url(#d)" d="M.528 205.577h373.944v56.738H.528z" transform="translate(0 -92)"/>
        </g>
        <path fill="#00D7F2" d="M225.806 147.856c0 21.497-17.418 38.925-38.908 38.925-21.492 0-38.913-17.428-38.913-38.925 0-21.494 17.42-38.92 38.913-38.92 21.49 0 38.908 17.426 38.908 38.92"/>
        <path fill="#3AAB51" d="M153.264 128.27s-1.677 10.353 1.813 10.257c3.492-.095 6.48.071 6.48.071v9.462l1.997 10.971 2.66 6.696 6.314 8.613 3.988-15.309 6.318-4.905 4.064-8.555-8.886-7.044h-8.132l-5.33-7.573 2.993-6.486 6.48-2.495 2.329-9.076 1.992-3.391s-11.967 4.638-15.427 7.698c-3.462 3.057-8.21 8.363-9.653 11.067M205.276 113.56l-1.274 3.116 4.092 11.181H220.186l-5.11 9.039-8.976-1.392-4.652 3.023-1.662 4.958v5.986l6.647 2.99 8.553.27-5.002 6.3-5.876 8.906 3.655 8.464 4.902.357s10.285-6.344 12.996-23.964c2.712-17.622-7.915-33.25-20.385-39.233"/>
        <g transform="translate(147.297 108.522)">
            <mask id="f" fill="#fff">
                <use xlink:href="#e"/>
            </mask>
            <path fill="#FFF" d="M29.683 76.954a38.914 38.914 0 0 1-4.07-17.368c0-21.58 17.49-39.073 39.063-39.073 3.484 0 6.858.463 10.07 1.317C68.35 8.969 55.089.122 39.75.122 18.178.122.686 17.616.686 39.198c0 18.094 12.303 33.31 28.997 37.756" mask="url(#f)" opacity=".2"/>
        </g>
        <path fill="#FFF" d="M253.787 132.654a8.398 8.398 0 0 0 1.122-4.38c-.093-4.618-3.859-8.289-8.416-8.2-.916.022-1.796.2-2.611.507-.006-.106-.004-.2-.013-.297-.612-6.687-6.443-11.6-13.034-10.984-5.617.531-9.956 4.91-10.74 10.334-1.378-3.51-4.898-5.837-8.793-5.47-4.149.39-7.339 3.703-7.768 7.749-3.768.389-6.67 3.638-6.59 7.545.02 1.15.303 2.235.782 3.196h56.06z"/>
        <g stroke="#FFCE39" stroke-linecap="square" stroke-width=".85">
            <path d="M186.506 96.766V80.76M186.506 213.591v-16.007"/>
        </g>
        <path stroke="#FFCE39" stroke-linecap="square" stroke-width=".85" d="M139.744 194.145l11.318-11.318"/>
        <g stroke="#FFCE39" stroke-linecap="square" stroke-width=".85">
            <path d="M236.93 147.192h16.008M120.106 147.192h16.007"/>
        </g>
        <g stroke="#FFCE39" stroke-linecap="square" stroke-width=".85">
            <path d="M222.16 182.849l11.319 11.318M139.552 100.241l11.32 11.319"/>
        </g>
        <g stroke="#FFCE39" stroke-linecap="square" stroke-width=".85">
            <path d="M125.187 172.062l14.842-5.996"/>
        </g>
        <g stroke="#FFCE39" stroke-linecap="square" stroke-width=".85">
            <path d="M233.264 166.078l14.842 5.996M124.946 122.314l14.842 5.997"/>
        </g>
        <g stroke="#FFCE39" stroke-linecap="square" stroke-width=".85">
            <path d="M207.016 193.256l6.51 14.624M159.5 86.531l6.51 14.624"/>
        </g>
        <g stroke="#FFCE39" stroke-linecap="square" stroke-width=".85">
            <path d="M207.816 101.49l6.765-14.507M158.444 207.37l6.765-14.508"/>
        </g>
        <g>
            <path fill="#231F20" d="M121.22 115.015c1.044 11.934 12.86 20.655 26.463 19.465a28.65 28.65 0 0 0 5.655-1.064l10.26 5.069c.744.408 1.548-.513 1.129-1.235l-3.498-7.647c6.147-4.518 9.784-11.465 9.135-18.888-1.044-11.934-12.86-20.656-26.463-19.465-13.603 1.19-23.725 11.83-22.681 23.764z"/>
            <path fill="#FFF" d="M153.005 107.993c-.562-1.143-4.082-4.972-8.163.571-4.286-5.543-7.602-1.714-8.163-.57-1.02 2.114-.408 5.315 1.02 6.858l7.144 8.002 7.143-8.002c1.427-1.543 2.04-4.743 1.019-6.859z"/>
        </g>
        <g>
            <path fill="url(#g)" d="M95.644 84.31c-24.61-10.721-61.253-33.812-74.652-60.477C7.592-2.83 16.617 61.77 16.617 61.77S32.203 92.007 86.894 93.38" opacity=".1" transform="scale(-1 1) rotate(-55 -89.78 506.353)"/>
            <path fill="#FFCE39" d="M327.568 120.804s11.412 6.944 12.353 5.823c.94-1.12-8.163-10.815-8.163-10.815"/>
            <path fill="#FFCE39" d="M327.512 120.872c.49 2.02 6.273 4.824 6.707 4.307.434-.517-5.412-5.851-5.412-5.851"/>
            <path fill="#FF7031" d="M332.036 115.48c2.073.132 5.813 5.373 5.379 5.89-.434.517-6.766-4.237-6.766-4.237"/>
            <path fill="#EE5F56" d="M327.275 121.153s16.172 10.588 17.238 9.318c1.065-1.27-12.491-14.974-12.491-14.974"/>
            <path fill="#EE5F56" d="M327.211 121.23c.966 2.632 9.049 7.094 9.54 6.508.492-.585-8.072-8.258-8.072-8.258M332.337 115.122c2.76.494 8.527 7.715 8.035 8.301-.491.586-9.606-6.429-9.606-6.429"/>
            <path fill="#FFCE39" d="M326.42 119.106s8.363 4.817 9.149 3.88c.786-.937-5.648-8.054-5.648-8.054"/>
            <path fill="#FFCE39" d="M326.372 119.163c.26 1.563 4.54 3.441 4.902 3.009.363-.433-3.819-4.3-3.819-4.3M330.154 114.656c1.584-.015 4.155 3.9 3.792 4.332-.363.432-4.952-2.95-4.952-2.95"/>
            <g>
                <path fill="#231F20" d="M325.845 106.215l11.227.412 5.236 10.151-.57.681c-2.44-1.784-6.496-4.296-9.506-2.428l-6.387-8.816z"/>
                <g transform="scale(-1 1) rotate(50 -240.465 -288.638)">
                    <mask id="i" fill="#fff">
                        <use xlink:href="#h"/>
                    </mask>
                    <path fill="#404042" d="M7.021 31.081L.488 39.474 4.79 49.748h.525c.365-4.961 1.737-7.831 4.192-8.76L7.02 31.08zM5.526 50.203h-.888a.227.227 0 0 1-.21-.14L.018 39.527a.227.227 0 0 1 .03-.227l6.9-8.866a.227.227 0 0 1 .4.085l2.649 10.559a.227.227 0 0 1-.15.27c-2.419.795-3.758 3.622-4.094 8.643a.227.227 0 0 1-.227.212z" mask="url(#i)"/>
                </g>
                <path fill="#231F20" d="M317.166 116.559l2.355 10.985 10.906 3.394.571-.68c-2.18-2.093-5.358-5.651-4.041-8.94l-9.791-4.76z"/>
                <path fill="#231F20" d="M319.716 127.367l-2.23-10.4 9.186 4.465c-.867 2.479.449 5.375 4.016 8.842l-.338.403-10.634-3.31zm11.44 2.727c-3.631-3.483-4.936-6.326-3.988-8.691a.227.227 0 0 0-.112-.29l-9.79-4.758a.227.227 0 0 0-.323.252l2.356 10.985c.017.08.076.145.155.17l10.905 3.393c.088.028.183 0 .242-.07l.571-.681a.228.228 0 0 0-.016-.31z"/>
                <path fill="#EE5F56" d="M324.911 102.303c3.766 3.908 6.507 8.41 7.32 12.728a22.037 22.037 0 0 1-5.275 6.287c-4.393-.05-9.304-1.968-13.806-4.998a40.503 40.503 0 0 1-8.327-7.481c-4.35-5.19-7.098-11.297-6.466-16.874 5.383-1.591 11.875.054 17.74 3.437a40.387 40.387 0 0 1 8.814 6.901"/>
                <g fill="#231F20">
                    <path d="M332.233 115.03l-.002.001.002-.002zm-18.957 1.101a40.342 40.342 0 0 1-8.279-7.438c-4.673-5.575-6.952-11.445-6.43-16.553 4.939-1.4 11.116-.175 17.417 3.46a40.215 40.215 0 0 1 8.763 6.86c3.89 4.036 6.46 8.483 7.245 12.533a21.94 21.94 0 0 1-5.116 6.097c-4.124-.07-8.95-1.83-13.6-4.959zm19.153-.989a.226.226 0 0 0 .025-.153c-.783-4.157-3.403-8.718-7.38-12.844h.001a40.688 40.688 0 0 0-8.864-6.94c-6.471-3.732-12.835-4.96-17.918-3.458a.227.227 0 0 0-.162.192c-.596 5.267 1.718 11.32 6.518 17.046a40.803 40.803 0 0 0 8.374 7.523c4.753 3.2 9.7 4.988 13.93 5.037a.226.226 0 0 0 .146-.051 22.317 22.317 0 0 0 5.33-6.351z"/>
                    <path d="M291.046 85.52l-.253.303 7.282 6.448.491-.585z"/>
                </g>
                <path fill="#D4554C" d="M324.911 102.303L313.15 116.32a40.503 40.503 0 0 1-8.327-7.481l11.275-13.437a40.387 40.387 0 0 1 8.813 6.901"/>
                <path fill="#231F20" d="M305.12 108.838l11.029-13.143a40.265 40.265 0 0 1 8.456 6.619l-11.498 13.703a40.39 40.39 0 0 1-7.987-7.179m19.955-6.692a40.674 40.674 0 0 0-8.864-6.94.227.227 0 0 0-.287.05l-11.275 13.437a.227.227 0 0 0 0 .292 40.803 40.803 0 0 0 8.374 7.523.227.227 0 0 0 .3-.042l11.762-14.017a.227.227 0 0 0-.01-.303"/>
                <path fill="#6C6E70" d="M306.81 99.178a4.474 4.474 0 0 1 6.301-.554 4.474 4.474 0 0 1 .55 6.302 4.472 4.472 0 1 1-6.852-5.748"/>
                <path fill="#231F20" d="M307.021 99.356a4.171 4.171 0 0 1 2.85-1.484 4.167 4.167 0 0 1 3.062.964 4.202 4.202 0 0 1 .516 5.912l-.001.001a4.172 4.172 0 0 1-2.849 1.484 4.165 4.165 0 0 1-3.063-.965 4.201 4.201 0 0 1-.515-5.912zm6.852 5.748a4.756 4.756 0 0 0-.584-6.692 4.716 4.716 0 0 0-3.467-1.092 4.722 4.722 0 0 0-3.225 1.68 4.756 4.756 0 0 0 .583 6.692 4.714 4.714 0 0 0 3.467 1.093 4.721 4.721 0 0 0 3.225-1.68z"/>
                <path fill="#BFE7FF" d="M307.234 103.146a3.195 3.195 0 0 1 6.001-2.187 3.196 3.196 0 0 1-1.91 4.094 3.19 3.19 0 0 1-4.091-1.907"/>
                <path fill="#231F20" d="M307.494 103.051a2.898 2.898 0 0 1 .099-2.23 2.917 2.917 0 0 1 5.382.233 2.923 2.923 0 0 1-1.744 3.739 2.918 2.918 0 0 1-3.737-1.742m6.002-2.186a3.472 3.472 0 0 0-6.522 2.376 3.472 3.472 0 0 0 5.913 1.046 3.475 3.475 0 0 0 .609-3.422"/>
                <path fill="#FEFEFE" d="M311.983 103.36a2.624 2.624 0 0 0-4.003-2.664 2.626 2.626 0 0 1 4.81 1.847 2.621 2.621 0 0 1-1.167 1.753c.175-.278.3-.594.36-.937" opacity=".5"/>
                <path fill="#FEFEFE" d="M305.049 107.156a.227.227 0 0 1-.352-.005c-5.362-6.767-5.54-14.248-5.541-14.323a.227.227 0 0 1 .454-.007c.001.073.18 7.406 5.443 14.048a.228.228 0 0 1-.004.287M313.246 115.173a.227.227 0 0 1-.302.041c-4.123-2.82-7.077-6.376-7.107-6.412a.227.227 0 1 1 .35-.29c.03.036 2.945 3.544 7.014 6.327a.227.227 0 0 1 .045.334M326.752 120.58a.227.227 0 0 1-.18.081c-5.23-.143-11.811-4.11-12.089-4.278a.227.227 0 1 1 .236-.388c.068.04 6.758 4.072 11.865 4.212a.227.227 0 0 1 .168.373"/>
                <path fill="#FEFEFE" d="M329.39 129.856a.227.227 0 0 1-.248.07l-8.866-3.04a.226.226 0 0 1-.149-.17l-1.237-6.18a.228.228 0 0 1 .445-.09l1.212 6.053 8.743 2.996a.227.227 0 0 1 .1.361" opacity=".5"/>
            </g>
        </g>
    </g>
</svg>
